<?xml version="1.0" encoding="UTF-8"?>
<svg version="1.1" xmlns="http://www.w3.org/2000/svg" width="512" height="512">
<path d="M0 0 C0.77318573 0.00182281 1.54637146 0.00364563 2.34298706 0.00552368 C13.7573995 0.05083947 24.69669416 0.52187516 35.8125 3.3125 C36.88927002 3.56193359 36.88927002 3.56193359 37.98779297 3.81640625 C65.87023196 10.32733254 90.1408757 24.75370376 110.8125 44.3125 C111.63363281 45.08078125 112.45476562 45.8490625 113.30078125 46.640625 C138.92013205 71.34357601 156.47355269 108.44149668 157.97363281 144.14794922 C158.35163856 179.8782833 158.35163856 179.8782833 154.8125 193.3125 C154.50650879 194.50238525 154.50650879 194.50238525 154.19433594 195.71630859 C145.56266879 228.46513015 128.77036849 253.50751149 104.97935486 277.29281616 C104.13765875 278.13818896 103.29596264 278.98356176 102.42876059 279.85455191 C100.12163739 282.1706999 97.81235668 284.4846695 95.50205529 286.79764652 C92.99912922 289.30451761 90.49902276 291.81419844 87.99847412 294.32344055 C81.97654139 300.36501286 75.94987435 306.40185155 69.92257413 312.43806833 C67.64671983 314.71743928 65.37118033 316.99712435 63.0956567 319.27682542 C53.0440032 329.34692886 42.99099889 339.41568153 32.93396664 349.48041344 C30.48013806 351.93615143 28.02631499 354.39189492 25.57250977 356.84765625 C24.96273899 357.45791077 24.35296821 358.06816528 23.72471953 358.69691236 C13.85159641 368.57833241 3.98702483 378.4682434 -5.8739943 388.36174099 C-16.02789142 398.54880499 -26.1893948 408.728232 -36.35829538 418.9003197 C-42.05566542 424.59984512 -47.74976575 430.30255166 -53.43535042 436.01383591 C-58.27741582 440.87773978 -63.12641804 445.73459664 -67.98424352 450.58276223 C-70.45612746 453.05014024 -72.9248311 455.52047185 -75.38462639 457.99990654 C-100.41940963 483.20163042 -126.5834802 500.41372099 -161.1875 509.3125 C-161.87376465 509.49329102 -162.5600293 509.67408203 -163.26708984 509.86035156 C-184.20126317 515.09779955 -211.3500314 514.80196696 -232.1875 509.3125 C-233.37738525 509.00650879 -233.37738525 509.00650879 -234.59130859 508.69433594 C-262.50764511 501.33637577 -286.22528669 488.14624179 -307.1875 468.3125 C-308.00863281 467.54421875 -308.82976562 466.7759375 -309.67578125 465.984375 C-335.29513205 441.28142399 -352.84855269 404.18350332 -354.34863281 368.47705078 C-354.72663856 332.7467167 -354.72663856 332.7467167 -351.1875 319.3125 C-350.98350586 318.51924316 -350.77951172 317.72598633 -350.56933594 316.90869141 C-340.99966955 280.60107069 -321.03668479 255.0449735 -294.94067383 228.87280273 C-293.41198283 227.33619538 -291.88346903 225.79941173 -290.3551178 224.26246643 C-285.37196427 219.25330901 -280.38354892 214.24940963 -275.39453125 209.24609375 C-273.67196234 207.51815961 -271.94939959 205.79021933 -270.22684288 204.06227303 C-263.0666064 196.88045564 -255.90495055 189.70005866 -248.73956776 182.52337551 C-238.48650606 172.25403127 -228.24206546 161.9762538 -218.00928861 151.68669552 C-210.79997088 144.43874019 -203.58115251 137.20033594 -196.35513896 129.96902615 C-192.04297994 125.65321045 -187.73512313 121.33329398 -183.43735695 117.0031414 C-179.40245418 112.93826103 -175.35595057 108.88530605 -171.30013084 104.84129906 C-169.81308566 103.35447534 -168.3303265 101.86335093 -166.85217285 100.36768723 C-164.83639635 98.32933387 -162.8058616 96.30692785 -160.77082825 94.28782654 C-160.18745644 93.69057264 -159.60408463 93.09331875 -159.00303489 92.47796625 C-155.55771586 89.09889555 -153.2262357 87.47227035 -148.1875 87.3125 C-147.49140625 87.52519531 -146.7953125 87.73789063 -146.078125 87.95703125 C-144.05121588 88.55614267 -144.05121588 88.55614267 -142.046875 87.01171875 C-141.35078125 86.34785156 -140.6546875 85.68398437 -139.9375 85 C-139.23109375 84.36449219 -138.5246875 83.72898437 -137.796875 83.07421875 C-135.96489206 79.93050046 -136.17026204 79.11553012 -136.50292969 75.62573242 C-136.55659008 71.5383297 -136.07182248 69.46364512 -133.41210938 66.33837891 C-132.14471792 65.04569244 -130.84910267 63.78026504 -129.53125 62.5390625 C-128.48946594 61.50427261 -128.48946594 61.50427261 -127.42663574 60.44857788 C-125.95183182 58.99320958 -124.46503955 57.54990262 -122.96728516 56.11816406 C-120.72598941 53.97431596 -118.52297048 51.79674449 -116.32421875 49.609375 C-102.7219233 36.22326158 -88.24779565 24.92942246 -71.1875 16.3125 C-70.49994629 15.96203613 -69.81239258 15.61157227 -69.10400391 15.25048828 C-47.47021665 4.42111266 -24.05794667 -0.11769875 0 0 Z " fill="#D7F2FC" transform="translate(354.1875,-0.3125)"/>
<path d="M0 0 C5.75892022 5.55357785 9.58203402 12.47090036 13.73876953 19.25024414 C18.73477513 27.31052987 24.2482457 34.00316745 31.0625 40.5625 C32.14337891 41.65498047 32.14337891 41.65498047 33.24609375 42.76953125 C38.95930257 48.24513971 45.59706094 52.14510545 52.3125 56.25 C64.03269447 63.4303563 72.60568273 71.43776873 75.93359375 85.15234375 C81.90219059 113.73878125 79.95063611 144.01364196 67.0625 170.5625 C66.78035645 171.14451172 66.49821289 171.72652344 66.20751953 172.32617188 C56.01327788 193.07083302 40.0201214 208.76341636 23.90234375 224.9609375 C22.84397403 226.02542051 22.84397403 226.02542051 21.7642231 227.11140823 C18.04030714 230.85599082 14.31326309 234.59742791 10.58374023 238.33642578 C6.75708666 242.17420246 2.9422762 246.0235367 -0.87012577 249.87546349 C-3.83100871 252.86256442 -6.80081349 255.84067517 -9.77303886 258.81648636 C-11.18328467 260.23157158 -12.59018026 261.6500045 -13.9934864 263.07197189 C-34.23607435 283.56729198 -34.23607435 283.56729198 -48.90039062 283.99414062 C-59.73949874 284.0235149 -68.02071897 281.94704316 -76.75 275.125 C-87.31805714 264.59500766 -91.01716292 248.15574296 -95.5 234.375 C-100.57313561 218.78171531 -105.30985501 205.31567399 -115.9375 192.5625 C-116.43507813 191.90765625 -116.93265625 191.2528125 -117.4453125 190.578125 C-120.94007786 186.18771626 -124.99618271 182.75685765 -129.5 179.4375 C-130.28419312 178.84400757 -130.28419312 178.84400757 -131.08422852 178.23852539 C-143.81688678 169.21079328 -160.22593801 165.36576955 -174.93237305 160.74243164 C-190.0727596 155.96481032 -203.92049737 151.34677922 -212.47265625 136.984375 C-217.00488995 127.74316311 -217.48818943 117.54972412 -215.2734375 107.5703125 C-210.669922 94.72049966 -198.83400253 85.1482021 -189.43359375 75.7578125 C-187.90750316 74.22782646 -186.38163331 72.69762021 -184.85597229 71.16720581 C-181.66445236 67.96825071 -178.46912067 64.77316263 -175.27124023 61.58056641 C-171.20725474 57.52235722 -167.15471306 53.45293363 -163.10525417 49.38023567 C-159.95749348 46.21761856 -156.80269955 43.06208833 -153.64595222 39.90844345 C-152.15074391 38.41272741 -150.65784631 36.91469722 -149.16747856 35.41415787 C-115.66123786 1.7074365 -45.77364737 -35.71675554 0 0 Z " fill="#92E167" transform="translate(402.9375,41.4375)"/>
<path d="M0 0 C10.07555172 7.03417001 15.05739804 16.81792715 18.62109375 28.328125 C18.92894302 29.27959412 19.2367923 30.23106323 19.55397034 31.21136475 C20.52701484 34.22059013 21.48410119 37.23449769 22.4375 40.25 C31.33892859 68.3624085 41.63184055 91.54900239 69 106 C77.17339702 109.67443296 85.61272839 112.60136704 94.1171875 115.40234375 C94.99319611 115.69161743 95.86920471 115.98089111 96.77175903 116.27893066 C100.38719208 117.46976904 104.00313503 118.65798671 107.62792969 119.82006836 C122.41719204 124.57714927 133.11118328 129.28257342 141.25390625 143.1328125 C145.46923682 151.79847464 145.31570079 162.07934643 143.2578125 171.33984375 C141.24018958 176.94353369 138.28385359 181.0643212 134.24169922 185.40185547 C133.76529936 185.91345655 133.2888995 186.42505764 132.79806328 186.95216179 C126.32236875 193.85809272 119.62968066 200.55500586 112.9453125 207.2578125 C112.24347713 207.96247524 111.54164177 208.66713799 110.81853867 209.39315414 C107.11037782 213.11617798 103.39945133 216.83641737 99.68603516 220.55419922 C95.88832504 224.35740235 92.09999927 228.16981151 88.31376839 231.98443794 C85.36402722 234.95294005 82.4074656 237.91457964 79.44909286 240.87447739 C78.05059009 242.27597241 76.65454602 243.67992603 75.26120377 245.08655167 C47.93071108 272.65912999 15.7080604 289.97760526 -23.875 290.25 C-41.62415699 290.14443005 -60.57726056 288.77980851 -74.08203125 276.03515625 C-78.66128687 271.19322822 -81.84992632 265.96815853 -85.09765625 260.1796875 C-95.60744258 242.61302206 -110.56028811 230.17890571 -127.9375 219.8125 C-139.01175937 213.05236352 -144.98120563 205.1302624 -148.26171875 192.3984375 C-155.85148323 159.23537434 -149.91187855 123.78359334 -132.25 94.8125 C-131.89268799 94.21993408 -131.53537598 93.62736816 -131.16723633 93.0168457 C-123.90536532 81.60445441 -114.07850616 71.56256265 -104.66601562 61.91088867 C-103.54365152 60.7498734 -102.43310841 59.57732726 -101.33398438 58.39428711 C-92.05788424 48.42193445 -92.05788424 48.42193445 -86.90527344 47.36547852 C-83.984375 47.453125 -83.984375 47.453125 -81.29492188 47.78198242 C-78.81274408 48.22261672 -78.81274408 48.22261672 -76.140625 46.56640625 C-72.26802228 42.76551158 -72.26802228 42.76551158 -70.98046875 37.74609375 C-71.28012953 36.27340187 -71.59466608 34.80364181 -71.92553711 33.33764648 C-72 31 -72 31 -70.86865234 29.16650391 C-70.30098145 28.56757324 -69.73331055 27.96864258 -69.1484375 27.3515625 C-68.17910278 26.31467285 -68.17910278 26.31467285 -67.19018555 25.25683594 C-66.46742432 24.51208008 -65.74466309 23.76732422 -65 23 C-64.24307861 22.20110352 -63.48615723 21.40220703 -62.70629883 20.57910156 C-60.22589949 17.98453108 -57.71121428 15.42741459 -55.1875 12.875 C-53.92969727 11.57369141 -53.92969727 11.57369141 -52.64648438 10.24609375 C-38.28063381 -4.2633049 -18.72022872 -11.34810325 0 0 Z " fill="#92E167" transform="translate(181,192)"/>
<path d="M0 0 C0.77318573 0.00182281 1.54637146 0.00364563 2.34298706 0.00552368 C13.7573995 0.05083947 24.69669416 0.52187516 35.8125 3.3125 C36.88927002 3.56193359 36.88927002 3.56193359 37.98779297 3.81640625 C65.87023196 10.32733254 90.1408757 24.75370376 110.8125 44.3125 C111.63363281 45.08078125 112.45476562 45.8490625 113.30078125 46.640625 C138.92013205 71.34357601 156.47355269 108.44149668 157.97363281 144.14794922 C158.35163856 179.8782833 158.35163856 179.8782833 154.8125 193.3125 C154.50650879 194.50238525 154.50650879 194.50238525 154.19433594 195.71630859 C145.56266879 228.46513015 128.77036849 253.50751149 104.97935486 277.29281616 C104.13765875 278.13818896 103.29596264 278.98356176 102.42876059 279.85455191 C100.12163739 282.1706999 97.81235668 284.4846695 95.50205529 286.79764652 C92.99912922 289.30451761 90.49902276 291.81419844 87.99847412 294.32344055 C81.97654139 300.36501286 75.94987435 306.40185155 69.92257413 312.43806833 C67.64671983 314.71743928 65.37118033 316.99712435 63.0956567 319.27682542 C53.0440032 329.34692886 42.99099889 339.41568153 32.93396664 349.48041344 C30.48013806 351.93615143 28.02631499 354.39189492 25.57250977 356.84765625 C24.96273899 357.45791077 24.35296821 358.06816528 23.72471953 358.69691236 C13.85159641 368.57833241 3.98702483 378.4682434 -5.8739943 388.36174099 C-16.02789142 398.54880499 -26.1893948 408.728232 -36.35829538 418.9003197 C-42.05566542 424.59984512 -47.74976575 430.30255166 -53.43535042 436.01383591 C-58.27741582 440.87773978 -63.12641804 445.73459664 -67.98424352 450.58276223 C-70.45612746 453.05014024 -72.9248311 455.52047185 -75.38462639 457.99990654 C-100.41940963 483.20163042 -126.5834802 500.41372099 -161.1875 509.3125 C-161.87376465 509.49329102 -162.5600293 509.67408203 -163.26708984 509.86035156 C-184.20126317 515.09779955 -211.3500314 514.80196696 -232.1875 509.3125 C-233.37738525 509.00650879 -233.37738525 509.00650879 -234.59130859 508.69433594 C-262.50764511 501.33637577 -286.22528669 488.14624179 -307.1875 468.3125 C-308.00863281 467.54421875 -308.82976562 466.7759375 -309.67578125 465.984375 C-335.29513205 441.28142399 -352.84855269 404.18350332 -354.34863281 368.47705078 C-354.72663856 332.7467167 -354.72663856 332.7467167 -351.1875 319.3125 C-350.98350586 318.51924316 -350.77951172 317.72598633 -350.56933594 316.90869141 C-340.99966955 280.60107069 -321.03668479 255.0449735 -294.94067383 228.87280273 C-293.41198283 227.33619538 -291.88346903 225.79941173 -290.3551178 224.26246643 C-285.37196427 219.25330901 -280.38354892 214.24940963 -275.39453125 209.24609375 C-273.67196234 207.51815961 -271.94939959 205.79021933 -270.22684288 204.06227303 C-263.0666064 196.88045564 -255.90495055 189.70005866 -248.73956776 182.52337551 C-238.48650606 172.25403127 -228.24206546 161.9762538 -218.00928861 151.68669552 C-210.79997088 144.43874019 -203.58115251 137.20033594 -196.35513896 129.96902615 C-192.04297994 125.65321045 -187.73512313 121.33329398 -183.43735695 117.0031414 C-179.40245418 112.93826103 -175.35595057 108.88530605 -171.30013084 104.84129906 C-169.81308566 103.35447534 -168.3303265 101.86335093 -166.85217285 100.36768723 C-164.83639635 98.32933387 -162.8058616 96.30692785 -160.77082825 94.28782654 C-160.18745644 93.69057264 -159.60408463 93.09331875 -159.00303489 92.47796625 C-155.56044784 89.101575 -153.22451743 87.45953554 -148.1875 87.3125 C-144.82693304 88.43268899 -144.22393934 89.25784099 -142.1875 92.3125 C-141.625 95 -141.625 95 -142.1875 98.3125 C-148.01039983 106.78252786 -156.69311208 113.92753334 -163.96020508 121.15112305 C-165.46247385 122.64819226 -166.96449672 124.14550828 -168.46629333 125.64305115 C-171.69024266 128.85709327 -174.91564948 132.06966298 -178.1421299 135.28116417 C-183.25281752 140.36868755 -188.35853862 145.46117553 -193.46330261 150.55464172 C-207.97651064 165.0345013 -222.49383287 179.51021755 -237.02172852 193.9753418 C-245.05350311 201.97249628 -253.07982969 209.97507725 -261.1002323 217.98363715 C-266.16357419 223.03892096 -271.2333894 228.08758955 -276.3081795 233.13137949 C-279.47652574 236.28361376 -282.63844961 239.44223076 -285.79865456 242.60262489 C-287.25440082 244.05596836 -288.7126912 245.50676916 -290.17383957 246.9546814 C-310.54379355 267.14792167 -326.67461448 290.28391382 -334.1875 318.3125 C-334.48164795 319.40014648 -334.48164795 319.40014648 -334.78173828 320.50976562 C-344.00917336 356.33303772 -337.6569783 394.46785876 -319.53125 426.41796875 C-313.00414438 437.46531404 -305.18318677 447.18939557 -296.1875 456.3125 C-294.94613281 457.57320313 -294.94613281 457.57320313 -293.6796875 458.859375 C-269.93356255 481.6614644 -236.93754734 495.28135546 -204.1875 496.3125 C-203.4155127 496.34504883 -202.64352539 496.37759766 -201.84814453 496.41113281 C-164.26624089 497.88260145 -128.38322515 484.82950138 -100.63484395 459.42470062 C-92.00235058 451.43686383 -83.75809084 443.03964594 -75.44091797 434.72705078 C-73.46570397 432.75594392 -71.48977696 430.78555231 -69.51391602 428.81509399 C-64.17667848 423.49133333 -58.84312477 418.16389264 -53.51041174 412.83560038 C-50.1733335 409.5013 -46.83552503 406.16773128 -43.49759293 402.83428574 C-34.23244034 393.58130673 -24.9682219 384.32739468 -15.70745659 375.07002449 C-15.11693619 374.47972365 -14.52641578 373.88942282 -13.91800082 373.28123408 C-13.32619313 372.68964466 -12.73438543 372.09805523 -12.12464416 371.48853886 C-10.92570834 370.29004649 -9.72677096 369.09155567 -8.52783203 367.89306641 C-7.93313697 367.29859277 -7.33844191 366.70411914 -6.72572578 366.09163116 C2.91581541 356.45404019 12.56409737 346.82322772 22.21529056 337.19530334 C32.15418843 327.28017264 42.08739872 317.35937329 52.01500213 307.43293369 C57.57713397 301.87171504 63.14161609 296.31289601 68.71240616 290.76034927 C73.45328681 286.03494158 78.18890162 281.30433271 82.91794242 276.56707491 C85.32558817 274.15554937 87.73627509 271.74729973 90.15211105 269.34396362 C107.84365233 251.73856483 121.72781304 234.29320609 131.8125 211.3125 C132.20308594 210.46300781 132.59367187 209.61351562 132.99609375 208.73828125 C136.39160601 200.95634847 138.15001102 192.61039168 139.8125 184.3125 C139.99345215 183.42006592 140.1744043 182.52763184 140.36083984 181.6081543 C144.0362868 161.84727992 143.02219721 140.69403087 137.8125 121.3125 C137.51496826 120.17844727 137.51496826 120.17844727 137.21142578 119.02148438 C127.67479146 83.97037017 103.37388628 53.52882682 72.1875 35.3125 C39.25318478 16.6132328 0.71555974 10.46096756 -36.1875 20.3125 C-36.94498535 20.51085449 -37.7024707 20.70920898 -38.48291016 20.91357422 C-65.02112966 28.13560105 -87.3853091 43.79269363 -106.17068481 63.46051025 C-108.11512711 65.49343164 -110.07359858 67.51263647 -112.03149414 69.53259277 C-113.47828024 71.03987209 -114.89993183 72.56831299 -116.32226562 74.09863281 C-122.95611031 80.96278635 -122.95611031 80.96278635 -126.54638672 81.98242188 C-129.5130805 82.02817719 -131.94500438 81.40949825 -134.6875 80.3125 C-136.60134277 77.76070964 -136.71952186 75.6348707 -136.64770508 72.49279785 C-135.74591121 68.22039991 -132.59055649 65.66276233 -129.53125 62.734375 C-128.48946594 61.69534027 -128.48946594 61.69534027 -127.42663574 60.63531494 C-125.94959401 59.17034364 -124.46285569 57.71509343 -122.96728516 56.26904297 C-120.73001453 54.10364867 -118.52531524 51.90911855 -116.32421875 49.70703125 C-102.73004789 36.24767893 -88.28908533 24.95027731 -71.1875 16.3125 C-70.49994629 15.96203613 -69.81239258 15.61157227 -69.10400391 15.25048828 C-47.47021665 4.42111266 -24.05794667 -0.11769875 0 0 Z " fill="#010101" transform="translate(354.1875,-0.3125)"/>
<path d="M0 0 C13.49639336 10.5219816 23.33364743 25.61369478 26.5625 42.5546875 C28.83590163 61.63343059 24.88239148 80.50892418 12.9609375 95.8984375 C1.62827703 110.02067593 -13.87527615 119.78118633 -32.0390625 121.8984375 C-50.42151068 123.23369436 -67.3886641 120.33183799 -82.09765625 108.421875 C-96.15528633 96.21479756 -105.82282747 81.65728404 -108.0390625 62.8984375 C-109.13439641 43.18242707 -105.26412607 25.48763388 -92.1171875 10.1328125 C-67.36687429 -16.47842651 -29.9972755 -20.74361725 0 0 Z " fill="#000301" transform="translate(190.0390625,308.1015625)"/>
<path d="M0 0 C12.83500802 11.16541348 23.77574135 26.85118497 25.1887207 44.33520508 C25.26757757 46.83133794 25.27790028 49.31530593 25.25 51.8125 C25.24250732 52.69615234 25.23501465 53.57980469 25.22729492 54.49023438 C24.92471061 72.86842809 18.23061652 88.4881251 5.5625 101.875 C-8.90147094 115.3082052 -27.13484908 121.64718878 -46.70703125 121.2734375 C-64.5110388 120.46434649 -81.06286023 111.35850259 -93.2109375 98.6953125 C-105.37396552 84.48181233 -111.00827555 66.22721076 -110.375 47.64453125 C-108.40229052 28.472261 -99.20732944 12.1696005 -84.49609375 -0.0859375 C-82.0623388 -1.8751185 -79.60014483 -3.46355078 -77 -5 C-76.08734375 -5.54398438 -75.1746875 -6.08796875 -74.234375 -6.6484375 C-50.91013463 -19.43311471 -20.87504132 -16.03445203 0 0 Z " fill="#000301" transform="translate(405,96)"/>
<path d="M0 0 C5.75892022 5.55357785 9.58203402 12.47090036 13.73876953 19.25024414 C18.73477513 27.31052987 24.2482457 34.00316745 31.0625 40.5625 C32.14337891 41.65498047 32.14337891 41.65498047 33.24609375 42.76953125 C38.95930257 48.24513971 45.59706094 52.14510545 52.3125 56.25 C64.03269447 63.4303563 72.60568273 71.43776873 75.93359375 85.15234375 C81.90219059 113.73878125 79.95063611 144.01364196 67.0625 170.5625 C66.78035645 171.14451172 66.49821289 171.72652344 66.20751953 172.32617188 C56.01327788 193.07083302 40.0201214 208.76341636 23.90234375 224.9609375 C22.84397403 226.02542051 22.84397403 226.02542051 21.7642231 227.11140823 C18.04030714 230.85599082 14.31326309 234.59742791 10.58374023 238.33642578 C6.75708666 242.17420246 2.9422762 246.0235367 -0.87012577 249.87546349 C-3.83100871 252.86256442 -6.80081349 255.84067517 -9.77303886 258.81648636 C-11.18328467 260.23157158 -12.59018026 261.6500045 -13.9934864 263.07197189 C-34.23607435 283.56729198 -34.23607435 283.56729198 -48.90039062 283.99414062 C-59.73949874 284.0235149 -68.02071897 281.94704316 -76.75 275.125 C-87.31805714 264.59500766 -91.01716292 248.15574296 -95.5 234.375 C-100.57313561 218.78171531 -105.30985501 205.31567399 -115.9375 192.5625 C-116.43507813 191.90765625 -116.93265625 191.2528125 -117.4453125 190.578125 C-120.94007786 186.18771626 -124.99618271 182.75685765 -129.5 179.4375 C-130.28419312 178.84400757 -130.28419312 178.84400757 -131.08422852 178.23852539 C-143.81688678 169.21079328 -160.22593801 165.36576955 -174.93237305 160.74243164 C-190.0727596 155.96481032 -203.92049737 151.34677922 -212.47265625 136.984375 C-217.00488995 127.74316311 -217.48818943 117.54972412 -215.2734375 107.5703125 C-210.669922 94.72049966 -198.83400253 85.1482021 -189.43359375 75.7578125 C-187.90750316 74.22782646 -186.38163331 72.69762021 -184.85597229 71.16720581 C-181.66445236 67.96825071 -178.46912067 64.77316263 -175.27124023 61.58056641 C-171.20725474 57.52235722 -167.15471306 53.45293363 -163.10525417 49.38023567 C-159.95749348 46.21761856 -156.80269955 43.06208833 -153.64595222 39.90844345 C-152.15074391 38.41272741 -150.65784631 36.91469722 -149.16747856 35.41415787 C-115.66123786 1.7074365 -45.77364737 -35.71675554 0 0 Z M-127.89575195 35.96533203 C-128.54739728 36.57564333 -129.19904261 37.18595463 -129.87043476 37.81476021 C-136.89767778 44.4239438 -143.76601309 51.18963111 -150.60546875 57.9921875 C-151.25970636 58.64234959 -151.91394398 59.29251167 -152.58800697 59.96237564 C-156.031993 63.3857896 -159.47290309 66.81226105 -162.91137695 70.24121094 C-166.44102221 73.75967539 -169.98223137 77.26627036 -173.52591991 80.7705822 C-176.27699998 83.49550238 -179.01914202 86.22928614 -181.75896645 88.96551895 C-183.06127351 90.26298159 -184.36693295 91.557089 -185.67610741 92.84762192 C-187.50094798 94.64801877 -189.31264586 96.46074057 -191.12182617 98.27685547 C-191.92049858 99.05631279 -191.92049858 99.05631279 -192.73530579 99.85151672 C-197.84721437 105.03483399 -201.51032485 110.98296004 -201.5 118.4375 C-201.25345323 124.53953256 -199.909577 129.82746959 -195.9375 134.5625 C-189.86549294 139.34646473 -183.6250353 142.06496064 -176.3046875 144.3671875 C-175.30978302 144.69486115 -174.31487854 145.02253479 -173.28982544 145.36013794 C-169.08481278 146.74463246 -164.86983292 148.09753787 -160.65527344 149.45263672 C-132.11023169 158.67837285 -106.96749305 171.97998256 -92.70336914 199.75048828 C-86.65824497 212.10154533 -82.41668306 224.69888911 -78.44995117 237.83740234 C-73.91699558 254.25010373 -73.91699558 254.25010373 -62.875 266.625 C-57.18038243 269.3668529 -51.08316382 269.89851387 -44.9375 268.5625 C-34.63525055 264.11165434 -27.1413667 255.31013078 -19.40234375 247.48828125 C-17.91435232 245.99790028 -16.42561493 244.50826376 -14.93617249 243.01933289 C-11.82611983 239.90616442 -8.72285936 236.78643611 -5.62475586 233.66137695 C-1.67903192 229.68173532 2.27966749 225.71532436 6.24314213 221.75336933 C9.31603814 218.6799259 12.38366693 215.60126958 15.44961357 212.520895 C16.90630444 211.05789705 18.36415923 209.59605694 19.82325935 208.13546181 C41.54672389 186.36534341 57.5904278 164.35449949 63.0625 133.5625 C63.35253906 132.12970703 63.35253906 132.12970703 63.6484375 130.66796875 C65.854558 114.122065 65.9304614 90.91568838 55.75 76.9375 C52.14601397 73.1059896 47.52144199 70.70771349 43.01098633 68.10009766 C23.78224247 56.92445745 9.16101351 41.21279093 -2.16796875 22.20874023 C-7.91758461 12.57235102 -13.01530625 8.57026148 -23.9375 5.5625 C-62.08417585 -3.18356428 -99.96979334 9.74979208 -127.89575195 35.96533203 Z " fill="#020302" transform="translate(402.9375,41.4375)"/>
<path d="M0 0 C10.07555172 7.03417001 15.05739804 16.81792715 18.62109375 28.328125 C18.92894302 29.27959412 19.2367923 30.23106323 19.55397034 31.21136475 C20.52701484 34.22059013 21.48410119 37.23449769 22.4375 40.25 C31.33892859 68.3624085 41.63184055 91.54900239 69 106 C77.17339702 109.67443296 85.61272839 112.60136704 94.1171875 115.40234375 C94.99319611 115.69161743 95.86920471 115.98089111 96.77175903 116.27893066 C100.38719208 117.46976904 104.00313503 118.65798671 107.62792969 119.82006836 C122.41719204 124.57714927 133.11118328 129.28257342 141.25390625 143.1328125 C145.46923682 151.79847464 145.31570079 162.07934643 143.2578125 171.33984375 C141.24018958 176.94353369 138.28385359 181.0643212 134.24169922 185.40185547 C133.76529936 185.91345655 133.2888995 186.42505764 132.79806328 186.95216179 C126.32236875 193.85809272 119.62968066 200.55500586 112.9453125 207.2578125 C112.24347713 207.96247524 111.54164177 208.66713799 110.81853867 209.39315414 C107.11037782 213.11617798 103.39945133 216.83641737 99.68603516 220.55419922 C95.88832504 224.35740235 92.09999927 228.16981151 88.31376839 231.98443794 C85.36402722 234.95294005 82.4074656 237.91457964 79.44909286 240.87447739 C78.05059009 242.27597241 76.65454602 243.67992603 75.26120377 245.08655167 C47.93071108 272.65912999 15.7080604 289.97760526 -23.875 290.25 C-41.62415699 290.14443005 -60.57726056 288.77980851 -74.08203125 276.03515625 C-78.66128687 271.19322822 -81.84992632 265.96815853 -85.09765625 260.1796875 C-95.60744258 242.61302206 -110.56028811 230.17890571 -127.9375 219.8125 C-139.01175937 213.05236352 -144.98120563 205.1302624 -148.26171875 192.3984375 C-155.85148323 159.23537434 -149.91187855 123.78359334 -132.25 94.8125 C-131.89268799 94.21993408 -131.53537598 93.62736816 -131.16723633 93.0168457 C-123.86975751 81.54849495 -114.00808504 71.55311153 -104.5012207 61.91088867 C-103.36110764 60.74737007 -102.23008074 59.57488802 -101.10766602 58.39428711 C-99.45164888 56.65310202 -97.77080946 54.9398251 -96.08203125 53.23046875 C-95.58911087 52.7025322 -95.09619049 52.17459564 -94.58833313 51.63066101 C-91.7561038 48.8326404 -89.68952677 47.66534164 -85.7800293 47.57543945 C-82 48 -82 48 -79.4375 49.5625 C-77.35245413 53.09801257 -78.02631707 55.06694247 -79 59 C-80.70924528 61.1991798 -82.2383891 62.89992139 -84.25 64.765625 C-84.78214111 65.28453308 -85.31428223 65.80344116 -85.86254883 66.33807373 C-87.56133451 67.9903046 -89.27903563 69.62091066 -91 71.25 C-93.23705798 73.39296105 -95.46546269 75.54459559 -97.6875 77.703125 C-98.23093552 78.23078461 -98.77437103 78.75844421 -99.33427429 79.30209351 C-121.59782998 101.18440446 -134.79107626 129.59836066 -135.24145508 160.88964844 C-135.49060629 183.38938223 -135.49060629 183.38938223 -125.35546875 202.65625 C-121.38693992 205.79765387 -116.94481154 208.25262029 -112.625 210.875 C-92.20348973 223.34829904 -77.68103471 240.73928452 -65.88671875 261.2578125 C-60.81845067 268.62411518 -53.09920977 270.92964701 -44.6875 272.6953125 C-12.71586191 277.67335264 18.24893598 270.83135012 44.5428772 251.70732117 C48.24101055 248.88478277 51.62180967 245.7734794 55.00146484 242.58129883 C55.65156713 241.97055669 56.30166943 241.35981455 56.97147179 240.73056507 C63.89204267 234.20275447 70.66880049 227.53234703 77.4140625 220.82421875 C78.0560194 220.18633738 78.6979763 219.548456 79.35938644 218.89124489 C82.73968539 215.53151536 86.11690967 212.16872993 89.49169922 208.8034668 C92.95174056 205.3545968 96.42334241 201.91759986 99.89743996 198.48289776 C102.59796528 195.80856634 105.28951948 193.1253395 107.97877121 190.43967628 C109.25512835 189.16815587 110.53483052 187.89998319 111.81807327 186.63541222 C122.77648145 176.22214419 122.77648145 176.22214419 128.69921875 162.62890625 C128.66965608 154.89334009 127.43857452 148.77915061 122 143 C116.91510764 139.77710703 111.97653158 137.8173167 106.234375 136.08203125 C104.52074286 135.54390782 102.80720437 135.0054861 101.09375 134.46679688 C98.44357148 133.64395137 95.79219847 132.82541283 93.13867188 132.01342773 C77.20072596 127.11464123 60.42484935 121.61411882 47.3125 110.9375 C46.66007324 110.42493652 46.00764648 109.91237305 45.33544922 109.38427734 C23.27003215 91.80824104 14.88005223 68.56507107 6.40136719 42.57836914 C5.45073685 39.67560269 4.48752907 36.77722439 3.5234375 33.87890625 C3.24309662 33.00480606 2.96275574 32.13070587 2.67391968 31.2301178 C0.55312466 24.86869536 -1.9896068 18.50431323 -7.25390625 14.125 C-13.68564614 10.99075112 -19.88612466 9.50141412 -27 11 C-36.73711981 14.56461328 -43.40908158 23.2168934 -50.28515625 30.59350586 C-51.89618192 32.31331384 -53.5283443 34.01074079 -55.1640625 35.70703125 C-55.64654449 36.23819046 -56.12902649 36.76934967 -56.62612915 37.31660461 C-59.34131556 40.10927571 -60.79419316 40.97448754 -64.70849609 41.4597168 C-68 41 -68 41 -70.5 38.9375 C-72.49275787 35.03501583 -72.06489742 33.22309959 -71 29 C-69.23953883 26.67970079 -67.63417461 24.83604462 -65.56640625 22.83984375 C-65.01444077 22.28688126 -64.46247528 21.73391876 -63.89378357 21.16419983 C-62.72484911 19.99993111 -61.54855943 18.84300608 -60.36547852 17.69311523 C-58.58181122 15.95630392 -56.82595915 14.19474896 -55.07226562 12.42773438 C-39.8727149 -2.69822119 -20.36355302 -12.34427772 0 0 Z " fill="#020303" transform="translate(181,192)"/>
<path d="M0 0 C1.87886433 2.81829649 2.49897224 4.4289191 3.25390625 7.640625 C3.46853516 8.54683594 3.68316406 9.45304687 3.90429688 10.38671875 C4.12150391 11.33160156 4.33871094 12.27648437 4.5625 13.25 C4.78357422 14.17941406 5.00464844 15.10882813 5.23242188 16.06640625 C10.00697295 36.46282684 9.80362008 58.80232099 4.49951172 79.08300781 C4.07568787 80.70953022 3.70569418 82.34992971 3.34765625 83.9921875 C-4.89630005 119.4465878 -30.01216031 144.15442071 -54.7590332 168.93603516 C-56.73687976 170.91964139 -58.71402766 172.90394357 -60.69125366 174.88816833 C-66.58440764 180.80090213 -72.4822419 186.70895626 -78.3807278 192.61637026 C-80.60922317 194.84838679 -82.83740647 197.0807147 -85.06557519 199.31305731 C-94.91219099 209.17811089 -104.76015096 219.04182034 -114.61213398 228.90151405 C-117.0121843 231.30347365 -119.41222902 233.70543882 -121.81225586 236.10742188 C-122.70681705 237.00270867 -122.70681705 237.00270867 -123.61945017 237.91608207 C-133.28612517 247.59106278 -142.94424227 257.27453966 -152.59883199 266.96157868 C-162.54603226 276.94193531 -172.5008286 286.91466452 -182.4630267 296.88005102 C-188.04238985 302.46156962 -193.61848141 308.04626935 -199.18605995 313.63954544 C-203.9245173 318.39982619 -208.66989175 323.15307728 -213.42410532 327.89762403 C-215.84325774 330.31226732 -218.25800351 332.7308994 -220.66620827 335.15648842 C-237.76876759 352.37550574 -255.24970979 366.77530606 -278 376 C-279.80791016 376.74056641 -279.80791016 376.74056641 -281.65234375 377.49609375 C-299.36307883 384.41708353 -317.75862298 386.83758401 -336.69140625 386.08984375 C-338.76207567 386.00925932 -340.83427831 385.97065155 -342.90625 385.9375 C-353.88852144 385.55550795 -368.71742317 384.18838455 -378 378 C-377.1248877 378.01571045 -376.24977539 378.0314209 -375.34814453 378.04760742 C-355.21715378 378.36112068 -336.4325722 378.03522617 -317 372 C-318.65 371.67 -320.3 371.34 -322 371 C-322 370.67 -322 370.34 -322 370 C-320.86046875 369.85304688 -319.7209375 369.70609375 -318.546875 369.5546875 C-279.59850884 364.18436381 -253.17848964 345.48667542 -225.84765625 318.18359375 C-224.33375198 316.67613511 -222.81970603 315.16881875 -221.30552673 313.66163635 C-218.1564513 310.52444217 -215.01143957 307.38323889 -211.86889648 304.23950195 C-207.85911105 300.22951237 -203.83567706 296.23352182 -199.80867863 292.24082851 C-196.68670336 289.14116133 -193.57393231 286.03237432 -190.46362114 282.92100716 C-188.98419657 281.44392718 -187.50156378 279.97005271 -186.01555061 278.49960136 C-173.01120951 265.6189169 -165.15602407 255.80060202 -164 237 C-163.67 237 -163.34 237 -163 237 C-162.67 238.98 -162.34 240.96 -162 243 C-153.09 234.09 -144.18 225.18 -135 216 C-136.98 215.67 -138.96 215.34 -141 215 C-141 214.67 -141 214.34 -141 214 C-140.27296875 213.98582031 -139.5459375 213.97164062 -138.796875 213.95703125 C-127.91357082 213.44077195 -119.60689091 210.76375577 -111.56494141 203.23193359 C-110.7991146 202.51637078 -110.7991146 202.51637078 -110.01781654 201.78635216 C-103.20454975 195.37754063 -96.58372381 188.76833053 -89.9609375 182.1640625 C-89.26730732 181.4732597 -88.57367714 180.78245689 -87.85902786 180.07072067 C-84.19435992 176.4209133 -80.53247459 172.7683424 -76.87304688 169.11328125 C-73.13037728 165.37610466 -69.37850274 161.6483142 -65.62441063 157.92261696 C-62.70222998 155.01920054 -59.78691539 152.10896079 -56.87334061 149.19691086 C-55.4941746 147.8207363 -54.11255099 146.44701942 -52.72825241 145.07600784 C-27.59599245 120.16803181 -10.89124086 90.76008432 -8 55 C-7.34 56.32 -6.68 57.64 -6 59 C-0.681529 44.81741066 0.44385641 30.96863487 0.1875 16 C0.17239483 14.43490901 0.15871694 12.86980358 0.14648438 11.3046875 C0.11401139 7.53608947 0.06256826 3.7682135 0 0 Z " fill="#9FE8FB" transform="translate(489,111)"/>
<path d="M0 0 C13.49639336 10.5219816 23.33364743 25.61369478 26.5625 42.5546875 C28.83590163 61.63343059 24.88239148 80.50892418 12.9609375 95.8984375 C1.62827703 110.02067593 -13.87527615 119.78118633 -32.0390625 121.8984375 C-50.42151068 123.23369436 -67.3886641 120.33183799 -82.09765625 108.421875 C-96.15528633 96.21479756 -105.82282747 81.65728404 -108.0390625 62.8984375 C-109.13439641 43.18242707 -105.26412607 25.48763388 -92.1171875 10.1328125 C-67.36687429 -16.47842651 -29.9972755 -20.74361725 0 0 Z M-82.11328125 21.28125 C-91.91154773 34.50147072 -94.5858362 48.81399111 -93.0390625 64.8984375 C-91.91921423 69.57573482 -90.24611983 73.63573047 -88.0390625 77.8984375 C-87.58144531 78.80078125 -87.12382813 79.703125 -86.65234375 80.6328125 C-80.41094075 91.9186371 -70.2801565 100.6773706 -58.0390625 104.8984375 C-47.50590357 107.63947231 -35.42202272 108.67044982 -25.0390625 104.8984375 C-23.67201172 104.43824219 -23.67201172 104.43824219 -22.27734375 103.96875 C-10.09539165 99.4453619 -0.31612771 91.34485053 5.9609375 79.8984375 C12.50200544 65.62480598 14.46428943 51.94117267 9.1484375 36.82421875 C3.56562423 23.06919525 -6.30563728 12.11865168 -19.9765625 6.1484375 C-42.54016398 -2.6341408 -66.00629656 2.77793426 -82.11328125 21.28125 Z " fill="#010301" transform="translate(190.0390625,308.1015625)"/>
<path d="M0 0 C12.83500802 11.16541348 23.77574135 26.85118497 25.1887207 44.33520508 C25.26757757 46.83133794 25.27790028 49.31530593 25.25 51.8125 C25.24250732 52.69615234 25.23501465 53.57980469 25.22729492 54.49023438 C24.92471061 72.86842809 18.23061652 88.4881251 5.5625 101.875 C-8.90147094 115.3082052 -27.13484908 121.64718878 -46.70703125 121.2734375 C-64.5110388 120.46434649 -81.06286023 111.35850259 -93.2109375 98.6953125 C-105.37396552 84.48181233 -111.00827555 66.22721076 -110.375 47.64453125 C-108.40229052 28.472261 -99.20732944 12.1696005 -84.49609375 -0.0859375 C-82.0623388 -1.8751185 -79.60014483 -3.46355078 -77 -5 C-76.08734375 -5.54398438 -75.1746875 -6.08796875 -74.234375 -6.6484375 C-50.91013463 -19.43311471 -20.87504132 -16.03445203 0 0 Z M-83 19 C-87.92329648 25.79965772 -92.04097338 32.79235398 -94 41 C-94.226875 41.928125 -94.45375 42.85625 -94.6875 43.8125 C-96.16567978 58.88993378 -93.58427404 73.49786356 -83.9609375 85.5546875 C-74.15344811 96.91250168 -61.94401108 105.10039314 -46.62890625 106.25390625 C-32.25043172 106.71013216 -18.43918276 102.63789853 -7.3125 93.3125 C2.69333756 83.8713658 9.32270669 71.64131985 10.203125 57.80859375 C10.43120214 41.40604595 6.64290057 28.25312841 -4.64306641 16.19482422 C-9.00081345 11.76181884 -13.40670511 8.65120515 -19 6 C-20.40958984 5.27490234 -20.40958984 5.27490234 -21.84765625 4.53515625 C-42.83537859 -5.04331121 -67.85614286 2.27638797 -83 19 Z " fill="#010301" transform="translate(405,96)"/>
<path d="M0 0 C0.33 0 0.66 0 1 0 C4.71485964 32.44454741 -1.42708871 62.93968057 -21.61659241 89.27012634 C-23.91170343 92.14003404 -26.38901237 94.81666989 -28.91015625 97.48828125 C-29.53560333 98.15261673 -30.16105042 98.81695221 -30.80545044 99.50141907 C-41.76274508 111.04773019 -53.03340524 122.29589701 -64.27197266 133.56713867 C-67.71296117 137.01930989 -71.14207283 140.4830457 -74.56891441 143.94925213 C-77.23895654 146.64548433 -79.91789043 149.33274894 -82.59926224 152.01770973 C-83.86799215 153.29127525 -85.13337544 154.5681847 -86.39515305 155.84863853 C-101.12251783 170.78091621 -101.12251783 170.78091621 -110.37109375 172.69921875 C-118.18397134 172.66936062 -124.04782927 171.29720214 -130 166 C-131.7734375 163.29296875 -131.7734375 163.29296875 -133 161 C-131.11197917 160.609375 -129.22395833 160.21875 -127.3359375 159.828125 C-120.84045661 157.52537926 -116.31683141 152.56916713 -111.625 147.75 C-110.66400391 146.77546875 -110.66400391 146.77546875 -109.68359375 145.78125 C-108.11770636 144.19199115 -106.55671491 142.59823583 -105 141 C-105.80824219 140.63648438 -106.61648438 140.27296875 -107.44921875 139.8984375 C-115.44340134 136.13760371 -119.49817599 133.48602926 -123.8125 125.75 C-125.75161018 119.62649418 -126.1105708 113.79940902 -123.5 107.8125 C-120.05035778 101.76028073 -114.62177642 97.14352337 -108 95 C-101.10744325 93.99417375 -95.31352768 94.90507684 -89.234375 98.3125 C-84.35357779 101.9986965 -81.57044547 106.67747202 -80.125 112.5625 C-80.08375 113.366875 -80.0425 114.17125 -80 115 C-74.73131493 110.48129593 -69.66594644 105.824933 -64.75390625 100.921875 C-64.0984935 100.26979065 -63.44308075 99.6177063 -62.76780701 98.94586182 C-61.39264954 97.57572761 -60.01880745 96.20427202 -58.64624023 94.83154297 C-56.57620785 92.76369339 -54.49830327 90.70398475 -52.41992188 88.64453125 C-45.15576873 81.41161194 -38.23526612 74.15519597 -32 66 C-31.50814209 65.3620752 -31.01628418 64.72415039 -30.50952148 64.06689453 C-24.25194859 55.79505105 -18.84400507 47.16104725 -14 38 C-13.40445313 36.8759375 -12.80890625 35.751875 -12.1953125 34.59375 C-6.69202828 23.53826349 -3.36289767 11.85278541 0 0 Z " fill="#66D15F" transform="translate(465,138)"/>
<path d="M0 0 C0.90234375 0.45761719 1.8046875 0.91523437 2.734375 1.38671875 C14.0201996 7.62812175 22.7789331 17.758906 27 30 C29.74103481 40.53315893 30.77201232 52.61703978 27 63 C26.53980469 64.36705078 26.53980469 64.36705078 26.0703125 65.76171875 C21.19505041 78.8913039 12.04363727 89.15610765 -0.6953125 95.0546875 C-15.50238023 101.12809494 -28.98675012 102.09349528 -44 96 C-56.47507773 90.60537179 -66.34998145 80.42775987 -71.75 68.0625 C-77.32251585 53.74597215 -77.55558804 40.28253112 -71.74609375 25.89453125 C-65.00246491 11.39664799 -54.41707357 2.85441418 -39.76171875 -3.0546875 C-26.84561687 -7.47575773 -11.9953233 -6.21069335 0 0 Z M-41 14 C-42.0725 14.639375 -43.145 15.27875 -44.25 15.9375 C-52.52287944 22.14215958 -58.94958799 30.73099441 -61 41 C-62.25958221 51.16996005 -59.89232808 61.56118857 -53.8125 69.875 C-46.49602526 78.34098457 -38.09971458 83.92946416 -26.8671875 85.4140625 C-16.2230303 85.90138536 -5.96750835 82.53581741 2.29296875 75.71875 C5.4916635 72.49809625 7.81489793 68.96292181 10 65 C10.41507812 64.26136719 10.83015625 63.52273437 11.2578125 62.76171875 C15.30323957 54.34553307 15.39896776 44.57653048 13.15234375 35.62109375 C9.03352225 24.68876414 1.59995172 16.87629755 -9 12 C-13.98506663 10.29133759 -18.62984627 9.61236412 -23.875 9.625 C-24.9266333 9.62741699 -24.9266333 9.62741699 -25.99951172 9.62988281 C-31.8237875 9.76736861 -36.09701917 10.93826733 -41 14 Z " fill="#2BA553" transform="translate(386,102)"/>
<path d="M0 0 C11.43121761 9.87087336 19.21756954 21.86101295 20.76953125 37.15625 C21.46043016 51.61906724 17.12179343 65.24189059 7.84765625 76.4140625 C-1.74161228 86.58024637 -13.61822428 93.26485906 -27.74609375 94.1640625 C-44.14864155 94.39213964 -57.30155909 90.60383807 -69.35986328 79.31787109 C-73.79286866 74.96012405 -76.90348235 70.55423239 -79.5546875 64.9609375 C-80.03808594 64.02121094 -80.52148438 63.08148438 -81.01953125 62.11328125 C-86.63252524 49.81444953 -86.38007048 35.45988611 -81.8203125 22.82421875 C-79.79171324 18.23482598 -77.43536119 14.06680912 -74.5546875 9.9609375 C-74.13832031 9.34863281 -73.72195312 8.73632812 -73.29296875 8.10546875 C-65.63267038 -1.94723512 -53.55625032 -7.74079114 -41.6171875 -10.7890625 C-26.51417568 -12.02196142 -12.09925743 -9.65720547 0 0 Z M-61.62890625 17.35546875 C-63.43656044 19.82251881 -65.03237654 22.30957924 -66.5546875 24.9609375 C-66.915625 25.57324219 -67.2765625 26.18554688 -67.6484375 26.81640625 C-71.4924475 34.87814945 -70.69144067 46.63779201 -67.9921875 54.8984375 C-63.5860217 65.19495126 -56.07417453 72.51919918 -46.0546875 77.3359375 C-37.03544816 80.62449092 -26.85664357 80.28807755 -17.9921875 76.7734375 C-16.15720526 75.88074344 -14.34107457 74.94728619 -12.5546875 73.9609375 C-11.87921875 73.6 -11.20375 73.2390625 -10.5078125 72.8671875 C-2.78041472 68.08030392 2.03578697 59.3174466 4.78515625 50.87890625 C7.15677127 40.39608719 5.57648052 30.63930239 -0.0625 21.5234375 C-7.22380298 11.66415526 -15.60616412 6.37636866 -27.5546875 3.9609375 C-40.39735529 2.27750672 -53.16103154 7.5799373 -61.62890625 17.35546875 Z " fill="#2BA553" transform="translate(181.5546875,321.0390625)"/>
<path d="M0 0 C5.73733685 3.06880808 8.8656197 6.80399306 11 13 C12.31136182 20.88789062 11.39642182 26.19018907 7.24421692 32.9283905 C2.19878532 39.83395987 -4.12938455 45.67642462 -10.1875 51.68359375 C-11.6930403 53.18928936 -13.1979112 54.69565456 -14.70214844 56.20265198 C-17.84965397 59.35153717 -21.00397233 62.49338058 -24.16357422 65.63012695 C-28.17828802 69.61656884 -32.17737391 73.61825558 -36.17158508 77.62522793 C-39.27695144 80.73761223 -42.38974444 83.8424842 -45.50479126 86.94517708 C-46.98015234 88.41607499 -48.45350353 89.88899218 -49.9246521 91.36410332 C-60.91281347 102.36799111 -72.25384356 113.53309121 -86.125 120.875 C-87.13071045 121.41966919 -87.13071045 121.41966919 -88.15673828 121.9753418 C-99.75965099 128.16162394 -111.15516595 131.51919663 -124 134 C-124.95648438 134.19851563 -125.91296875 134.39703125 -126.8984375 134.6015625 C-131.35352882 135.17387902 -135.76323424 135.14414694 -140.25 135.125 C-141.14074219 135.12886719 -142.03148437 135.13273438 -142.94921875 135.13671875 C-149.02127669 135.12790589 -154.97100272 134.71417426 -161 134 C-160.505 133.01 -160.505 133.01 -160 132 C-158.21923828 131.45068359 -158.21923828 131.45068359 -155.9453125 131.0234375 C-132.99493549 126.34282807 -111.87365716 114.9541347 -94 100 C-93.0615625 99.2280127 -92.123125 98.45602539 -91.15625 97.66064453 C-80.91181914 89.13148465 -71.3393513 79.91245704 -61.85400391 70.55419922 C-60.02008329 68.7537479 -58.17545514 66.96414459 -56.32080078 65.18505859 C-53.60856478 62.58216778 -50.93056963 59.94802834 -48.2578125 57.3046875 C-47.42678009 56.51899384 -46.59574768 55.73330017 -45.73953247 54.92379761 C-41.49303145 50.76025645 -41.49303145 50.76025645 -39.56219482 45.30889893 C-39.5579891 42.65251605 -39.5579891 42.65251605 -39.89889526 40.17166138 C-40 38 -40 38 -38.0625 34.8125 C-34.63228657 32.78237368 -34.32706863 32.91928655 -30.6875 33.6875 C-27.56068363 34.23929112 -26.39896569 34.22974696 -23.60546875 32.62109375 C-21.26963695 30.53070838 -19.5661997 28.71977455 -18 26 C-17.89741586 23.51746381 -18.2775429 21.47811644 -18.7890625 19.0546875 C-19 17 -19 17 -17.1875 13.9375 C-12.75976153 11.24612956 -9.05280406 11.55849285 -4 12 C-1.79463821 7.9728176 -0.54339792 4.56454251 0 0 Z " fill="#66D15F" transform="translate(299,332)"/>
<path d="M0 0 C4.8500277 3.47864056 8.80752124 8.79258495 10.265625 14.625 C10.94752618 21.33036161 9.67250468 26.77239944 6.265625 32.625 C1.59874235 38.01673889 -3.09204454 41.10273782 -10.234375 41.90625 C-17.16424215 42.29124262 -22.3675601 41.16855592 -27.734375 36.625 C-33.33868595 29.78184136 -35.16164424 24.76757788 -35.07421875 15.95703125 C-34.40509385 9.3965308 -30.96436976 5.56599084 -26.234375 1.25 C-18.00500147 -5.23481683 -9.04391877 -5.00543932 0 0 Z " fill="#39BF57" transform="translate(161.734375,343.375)"/>
<path d="M0 0 C6.69938686 3.73821587 10.30662023 8.48174175 12.6875 15.875 C13.92099685 23.14043202 11.76125054 28.86136826 7.6875 34.875 C3.51972159 39.47949323 -0.83942974 42.36410989 -7.07421875 43.28125 C-14.93045717 43.53298528 -20.36127243 42.16146279 -26.3125 36.875 C-31.22777826 31.24209111 -33.17887895 25.94030554 -32.6953125 18.4765625 C-31.55019407 10.69443115 -28.5307727 5.76170911 -22.3125 0.875 C-14.96518384 -3.42248681 -7.65116571 -3.52955561 0 0 Z " fill="#020301" transform="translate(159.3125,236.125)"/>
<path d="M0 0 C5.87529418 3.25573627 8.7563121 8.2001242 11.6875 14.0625 C12.36526036 21.80460878 12.02007054 28.68078688 7.2109375 35.00390625 C2.14154505 40.54783086 -3.2155394 43.04946045 -10.6875 43.5625 C-16.81978193 43.32909135 -22.34592659 40.6396664 -26.94921875 36.640625 C-31.96902905 31.03290899 -33.93219715 24.93500464 -33.65234375 17.546875 C-32.6699183 10.36500617 -28.7739258 6.09314233 -23.41015625 1.5078125 C-16.27732377 -3.40680205 -7.80703918 -3.42000206 0 0 Z " fill="#020301" transform="translate(373.3125,234.9375)"/>
<path d="M0 0 C6.36437358 3.58354368 10.74926694 7.84545707 13.1015625 14.90234375 C13.65809014 21.5271632 13.74788013 28.13408877 10.1015625 33.90234375 C4.51395114 40.28635029 -1.45781246 43.32935987 -9.7734375 44.40234375 C-15.87873264 44.11390461 -21.54875141 41.3003773 -25.796875 36.96484375 C-31.01340646 30.24696908 -32.91432865 24.42020034 -31.8984375 15.90234375 C-29.8227907 8.57189492 -24.34554258 3.67480675 -18.03125 -0.26171875 C-12.41382481 -2.4634202 -5.57335616 -2.11066453 0 0 Z " fill="#39BF57" transform="translate(371.8984375,128.09765625)"/>
<path d="M0 0 C2.9375 2.0625 2.9375 2.0625 5 5 C5.06641554 8.85210127 4.87229157 10.99848005 2.3125 13.9375 C-0.73602877 15.33817538 -2.67926952 15.4842732 -6 15 C-8.375 13.4375 -8.375 13.4375 -10 11 C-10.56783945 7.02512383 -10.62340519 4.93510779 -8.375 1.5625 C-5.24316508 -0.49791771 -3.68455227 -0.6767545 0 0 Z " fill="#8DD863" transform="translate(152,249)"/>
<path d="M0 0 C2.4375 1.625 2.4375 1.625 4 4 C4.5625 6.9375 4.5625 6.9375 4 10 C1.9375 12.9375 1.9375 12.9375 -1 15 C-4.85210127 15.06641554 -6.99848005 14.87229157 -9.9375 12.3125 C-11.33817538 9.26397123 -11.4842732 7.32073048 -11 4 C-8.05899778 -0.47032338 -5.13105401 -0.73300772 0 0 Z " fill="#060A04" transform="translate(249,132)"/>
<path d="M0 0 C3.0099077 2.29014716 4.69783903 3.79135614 5.625 7.5 C4.69783903 11.20864386 3.0099077 12.70985284 0 15 C-3.68455227 15.6767545 -5.24316508 15.49791771 -8.375 13.4375 C-10.62340519 10.06489221 -10.56783945 7.97487617 -10 4 C-7.27238925 -0.09141613 -4.79563536 -0.88083098 0 0 Z " fill="#060A04" transform="translate(227,153)"/>
<path d="M0 0 C2 1.625 2 1.625 3 4 C2.87988224 7.42335626 2.60726153 9.95416069 0.875 12.9375 C-2.22289358 14.69297303 -4.52844534 14.48723574 -8 14 C-10.5 11.9375 -10.5 11.9375 -12 9 C-12 5.19715329 -11.7968187 2.98069994 -9.375 0 C-5.88418213 -1.46981805 -3.60851044 -0.98413921 0 0 Z " fill="#050804" transform="translate(271,366)"/>
<path d="M0 0 C1.9375 1.125 1.9375 1.125 3 3 C3.5 6.4375 3.5 6.4375 3 10 C0.9375 12.5 0.9375 12.5 -2 14 C-5.80284671 14 -8.01930006 13.7968187 -11 11.375 C-12.46981805 7.88418213 -11.98413921 5.60851044 -11 2 C-7.79952331 -1.93904824 -4.62362797 -1.17692348 0 0 Z " fill="#050904" transform="translate(292,345)"/>
<path d="M0 0 C3.05623277 2.09110663 3.86463014 3.29306849 4.5625 6.9375 C3.79395747 11.12178713 2.46194162 12.56927503 -1 15 C-4.8427383 15.06625411 -6.99200716 14.81899419 -10 12.375 C-11.46981805 8.88418213 -10.98413921 6.60851044 -10 3 C-7.08550322 -0.34627408 -4.29616198 -0.62652362 0 0 Z " fill="#A9ED85" transform="translate(366,248)"/>
<path d="M0 0 C4.36689189 1.42398649 4.36689189 1.42398649 5.875 3.9375 C6.37073337 7.83254791 6.45516848 10.03243717 4.3125 13.375 C0.90780512 15.55749672 -1.15930012 15.57484462 -5.125 14.9375 C-7.625 12.8125 -7.625 12.8125 -9.125 9.9375 C-9.20604732 5.96618124 -8.5938579 4.45994166 -5.9375 1.5 C-3.125 -0.0625 -3.125 -0.0625 0 0 Z " fill="#060904" transform="translate(108.125,270.0625)"/>
</svg>
