<?xml version="1.0" encoding="UTF-8"?>
<svg version="1.1" xmlns="http://www.w3.org/2000/svg" width="512" height="512">
<path d="M0 0 C0.71402481 -0.00817749 1.42804962 -0.01635498 2.16371155 -0.02478027 C4.53125162 -0.04963192 6.89873175 -0.06614971 9.26635742 -0.08056641 C10.07469213 -0.08589008 10.88302685 -0.09121376 11.71585655 -0.09669876 C15.99448066 -0.12342954 20.2730756 -0.14280451 24.55175781 -0.15722656 C28.97054386 -0.17387327 33.3885839 -0.21865059 37.8070879 -0.26959801 C41.20518345 -0.30325896 44.60310168 -0.31480266 48.0013485 -0.32045364 C49.63005969 -0.32716953 51.25875909 -0.34240055 52.88730812 -0.36634445 C55.16897941 -0.39797642 57.44863564 -0.39803702 59.73046875 -0.390625 C61.67666862 -0.40275528 61.67666862 -0.40275528 63.66218567 -0.41513062 C67.92449032 0.34771346 69.36755907 1.88191773 72.05932617 5.19287109 C73.39021728 7.8546533 73.1720161 9.88026505 73.15698242 12.85693359 C73.15375977 13.97841797 73.15053711 15.09990234 73.1472168 16.25537109 C73.13883789 17.43099609 73.13045898 18.60662109 73.12182617 19.81787109 C73.11731445 21.00123047 73.11280273 22.18458984 73.1081543 23.40380859 C73.09634084 26.33354616 73.07986875 29.26318382 73.05932617 32.19287109 C74.37767456 32.24580322 74.37767456 32.24580322 75.72265625 32.29980469 C105.63822173 33.65886519 138.39725921 45.26981654 161.05932617 65.19287109 C165.15616943 70.19720131 165.15616943 70.19720131 164.80932617 73.76318359 C164.43807617 75.02775391 164.43807617 75.02775391 164.05932617 76.31787109 C163.62161845 79.28050393 163.43231739 81.24574269 165.1237793 83.80078125 C167.5801414 86.62120527 170.29981652 89.09828336 173.10620117 91.56396484 C175.49095229 93.68689805 177.2942669 95.56392717 179.05932617 98.19287109 C180.39529642 94.32337169 181.54236101 90.43732701 182.60522461 86.48486328 C188.09045963 66.5511677 197.75015602 50.12853731 212.05932617 35.19287109 C212.74381836 34.44521484 213.42831055 33.69755859 214.13354492 32.92724609 C231.72569439 14.3270437 258.59816506 1.42550616 284.28466797 0.01586914 C315.8117236 -0.5402691 315.8117236 -0.5402691 331.05932617 4.19287109 C331.74446289 4.40186035 332.42959961 4.61084961 333.13549805 4.82617188 C348.49307165 9.67535843 362.02123527 17.52230731 374.05932617 28.19287109 C374.81342773 28.80388672 375.5675293 29.41490234 376.34448242 30.04443359 C397.07656955 47.22976155 411.38944949 75.53415246 414.05932617 102.19287109 C416.0848875 136.50798195 409.28451553 168.90958974 386.05932617 195.19287109 C365.46159065 218.168832 337.29381443 233.41253511 306.2019043 235.37304688 C269.00699816 237.02654892 239.46994696 224.86242981 212.05932617 200.19287109 C211.72932617 209.76287109 211.39932617 219.33287109 211.05932617 229.19287109 C213.36932617 229.52287109 215.67932617 229.85287109 218.05932617 230.19287109 C220.48120117 232.01708984 220.48120117 232.01708984 222.05932617 235.19287109 C222.52587561 239.14574885 222.43552919 243.03240285 222.30932617 247.00537109 C222.2912793 248.07980469 222.27323242 249.15423828 222.25463867 250.26123047 C222.20762009 252.90602574 222.14191777 255.54898699 222.05932617 258.19287109 C223.44764648 257.70947266 223.44764648 257.70947266 224.86401367 257.21630859 C240.096309 252.89373358 257.09515399 255.90937462 270.80932617 263.06787109 C275.00914886 265.4791065 278.99842523 268.14507795 282.99682617 270.87255859 C291.10741471 276.06456413 300.14778144 277.45730873 309.57885742 275.73193359 C316.10814524 273.98393528 321.41674769 270.83409752 327.05932617 267.19287109 C343.13778924 257.01821868 360.00282758 253.05321106 379.03979492 256.84130859 C388.53110277 259.54650474 396.68342513 264.80013036 404.68432617 270.44287109 C410.78999929 274.5683259 417.08060526 276.13275068 424.37182617 276.63037109 C428.70413667 276.95733792 431.00258706 277.93892301 434.05932617 281.19287109 C435.9132681 284.90075496 435.5111236 289.14578426 435.05932617 293.19287109 C433.43432617 296.25537109 433.43432617 296.25537109 431.05932617 298.19287109 C429.07932617 298.52287109 427.09932617 298.85287109 425.05932617 299.19287109 C425.05932617 327.24287109 425.05932617 355.29287109 425.05932617 384.19287109 C427.03932617 384.52287109 429.01932617 384.85287109 431.05932617 385.19287109 C433.43432617 386.56787109 433.43432617 386.56787109 435.05932617 389.19287109 C435.95166478 394.60528002 436.06889758 398.75062623 432.87182617 403.31787109 C430.05932617 405.19287109 430.05932617 405.19287109 425.05932617 406.19287109 C425.05932617 433.91287109 425.05932617 461.63287109 425.05932617 490.19287109 C427.36932617 490.85287109 429.67932617 491.51287109 432.05932617 492.19287109 C434.38297798 494.37338214 434.96302211 495.69194064 435.56323242 498.81396484 C435.58256836 499.74337891 435.6019043 500.67279297 435.62182617 501.63037109 C435.66436523 502.55720703 435.7069043 503.48404297 435.75073242 504.43896484 C434.93155093 507.70180637 433.53019568 509.2358796 430.84472656 511.2355957 C424.18211706 514.80787683 413.28637731 512.56610301 406.30932617 510.63037109 C397.93994688 507.69901671 390.67603085 503.06905277 383.49682617 497.94287109 C375.40698138 492.47161982 365.91495217 490.98127298 356.40698242 492.66162109 C348.65326633 494.48858365 342.63766837 498.1316127 336.07885742 502.51708984 C321.69372007 511.91933426 305.84334863 514.38409858 288.92456055 511.87646484 C285.13213207 511.05150152 281.61010843 509.7384463 278.05932617 508.19287109 C277.18405273 507.81904297 276.3087793 507.44521484 275.40698242 507.06005859 C270.91203513 504.96841902 266.94909029 502.47047833 262.93432617 499.56787109 C254.86168425 493.73833376 245.99320485 491.2053787 236.05932617 492.19287109 C227.30172688 493.80733568 220.80457856 497.42062841 213.66870117 502.4675293 C199.5838492 512.27688354 182.72820962 514.2720053 165.94067383 511.89257812 C155.24432253 509.652878 146.01210674 503.57762498 137.12182617 497.51318359 C129.01123764 492.32117805 119.9708709 490.92843345 110.53979492 492.65380859 C104.01050711 494.40180691 98.70190466 497.55164466 93.05932617 501.19287109 C76.9808631 511.36752351 60.11582476 515.33253112 41.07885742 511.54443359 C31.58754958 508.83923745 23.43522721 503.58561183 15.43432617 497.94287109 C6.95513858 492.23924491 -2.51374709 490.83635479 -12.50708008 492.66162109 C-19.87026045 494.59748072 -26.00637724 498.41693012 -32.18286133 502.77490234 C-41.63099491 509.41549445 -51.4372739 512.34619121 -62.94067383 512.50537109 C-63.6393457 512.534375 -64.33801758 512.56337891 -65.05786133 512.59326172 C-68.70525505 512.63799391 -70.7585864 512.3064336 -73.87817383 510.36083984 C-77.04673129 507.03025388 -77.34678691 503.78941275 -77.28833008 499.26318359 C-76.64698601 495.44394362 -74.77803628 493.77802355 -71.94067383 491.19287109 C-70.29067383 490.86287109 -68.64067383 490.53287109 -66.94067383 490.19287109 C-66.94067383 462.47287109 -66.94067383 434.75287109 -66.94067383 406.19287109 C-68.92067383 405.53287109 -70.90067383 404.87287109 -72.94067383 404.19287109 C-75.48012667 401.98755679 -76.72909075 400.38248613 -77.32348633 397.04052734 C-77.52091465 393.08538005 -77.22386744 390.71569006 -75.31567383 387.19287109 C-72.94067383 385.19287109 -72.94067383 385.19287109 -66.94067383 384.19287109 C-66.94067383 356.14287109 -66.94067383 328.09287109 -66.94067383 299.19287109 C-68.59067383 298.86287109 -70.24067383 298.53287109 -71.94067383 298.19287109 C-75.36812175 295.07008521 -77.25050913 292.88432277 -77.56567383 288.19287109 C-77.2809673 283.55749291 -75.19345767 281.3682077 -71.94067383 278.19287109 C-69.15098094 276.79802465 -66.47480769 276.73780348 -63.37817383 276.38037109 C-53.32170131 274.95102475 -46.68627327 271.10052236 -38.32373047 265.55981445 C-23.6451646 255.99978542 -6.1761422 253.41557131 11.03979492 256.84130859 C20.51296533 259.54133524 28.66768479 264.76335984 36.62182617 270.44287109 C44.71167097 275.91412236 54.20370018 277.40446921 63.71166992 275.72412109 C70.67428535 274.08356094 76.11803581 271.08771699 82.05932617 267.19287109 C93.91864111 259.56902578 104.41222798 256.0140913 118.43432617 256.00537109 C119.46299805 255.993125 120.49166992 255.98087891 121.55151367 255.96826172 C122.55182617 255.96632812 123.55213867 255.96439453 124.58276367 255.96240234 C125.48945801 255.95829346 126.39615234 255.95418457 127.33032227 255.94995117 C130.46792526 256.22924219 133.0931696 257.16046689 136.05932617 258.19287109 C136.02100712 248.69017013 135.96127171 239.18789979 135.87542343 229.68550873 C135.83619174 225.27144552 135.80388579 220.85757455 135.78833008 216.44335938 C135.77300111 212.17016954 135.73827588 207.89750914 135.69101715 203.6245575 C135.67636847 202.00783433 135.66829485 200.39103551 135.66744232 198.77424622 C135.6527585 184.86862483 134.0140711 171.28389418 127.30932617 158.81787109 C126.96571045 158.15851563 126.62209473 157.49916016 126.26806641 156.81982422 C116.24233411 138.17027254 100.00718152 127.26751943 80.23901367 121.10302734 C77.85143418 120.41960471 75.46969992 119.78582696 73.05932617 119.19287109 C73.07503662 119.86342529 73.09074707 120.53397949 73.10693359 121.22485352 C73.16947275 124.27660619 73.20837681 127.32822378 73.24682617 130.38037109 C73.27196289 131.43546875 73.29709961 132.49056641 73.32299805 133.57763672 C73.3375 135.11000977 73.3375 135.11000977 73.35229492 136.67333984 C73.3758606 138.07942505 73.3758606 138.07942505 73.39990234 139.51391602 C72.98081732 142.81041776 72.07718138 144.55831935 70.05932617 147.19287109 C66.04372495 150.18088494 63.09973669 150.57134084 58.14526367 150.58105469 C57.46981506 150.58631165 56.79436646 150.5915686 56.09844971 150.59698486 C53.87683647 150.6101348 51.65594606 150.60146518 49.43432617 150.59130859 C47.88403181 150.59333078 46.33373838 150.59624343 44.78344727 150.6000061 C41.53872598 150.60442265 38.29425292 150.59802016 35.04956055 150.58398438 C30.8966801 150.56689266 26.74438134 150.57673746 22.59152222 150.59470177 C19.39155722 150.60555783 16.19172945 150.60208495 12.99176025 150.59431839 C11.46079438 150.59232141 9.92981592 150.59475799 8.39886475 150.60175705 C6.25670511 150.60940186 4.11547903 150.59772639 1.97338867 150.58105469 C0.14735107 150.57747452 0.14735107 150.57747452 -1.71557617 150.57382202 C-6.04648796 150.06225151 -8.61465946 148.44697579 -11.74145508 145.48974609 C-13.46228561 142.19382313 -13.26155872 139.06136391 -13.12817383 135.44287109 C-13.10787109 134.39679688 -13.10787109 134.39679688 -13.0871582 133.32958984 C-13.05196832 131.61701569 -12.99816538 129.90484168 -12.94067383 128.19287109 C-13.84906006 128.22316406 -14.75744629 128.25345703 -15.69335938 128.28466797 C-19.22922692 128.40024099 -22.76518591 128.51142837 -26.30126953 128.62011719 C-27.80067007 128.66699804 -29.30002468 128.71538448 -30.79931641 128.765625 C-46.19197693 129.27923778 -61.5225469 129.19287109 -76.94067383 129.19287109 C-76.94067383 93.55287109 -76.94067383 57.91287109 -76.94067383 21.19287109 C-55.82067383 21.19287109 -34.70067383 21.19287109 -12.94067383 21.19287109 C-12.94067383 16.24287109 -12.94067383 11.29287109 -12.94067383 6.19287109 C-8.00562015 0.024054 -7.4176104 0.07365842 0 0 Z " fill="#6BE9B3" transform="translate(76.940673828125,-0.19287109375)"/>
<path d="M0 0 C0.71402481 -0.00817749 1.42804962 -0.01635498 2.16371155 -0.02478027 C4.53125162 -0.04963192 6.89873175 -0.06614971 9.26635742 -0.08056641 C10.07469213 -0.08589008 10.88302685 -0.09121376 11.71585655 -0.09669876 C15.99448066 -0.12342954 20.2730756 -0.14280451 24.55175781 -0.15722656 C28.97054386 -0.17387327 33.3885839 -0.21865059 37.8070879 -0.26959801 C41.20518345 -0.30325896 44.60310168 -0.31480266 48.0013485 -0.32045364 C49.63005969 -0.32716953 51.25875909 -0.34240055 52.88730812 -0.36634445 C55.16897941 -0.39797642 57.44863564 -0.39803702 59.73046875 -0.390625 C61.67666862 -0.40275528 61.67666862 -0.40275528 63.66218567 -0.41513062 C67.92449032 0.34771346 69.36755907 1.88191773 72.05932617 5.19287109 C73.39021728 7.8546533 73.1720161 9.88026505 73.15698242 12.85693359 C73.15375977 13.97841797 73.15053711 15.09990234 73.1472168 16.25537109 C73.13883789 17.43099609 73.13045898 18.60662109 73.12182617 19.81787109 C73.11731445 21.00123047 73.11280273 22.18458984 73.1081543 23.40380859 C73.09634084 26.33354616 73.07986875 29.26318382 73.05932617 32.19287109 C74.37767456 32.24580322 74.37767456 32.24580322 75.72265625 32.29980469 C105.63822173 33.65886519 138.39725921 45.26981654 161.05932617 65.19287109 C165.15616943 70.19720131 165.15616943 70.19720131 164.80932617 73.76318359 C164.43807617 75.02775391 164.43807617 75.02775391 164.05932617 76.31787109 C163.62161845 79.28050393 163.43231739 81.24574269 165.1237793 83.80078125 C167.5801414 86.62120527 170.29981652 89.09828336 173.10620117 91.56396484 C175.49095229 93.68689805 177.2942669 95.56392717 179.05932617 98.19287109 C180.39529642 94.32337169 181.54236101 90.43732701 182.60522461 86.48486328 C188.09045963 66.5511677 197.75015602 50.12853731 212.05932617 35.19287109 C212.74381836 34.44521484 213.42831055 33.69755859 214.13354492 32.92724609 C231.72569439 14.3270437 258.59816506 1.42550616 284.28466797 0.01586914 C315.8117236 -0.5402691 315.8117236 -0.5402691 331.05932617 4.19287109 C331.74446289 4.40186035 332.42959961 4.61084961 333.13549805 4.82617188 C348.49307165 9.67535843 362.02123527 17.52230731 374.05932617 28.19287109 C374.81342773 28.80388672 375.5675293 29.41490234 376.34448242 30.04443359 C397.07656955 47.22976155 411.38944949 75.53415246 414.05932617 102.19287109 C416.0848875 136.50798195 409.28451553 168.90958974 386.05932617 195.19287109 C365.46159065 218.168832 337.29381443 233.41253511 306.2019043 235.37304688 C269.00699816 237.02654892 239.46994696 224.86242981 212.05932617 200.19287109 C211.72932617 209.76287109 211.39932617 219.33287109 211.05932617 229.19287109 C213.36932617 229.52287109 215.67932617 229.85287109 218.05932617 230.19287109 C220.48120117 232.01708984 220.48120117 232.01708984 222.05932617 235.19287109 C222.52587561 239.14574885 222.43552919 243.03240285 222.30932617 247.00537109 C222.2912793 248.07980469 222.27323242 249.15423828 222.25463867 250.26123047 C222.20762009 252.90602574 222.14191777 255.54898699 222.05932617 258.19287109 C223.44764648 257.70947266 223.44764648 257.70947266 224.86401367 257.21630859 C240.096309 252.89373358 257.09515399 255.90937462 270.80932617 263.06787109 C275.00914886 265.4791065 278.99842523 268.14507795 282.99682617 270.87255859 C291.10741471 276.06456413 300.14778144 277.45730873 309.57885742 275.73193359 C316.10814524 273.98393528 321.41674769 270.83409752 327.05932617 267.19287109 C343.13778924 257.01821868 360.00282758 253.05321106 379.03979492 256.84130859 C388.53110277 259.54650474 396.68342513 264.80013036 404.68432617 270.44287109 C410.78999929 274.5683259 417.08060526 276.13275068 424.37182617 276.63037109 C428.70413667 276.95733792 431.00258706 277.93892301 434.05932617 281.19287109 C435.90795305 284.89012485 435.53519711 289.15748551 435.05932617 293.19287109 C433.26285763 296.12710305 432.11521907 297.66492465 429.05932617 299.19287109 C412.0548593 301.17998312 396.7813066 293.81644638 383.64135742 283.80615234 C374.32613927 277.98590257 363.73284495 277.82464156 353.05932617 279.19287109 C348.55848059 280.57699155 344.95726785 282.58090724 341.05932617 285.19287109 C340.11831055 285.79228516 339.17729492 286.39169922 338.20776367 287.00927734 C336.34650434 288.19627882 334.489562 289.39008243 332.63745117 290.59130859 C319.72292597 298.61396819 304.98634902 301.22693151 290.10742188 298.11157227 C279.81073664 295.69236061 271.08949595 291.05633049 262.43432617 285.00537109 C253.93610239 279.23153235 245.2822703 277.02531041 235.05932617 278.19287109 C230.888608 279.12218548 226.88788818 280.27859009 223.05932617 282.19287109 C222.94194677 285.69258308 222.87168656 289.19178065 222.80932617 292.69287109 C222.75905273 294.16626953 222.75905273 294.16626953 222.70776367 295.66943359 C222.60776411 303.1694011 223.88683246 308.36633247 228.70776367 314.18115234 C233.0793175 317.53399566 236.81175393 318.7082978 242.24682617 319.69287109 C249.86860231 321.11582072 249.86860231 321.11582072 252.49682617 323.81787109 C254.58321431 328.32446947 254.70362423 331.50963473 253.05932617 336.19287109 C250.27948078 339.97654954 248.78148768 340.90897253 244.19213867 341.66552734 C234.96805397 342.09686943 226.73977644 339.742886 219.34541321 334.13442993 C215.47658658 331.84856396 213.19374606 331.67585166 208.72802734 331.64355469 C208.0198436 331.63333282 207.31165985 331.62311096 206.58201599 331.61257935 C204.25509242 331.58491913 201.92936275 331.58669061 199.60229492 331.59130859 C197.97332831 331.58352586 196.34436573 331.57485471 194.71540833 331.56533813 C191.30509272 331.55044115 187.89519126 331.55097461 184.48486328 331.56152344 C180.13352601 331.57309479 175.78389647 331.53928743 171.4328413 331.49283409 C168.06881446 331.4632354 164.70519274 331.46163269 161.34105873 331.46785355 C159.73800595 331.46683278 158.1349288 331.45646405 156.5320034 331.43622971 C144.92289899 331.25816731 144.92289899 331.25816731 134.9054718 336.72280884 C129.06035669 341.37719957 120.88211242 341.73136137 113.70776367 341.55615234 C110.18197642 341.07252666 108.356293 339.88586669 106.05932617 337.19287109 C104.30854048 333.69129971 104.52293151 330.01385528 105.05932617 326.19287109 C107.17495335 322.58846923 109.03942235 321.47491527 113.03979492 320.36865234 C115.3203273 319.87265623 117.60433555 319.39240308 119.89135742 318.92724609 C125.39224477 317.65207122 128.80993294 315.77993817 132.37182617 311.25537109 C134.81873265 306.81468897 136.28596891 303.20241 136.47338867 298.11083984 C136.53139648 296.71381836 136.53139648 296.71381836 136.59057617 295.28857422 C136.62151367 294.32886719 136.65245117 293.36916016 136.68432617 292.38037109 C136.72299805 291.40132813 136.76166992 290.42228516 136.80151367 289.41357422 C136.89543433 287.00685735 136.98110818 284.60014097 137.05932617 282.19287109 C136.19307617 281.90412109 135.32682617 281.61537109 134.43432617 281.31787109 C132.31177581 280.61035431 130.19890697 279.87234505 128.10229492 279.09130859 C118.71985695 276.32114077 108.6241939 277.66348957 100.05932617 282.19287109 C97.28868856 284.01503276 94.58419128 285.8917526 91.89501953 287.82983398 C79.25704602 296.87353862 63.6148719 301.33964629 48.10766602 298.88378906 C36.64949106 296.73280585 27.4866901 292.46846507 18.05932617 285.56787109 C9.11040083 279.21202018 0.01304003 276.8096376 -10.94067383 278.19287109 C-18.35042517 279.7617466 -23.79516942 282.71841875 -29.87817383 287.13037109 C-41.757174 295.33550405 -54.52823433 300.21931536 -69.24145508 298.89599609 C-72.44410831 298.06173042 -74.05597311 296.65892693 -76.01879883 294.00146484 C-77.69463745 290.7136967 -77.84568302 287.74927438 -76.94067383 284.19287109 C-75.17069491 281.18000257 -73.1160976 278.78058298 -69.94067383 277.19287109 C-67.75603591 276.89984529 -65.56783755 276.63311545 -63.37817383 276.38037109 C-53.32170131 274.95102475 -46.68627327 271.10052236 -38.32373047 265.55981445 C-23.6451646 255.99978542 -6.1761422 253.41557131 11.03979492 256.84130859 C20.51296533 259.54133524 28.66768479 264.76335984 36.62182617 270.44287109 C44.71167097 275.91412236 54.20370018 277.40446921 63.71166992 275.72412109 C70.67428535 274.08356094 76.11803581 271.08771699 82.05932617 267.19287109 C93.91864111 259.56902578 104.41222798 256.0140913 118.43432617 256.00537109 C119.46299805 255.993125 120.49166992 255.98087891 121.55151367 255.96826172 C122.55182617 255.96632812 123.55213867 255.96439453 124.58276367 255.96240234 C125.48945801 255.95829346 126.39615234 255.95418457 127.33032227 255.94995117 C130.46792526 256.22924219 133.0931696 257.16046689 136.05932617 258.19287109 C136.02100712 248.69017013 135.96127171 239.18789979 135.87542343 229.68550873 C135.83619174 225.27144552 135.80388579 220.85757455 135.78833008 216.44335938 C135.77300111 212.17016954 135.73827588 207.89750914 135.69101715 203.6245575 C135.67636847 202.00783433 135.66829485 200.39103551 135.66744232 198.77424622 C135.6527585 184.86862483 134.0140711 171.28389418 127.30932617 158.81787109 C126.96571045 158.15851563 126.62209473 157.49916016 126.26806641 156.81982422 C116.24233411 138.17027254 100.00718152 127.26751943 80.23901367 121.10302734 C77.85143418 120.41960471 75.46969992 119.78582696 73.05932617 119.19287109 C73.07503662 119.86342529 73.09074707 120.53397949 73.10693359 121.22485352 C73.16947275 124.27660619 73.20837681 127.32822378 73.24682617 130.38037109 C73.27196289 131.43546875 73.29709961 132.49056641 73.32299805 133.57763672 C73.3375 135.11000977 73.3375 135.11000977 73.35229492 136.67333984 C73.3758606 138.07942505 73.3758606 138.07942505 73.39990234 139.51391602 C72.98081732 142.81041776 72.07718138 144.55831935 70.05932617 147.19287109 C66.04372495 150.18088494 63.09973669 150.57134084 58.14526367 150.58105469 C57.46981506 150.58631165 56.79436646 150.5915686 56.09844971 150.59698486 C53.87683647 150.6101348 51.65594606 150.60146518 49.43432617 150.59130859 C47.88403181 150.59333078 46.33373838 150.59624343 44.78344727 150.6000061 C41.53872598 150.60442265 38.29425292 150.59802016 35.04956055 150.58398438 C30.8966801 150.56689266 26.74438134 150.57673746 22.59152222 150.59470177 C19.39155722 150.60555783 16.19172945 150.60208495 12.99176025 150.59431839 C11.46079438 150.59232141 9.92981592 150.59475799 8.39886475 150.60175705 C6.25670511 150.60940186 4.11547903 150.59772639 1.97338867 150.58105469 C0.14735107 150.57747452 0.14735107 150.57747452 -1.71557617 150.57382202 C-6.04648796 150.06225151 -8.61465946 148.44697579 -11.74145508 145.48974609 C-13.46228561 142.19382313 -13.26155872 139.06136391 -13.12817383 135.44287109 C-13.10787109 134.39679688 -13.10787109 134.39679688 -13.0871582 133.32958984 C-13.05196832 131.61701569 -12.99816538 129.90484168 -12.94067383 128.19287109 C-13.84906006 128.22316406 -14.75744629 128.25345703 -15.69335938 128.28466797 C-19.22922692 128.40024099 -22.76518591 128.51142837 -26.30126953 128.62011719 C-27.80067007 128.66699804 -29.30002468 128.71538448 -30.79931641 128.765625 C-46.19197693 129.27923778 -61.5225469 129.19287109 -76.94067383 129.19287109 C-76.94067383 93.55287109 -76.94067383 57.91287109 -76.94067383 21.19287109 C-55.82067383 21.19287109 -34.70067383 21.19287109 -12.94067383 21.19287109 C-12.94067383 16.24287109 -12.94067383 11.29287109 -12.94067383 6.19287109 C-8.00562015 0.024054 -7.4176104 0.07365842 0 0 Z " fill="#4DD094" transform="translate(76.940673828125,-0.19287109375)"/>
<path d="M0 0 C0.71402481 -0.00817749 1.42804962 -0.01635498 2.16371155 -0.02478027 C4.53125162 -0.04963192 6.89873175 -0.06614971 9.26635742 -0.08056641 C10.07469213 -0.08589008 10.88302685 -0.09121376 11.71585655 -0.09669876 C15.99448066 -0.12342954 20.2730756 -0.14280451 24.55175781 -0.15722656 C28.97054386 -0.17387327 33.3885839 -0.21865059 37.8070879 -0.26959801 C41.20518345 -0.30325896 44.60310168 -0.31480266 48.0013485 -0.32045364 C49.63005969 -0.32716953 51.25875909 -0.34240055 52.88730812 -0.36634445 C55.16897941 -0.39797642 57.44863564 -0.39803702 59.73046875 -0.390625 C61.67666862 -0.40275528 61.67666862 -0.40275528 63.66218567 -0.41513062 C67.92449032 0.34771346 69.36755907 1.88191773 72.05932617 5.19287109 C73.39021728 7.8546533 73.1720161 9.88026505 73.15698242 12.85693359 C73.15375977 13.97841797 73.15053711 15.09990234 73.1472168 16.25537109 C73.13883789 17.43099609 73.13045898 18.60662109 73.12182617 19.81787109 C73.11731445 21.00123047 73.11280273 22.18458984 73.1081543 23.40380859 C73.09634084 26.33354616 73.07986875 29.26318382 73.05932617 32.19287109 C74.37767456 32.24580322 74.37767456 32.24580322 75.72265625 32.29980469 C105.63822173 33.65886519 138.39725921 45.26981654 161.05932617 65.19287109 C163.8225661 68.71554451 165.72782659 71.19809592 165.24682617 75.75537109 C164.65869218 79.27229355 163.73121215 81.03301474 160.93432617 83.25537109 C157.39892256 85.6747602 154.25493361 85.68103926 150.05932617 85.19287109 C147.32612703 83.82700448 144.98326765 82.04231579 142.55932617 80.19287109 C121.41211069 64.93612172 98.69246159 58.13643039 73.05932617 54.19287109 C73.05932617 68.38287109 73.05932617 82.57287109 73.05932617 97.19287109 C76.68932617 97.52287109 80.31932617 97.85287109 84.05932617 98.19287109 C86.93056304 98.95274972 89.55229679 99.72341978 92.30932617 100.75537109 C93.02749512 101.01858154 93.74566406 101.28179199 94.4855957 101.55297852 C106.74740256 106.20470551 117.33919885 112.31332082 127.05932617 121.19287109 C127.83791992 121.89025391 128.61651367 122.58763672 129.41870117 123.30615234 C144.85381168 137.86305829 157.27676083 161.21702031 158.16314316 182.71025276 C158.21797129 185.88512927 158.24029199 189.05879922 158.25219727 192.23413086 C158.2644635 194.04754723 158.2644635 194.04754723 158.27697754 195.89759827 C158.30176143 199.89315468 158.31849423 203.88867343 158.33276367 207.88427734 C158.3381292 209.26647382 158.34350672 210.64867024 158.34889603 212.03086662 C158.37050749 217.78629559 158.3892389 223.54172192 158.40051842 229.29718113 C158.41672611 237.50962885 158.44984571 245.72160125 158.50691926 253.9338699 C158.5457947 259.72777647 158.56517189 265.52155687 158.57043898 271.31559032 C158.57406917 274.76630583 158.58583735 278.21651289 158.61854172 281.66708565 C158.65033693 285.52703563 158.65020733 289.3858018 158.64282227 293.24584961 C158.6592276 294.36787781 158.67563293 295.48990601 158.6925354 296.64593506 C158.60325331 308.12360155 154.63680631 319.43814568 147.05932617 328.19287109 C137.53380234 337.43774691 127.06871722 341.56602287 113.91870117 341.48583984 C110.23940242 341.10886251 108.44897962 339.99453376 106.05932617 337.19287109 C104.30854048 333.69129971 104.52293151 330.01385528 105.05932617 326.19287109 C107.17495335 322.58846923 109.03942235 321.47491527 113.03979492 320.36865234 C115.3203273 319.87265623 117.60433555 319.39240308 119.89135742 318.92724609 C125.39224477 317.65207122 128.80993294 315.77993817 132.37182617 311.25537109 C134.81873265 306.81468897 136.28596891 303.20241 136.47338867 298.11083984 C136.53139648 296.71381836 136.53139648 296.71381836 136.59057617 295.28857422 C136.62151367 294.32886719 136.65245117 293.36916016 136.68432617 292.38037109 C136.72299805 291.40132813 136.76166992 290.42228516 136.80151367 289.41357422 C136.89543433 287.00685735 136.98110818 284.60014097 137.05932617 282.19287109 C136.19307617 281.90412109 135.32682617 281.61537109 134.43432617 281.31787109 C132.31177581 280.61035431 130.19890697 279.87234505 128.10229492 279.09130859 C118.71985695 276.32114077 108.6241939 277.66348957 100.05932617 282.19287109 C97.28868856 284.01503276 94.58419128 285.8917526 91.89501953 287.82983398 C79.25704602 296.87353862 63.6148719 301.33964629 48.10766602 298.88378906 C36.64949106 296.73280585 27.4866901 292.46846507 18.05932617 285.56787109 C9.11040083 279.21202018 0.01304003 276.8096376 -10.94067383 278.19287109 C-18.35042517 279.7617466 -23.79516942 282.71841875 -29.87817383 287.13037109 C-41.757174 295.33550405 -54.52823433 300.21931536 -69.24145508 298.89599609 C-72.44410831 298.06173042 -74.05597311 296.65892693 -76.01879883 294.00146484 C-77.69463745 290.7136967 -77.84568302 287.74927438 -76.94067383 284.19287109 C-75.17069491 281.18000257 -73.1160976 278.78058298 -69.94067383 277.19287109 C-67.75603591 276.89984529 -65.56783755 276.63311545 -63.37817383 276.38037109 C-53.32170131 274.95102475 -46.68627327 271.10052236 -38.32373047 265.55981445 C-23.6451646 255.99978542 -6.1761422 253.41557131 11.03979492 256.84130859 C20.51296533 259.54133524 28.66768479 264.76335984 36.62182617 270.44287109 C44.71167097 275.91412236 54.20370018 277.40446921 63.71166992 275.72412109 C70.67428535 274.08356094 76.11803581 271.08771699 82.05932617 267.19287109 C93.91864111 259.56902578 104.41222798 256.0140913 118.43432617 256.00537109 C119.46299805 255.993125 120.49166992 255.98087891 121.55151367 255.96826172 C122.55182617 255.96632812 123.55213867 255.96439453 124.58276367 255.96240234 C125.48945801 255.95829346 126.39615234 255.95418457 127.33032227 255.94995117 C130.46792526 256.22924219 133.0931696 257.16046689 136.05932617 258.19287109 C136.02100712 248.69017013 135.96127171 239.18789979 135.87542343 229.68550873 C135.83619174 225.27144552 135.80388579 220.85757455 135.78833008 216.44335938 C135.77300111 212.17016954 135.73827588 207.89750914 135.69101715 203.6245575 C135.67636847 202.00783433 135.66829485 200.39103551 135.66744232 198.77424622 C135.6527585 184.86862483 134.0140711 171.28389418 127.30932617 158.81787109 C126.96571045 158.15851563 126.62209473 157.49916016 126.26806641 156.81982422 C116.24233411 138.17027254 100.00718152 127.26751943 80.23901367 121.10302734 C77.85143418 120.41960471 75.46969992 119.78582696 73.05932617 119.19287109 C73.07503662 119.86342529 73.09074707 120.53397949 73.10693359 121.22485352 C73.16947275 124.27660619 73.20837681 127.32822378 73.24682617 130.38037109 C73.27196289 131.43546875 73.29709961 132.49056641 73.32299805 133.57763672 C73.3375 135.11000977 73.3375 135.11000977 73.35229492 136.67333984 C73.3758606 138.07942505 73.3758606 138.07942505 73.39990234 139.51391602 C72.98081732 142.81041776 72.07718138 144.55831935 70.05932617 147.19287109 C66.04372495 150.18088494 63.09973669 150.57134084 58.14526367 150.58105469 C57.46981506 150.58631165 56.79436646 150.5915686 56.09844971 150.59698486 C53.87683647 150.6101348 51.65594606 150.60146518 49.43432617 150.59130859 C47.88403181 150.59333078 46.33373838 150.59624343 44.78344727 150.6000061 C41.53872598 150.60442265 38.29425292 150.59802016 35.04956055 150.58398438 C30.8966801 150.56689266 26.74438134 150.57673746 22.59152222 150.59470177 C19.39155722 150.60555783 16.19172945 150.60208495 12.99176025 150.59431839 C11.46079438 150.59232141 9.92981592 150.59475799 8.39886475 150.60175705 C6.25670511 150.60940186 4.11547903 150.59772639 1.97338867 150.58105469 C0.14735107 150.57747452 0.14735107 150.57747452 -1.71557617 150.57382202 C-6.04648796 150.06225151 -8.61465946 148.44697579 -11.74145508 145.48974609 C-13.46228561 142.19382313 -13.26155872 139.06136391 -13.12817383 135.44287109 C-13.10787109 134.39679688 -13.10787109 134.39679688 -13.0871582 133.32958984 C-13.05196832 131.61701569 -12.99816538 129.90484168 -12.94067383 128.19287109 C-13.84906006 128.22316406 -14.75744629 128.25345703 -15.69335938 128.28466797 C-19.22922692 128.40024099 -22.76518591 128.51142837 -26.30126953 128.62011719 C-27.80067007 128.66699804 -29.30002468 128.71538448 -30.79931641 128.765625 C-46.19197693 129.27923778 -61.5225469 129.19287109 -76.94067383 129.19287109 C-76.94067383 93.55287109 -76.94067383 57.91287109 -76.94067383 21.19287109 C-55.82067383 21.19287109 -34.70067383 21.19287109 -12.94067383 21.19287109 C-12.94067383 16.24287109 -12.94067383 11.29287109 -12.94067383 6.19287109 C-8.00562015 0.024054 -7.4176104 0.07365842 0 0 Z " fill="#312C38" transform="translate(76.940673828125,-0.19287109375)"/>
<path d="M0 0 C24.37792236 -0.74454738 48.03748123 8.34325299 66.46484375 24.19140625 C67.43550781 24.95839844 68.40617188 25.72539063 69.40625 26.515625 C72.73093887 29.28716579 75.33669735 32.4550351 77.96484375 35.87890625 C78.44332764 36.49902588 78.92181152 37.11914551 79.41479492 37.75805664 C93.24904599 55.92241654 98.6654402 74.85942359 98.77734375 97.50390625 C98.78580322 99.13162964 98.78580322 99.13162964 98.79443359 100.79223633 C98.70513747 110.71091655 97.34456758 119.94089073 93.71484375 129.19140625 C93.45098877 129.87364258 93.18713379 130.55587891 92.9152832 131.25878906 C83.18035134 155.82611192 64.60160695 174.85020541 40.40820312 185.41699219 C15.20931947 195.45855738 -12.67746359 194.87157356 -37.53515625 184.19140625 C-60.04148317 173.79724097 -76.76988668 154.75059421 -86.53515625 132.19140625 C-88.06790246 127.90474226 -89.38827888 123.59645795 -90.53515625 119.19140625 C-90.80440918 118.2180835 -90.80440918 118.2180835 -91.07910156 117.22509766 C-92.7158951 110.78694618 -92.84418853 104.56052574 -92.78515625 97.94140625 C-92.77693848 96.82967041 -92.7687207 95.71793457 -92.76025391 94.57250977 C-92.39666178 67.90713217 -82.13952726 46.36639903 -63.84765625 27.12890625 C-46.40682736 10.19168792 -24.04525478 1.30189777 0 0 Z " fill="#FCE06E" transform="translate(370.53515625,20.80859375)"/>
<path d="M0 0 C0.68513672 0.20898926 1.37027344 0.41797852 2.07617188 0.63330078 C17.43374548 5.48248734 30.96190909 13.32943622 43 24 C43.75410156 24.61101563 44.50820313 25.22203125 45.28515625 25.8515625 C66.01724338 43.03689045 80.33012332 71.34128136 83 98 C85.02556133 132.31511085 78.22518936 164.71671865 55 191 C34.40226448 213.97596091 6.23448826 229.21966402 -24.85742188 231.18017578 C-55.52162285 232.54335489 -85.09633908 224.82839495 -109 205 C-109.83789062 204.32582031 -110.67578125 203.65164062 -111.5390625 202.95703125 C-123.91476257 192.48679612 -132.68430925 179.31553948 -140 165 C-140.49113281 164.06929687 -140.98226563 163.13859375 -141.48828125 162.1796875 C-154.54063719 135.75169745 -155.47459945 103.09823761 -146.5390625 75.3359375 C-140.68351143 58.26303299 -131.47400676 44.02015417 -119 31 C-118.31550781 30.25234375 -117.63101563 29.5046875 -116.92578125 28.734375 C-88.20109586 -1.63627203 -39.55829639 -12.27963292 0 0 Z M-54 19 C-54.92554688 19.15984375 -55.85109375 19.3196875 -56.8046875 19.484375 C-78.99263638 24.03259721 -99.40763726 38.64382146 -112.6875 56.75 C-127.48130366 79.24225785 -134.04094053 104.70322756 -129.31640625 131.66015625 C-128.47418178 135.53123858 -127.29869176 139.25671199 -126 143 C-125.67056396 143.96172119 -125.67056396 143.96172119 -125.33447266 144.94287109 C-117.61897348 167.03005733 -102.38957866 185.43831154 -82 197 C-81.07703125 197.52335938 -80.1540625 198.04671875 -79.203125 198.5859375 C-73.57628038 201.58185207 -67.87010585 203.87582545 -61.8125 205.8125 C-61.17159424 206.01955566 -60.53068848 206.22661133 -59.87036133 206.43994141 C-43.93349813 211.26756846 -23.8087037 210.92157757 -8 206 C-7.37609375 205.80664062 -6.7521875 205.61328125 -6.109375 205.4140625 C10.59107281 200.08832914 23.73342225 191.42055153 36 179 C36.68707031 178.31164062 37.37414062 177.62328125 38.08203125 176.9140625 C57.28296042 156.36950172 61.75386854 130.9934524 61.13183594 104.13085938 C60.17417753 81.38824564 48.98517419 60.22526302 33.1796875 44.1484375 C14.03834933 26.60888495 -10.96579399 16.23769987 -37.0078125 16.80859375 C-42.78485553 17.08557527 -48.33312139 17.86952294 -54 19 Z " fill="#312C38" transform="translate(408,4)"/>
<path d="M0 0 C4.39404054 3.20531459 8.56296612 4.98479688 13.8125 6.3125 C14.46992187 6.49683594 15.12734375 6.68117188 15.8046875 6.87109375 C27.95416623 9.5420881 39.27532708 4.11641241 49.30078125 -2.2734375 C50.7859129 -3.28404522 52.27031224 -4.2957301 53.75390625 -5.30859375 C65.486623 -13.16751028 79.84790593 -15.38704498 93.66015625 -13.03125 C105.63140761 -10.52409872 115.71064671 -5.18600156 125.6171875 1.953125 C132.04630745 5.9341459 137.16232187 6.83922615 144.625 6.75 C145.95893799 6.73755249 145.95893799 6.73755249 147.31982422 6.72485352 C157.6772066 6.4577931 163.92823154 3.13096735 172.1875 -2.8828125 C185.55963767 -12.07615715 200.55870557 -15.91660752 216.61328125 -12.99609375 C228.84009813 -10.01120178 238.81860938 -4.67489334 249.0234375 2.578125 C257.47039306 7.83085367 268.1862145 7.6170231 277.8125 6.3125 C285.51943452 4.16478057 292.0500984 -0.76252193 298.5390625 -5.2734375 C311.67297508 -13.44264086 326.47361006 -15.67640384 341.5 -12.4375 C343.61241696 -11.88478875 345.71761281 -11.30332692 347.8125 -10.6875 C348.64136719 -10.44386719 349.47023438 -10.20023437 350.32421875 -9.94921875 C356.64550793 -7.74460384 361.93825249 -4.13679821 367.37255859 -0.30444336 C373.42752654 3.92885487 378.84775058 6.59510652 386.375 6.8125 C391.19438481 7.08947614 394.75699533 7.46268591 398.8125 10.3125 C400.98225061 13.56712591 401.18710798 14.87349258 401.3125 18.6875 C401.3640625 19.62335938 401.415625 20.55921875 401.46875 21.5234375 C400.69094885 24.82909238 399.31265123 26.34242784 396.60009766 28.35742188 C389.92767787 31.92236399 379.04604507 29.68753361 372.0625 27.75 C363.69312071 24.81864562 356.42920468 20.18868167 349.25 15.0625 C341.16015521 9.59124873 331.66812599 8.10090189 322.16015625 9.78125 C314.40644016 11.60821256 308.3908422 15.25124161 301.83203125 19.63671875 C287.4468939 29.03896316 271.59652246 31.50372748 254.67773438 28.99609375 C250.88530589 28.17113043 247.36328226 26.85807521 243.8125 25.3125 C242.93722656 24.93867188 242.06195313 24.56484375 241.16015625 24.1796875 C236.66520896 22.08804793 232.70226412 19.59010724 228.6875 16.6875 C220.61485808 10.85796266 211.74637867 8.32500761 201.8125 9.3125 C193.05490071 10.92696459 186.55775239 14.54025732 179.421875 19.5871582 C165.33702303 29.39651245 148.48138345 31.39163421 131.69384766 29.01220703 C120.99749636 26.77250691 111.76528057 20.69725389 102.875 14.6328125 C94.76441147 9.44080696 85.72404473 8.04806236 76.29296875 9.7734375 C69.76368093 11.52143581 64.45507849 14.67127357 58.8125 18.3125 C42.73403693 28.48715241 25.86899859 32.45216003 6.83203125 28.6640625 C-2.6592766 25.95886635 -10.81159896 20.70524074 -18.8125 15.0625 C-27.29168759 9.35887381 -36.76057326 7.9559837 -46.75390625 9.78125 C-54.11708663 11.71710963 -60.25320342 15.53655903 -66.4296875 19.89453125 C-75.87782108 26.53512336 -85.68410007 29.46582011 -97.1875 29.625 C-97.88617188 29.65400391 -98.58484375 29.68300781 -99.3046875 29.71289062 C-102.95208122 29.75762281 -105.00541257 29.42606251 -108.125 27.48046875 C-111.29559498 24.14774108 -111.58472984 20.90971418 -111.54296875 16.3828125 C-110.90188682 12.64903865 -108.89171041 10.89093318 -106.1875 8.3125 C-103.29690017 7.34896672 -100.65931401 7.01462262 -97.64111328 6.71801758 C-86.78680366 5.612784 -80.60721245 2.35614438 -71.75 -3.94921875 C-48.90670996 -19.44504812 -21.66312256 -15.82175669 0 0 Z " fill="#302C38" transform="translate(111.1875,482.6875)"/>
<path d="M0 0 C1.76253635 1.23226037 3.51354124 2.48125614 5.25 3.75 C14.32192115 10.24036159 23.10355751 11.12372451 34.046875 9.56640625 C41.82936919 7.94337314 47.53499182 4.49490214 54 0 C68.58091122 -9.79800085 83.33411753 -11.83119798 100.52734375 -9.52734375 C109.92757788 -7.46448028 118.35229244 -3.05107697 126.0625 2.625 C135.10949257 9.12212364 143.93629492 11.11740662 155 10 C162.61618023 8.66440897 168.57241456 5.13844537 175 1 C190.71984357 -8.75714429 206.31857287 -13.20487573 224.94140625 -9.3125 C235.41969343 -6.28627988 244.4724049 -0.49291377 253.4921875 5.484375 C261.16057122 10.1188499 270.20088265 10.98777188 279 10 C286.80361673 7.90588865 293.15922947 4.49354515 299.60546875 -0.296875 C303.50181828 -3.06817744 307.62201599 -5.10287359 312 -7 C312.70898438 -7.32097656 313.41796875 -7.64195312 314.1484375 -7.97265625 C328.36288789 -13.33424719 346.52629377 -10.70774101 360.015625 -4.64453125 C364.66828539 -2.22072912 368.8885566 0.60290066 373.125 3.6875 C379.65455491 8.33826788 385.21375475 9.98172033 393.1875 10.375 C396.80501861 10.63372419 399.68754254 10.8478414 402.75 12.875 C405.62237005 16.86440285 405.79704704 19.56466894 405.5234375 24.3984375 C404.74819929 28.25148713 403.2298835 29.84674433 400 32 C389.51330336 35.12369687 376.24615945 30.90638823 367 26 C364.14841706 24.3022592 361.36410781 22.53403446 358.59375 20.70703125 C347.40418611 13.34281526 336.76652051 9.86196756 323.24609375 12.546875 C316.62627655 14.63838207 311.33926981 18.34701792 305.70776367 22.2746582 C291.38559145 32.08268918 274.16695993 34.26030543 257.22265625 31.3515625 C247.60990117 28.62503561 239.44554919 23.41635316 231.3125 17.75 C222.3725719 11.79004794 213.65872306 10.99467564 203 12 C196.16630496 13.60120051 190.65238698 17.39080544 184.84765625 21.1953125 C169.40485977 30.98210533 152.52858784 34.81660465 134.43359375 31.30859375 C125.77893769 28.61177133 117.88446862 24.06904897 110.5 18.875 C102.17420749 13.24546058 93.98577813 11.08293874 84 12 C83.17757812 12.07089844 82.35515625 12.14179688 81.5078125 12.21484375 C73.27376208 13.38549948 66.41729197 17.75176044 59.80078125 22.6171875 C46.61108794 32.31475248 30.86782812 33.5967022 15 32 C10.66211961 31.17658474 6.961759 29.93008772 3 28 C2.07316406 27.55269531 1.14632812 27.10539062 0.19140625 26.64453125 C-4.51903379 24.20764618 -8.80118785 21.4636107 -13.0625 18.3125 C-22.24220035 11.80901323 -31.90502412 10.8046208 -43 12 C-50.02341789 13.79045259 -55.66046924 17.31903419 -61.5 21.5 C-70.58823982 27.99771681 -78.88727061 31.18299735 -89.9375 32.5 C-90.75492676 32.60175537 -91.57235352 32.70351074 -92.41455078 32.80834961 C-97.22638765 33.2622871 -100.05388814 33.14785259 -104 30 C-106.12836673 28.09180914 -106.88589498 26.7416826 -107.3203125 23.91796875 C-107.52614673 19.7807008 -107.36244605 17.57991369 -105.125 14 C-101.86877104 10.93531392 -99.932398 10.88639003 -95.5625 10.6875 C-85.0909153 9.86079594 -77.44478821 5.9584307 -69 0 C-62.54945355 -4.28307988 -56.53084682 -7.16353034 -49 -9 C-48.38366699 -9.17200928 -47.76733398 -9.34401855 -47.13232422 -9.52124023 C-30.56296562 -13.24147291 -14.06846987 -8.64661624 0 0 Z " fill="#302C39" transform="translate(107,373)"/>
<path d="M0 0 C2.8100346 1.79363911 4.50940468 3.01880935 6 6 C6.08449628 7.7404417 6.10723024 9.48409722 6.09765625 11.2265625 C6.09443359 12.2578125 6.09121094 13.2890625 6.08789062 14.3515625 C6.07951172 15.43179688 6.07113281 16.51203125 6.0625 17.625 C6.05798828 18.71296875 6.05347656 19.8009375 6.04882812 20.921875 C6.03701776 23.61463789 6.02054778 26.30729188 6 29 C6.92554688 28.67773438 7.85109375 28.35546875 8.8046875 28.0234375 C24.03698282 23.70086248 41.03582781 26.71650353 54.75 33.875 C58.94982269 36.28623541 62.93909906 38.95220686 66.9375 41.6796875 C75.04808853 46.87169304 84.08845527 48.26443764 93.51953125 46.5390625 C100.04881907 44.79106419 105.35742151 41.64122643 111 38 C127.07846307 27.82534759 143.94350141 23.86033997 162.98046875 27.6484375 C172.4717766 30.35363365 180.62409896 35.60725926 188.625 41.25 C194.73067312 45.37545481 201.02127908 46.93987958 208.3125 47.4375 C212.6448105 47.76446683 214.94326089 48.74605192 218 52 C219.84862688 55.69725375 219.47587094 59.96461442 219 64 C217.20353146 66.93423195 216.0558929 68.47205355 213 70 C195.99553312 71.98711203 180.72198043 64.62357528 167.58203125 54.61328125 C158.2668131 48.79303148 147.67351877 48.63177046 137 50 C132.49915442 51.38412045 128.89794168 53.38803615 125 56 C123.58847656 56.89912109 123.58847656 56.89912109 122.1484375 57.81640625 C120.28717817 59.00340772 118.43023582 60.19721134 116.578125 61.3984375 C103.6635998 69.4210971 88.92702285 72.03406042 74.0480957 68.91870117 C63.75141047 66.49948951 55.03016977 61.8634594 46.375 55.8125 C37.87677622 50.03866125 29.22294413 47.83243932 19 49 C14.82928183 49.92931438 10.82856201 51.08571899 7 53 C6.8826206 56.49971199 6.81236039 59.99890955 6.75 63.5 C6.71648437 64.48226562 6.68296875 65.46453125 6.6484375 66.4765625 C6.54843793 73.97653001 7.82750629 79.17346137 12.6484375 84.98828125 C17.01999132 88.34112457 20.75242776 89.5154267 26.1875 90.5 C33.80927613 91.92294962 33.80927613 91.92294962 36.4375 94.625 C38.52388814 99.13159838 38.64429806 102.31676364 37 107 C34.22015461 110.78367845 32.72216151 111.71610144 28.1328125 112.47265625 C17.42043717 112.97359466 8.08127094 109.40067838 -0.1953125 102.65234375 C-8.49049692 95.05740217 -14.58328492 86.20265342 -15.1673584 74.70570374 C-15.18625122 73.45583176 -15.20514404 72.20595978 -15.22460938 70.91821289 C-15.23599945 70.22486343 -15.24738953 69.53151398 -15.25912476 68.81715393 C-15.36925016 61.60887297 -15.41709081 54.39961742 -15.45996094 47.19067383 C-15.48227997 43.77317416 -15.5241253 40.35675904 -15.58300781 36.93969727 C-15.65412254 32.80354182 -15.69079333 28.66841068 -15.70307922 24.53167534 C-15.71346773 22.95954323 -15.73586401 21.38744145 -15.77067566 19.81566048 C-16.02691207 7.6219218 -16.02691207 7.6219218 -13.5378418 3.69064331 C-9.20497861 -0.25436341 -5.74133233 -0.92602134 0 0 Z " fill="#302C38" transform="translate(293,229)"/>
<path d="M0 0 C13.86 0 27.72 0 42 0 C42 34.98 42 69.96 42 106 C28.14 106 14.28 106 0 106 C0 71.02 0 36.04 0 0 Z " fill="#FFE26F" transform="translate(86,22)"/>
<path d="M0 0 C2.62702013 2.39314463 2.97540851 3.87279758 3.65625 7.39453125 C3.38024814 14.17696323 -1.09511469 20.02499494 -4.5 25.6875 C-5.20468266 26.88906179 -5.90781926 28.09153169 -6.609375 29.29492188 C-8.35788099 32.28308496 -10.1385654 35.25055105 -11.9296875 38.21331787 C-13.01686457 40.02815217 -14.08014024 41.85549717 -15.140625 43.68603516 C-15.83296974 44.85991504 -16.52566443 46.03358862 -17.21875 47.20703125 C-17.82654297 48.24964111 -18.43433594 49.29225098 -19.06054688 50.36645508 C-21.15120542 53.20531884 -22.83097534 54.5035512 -26 56 C-30.33947525 56.45202867 -33.02734211 55.58906316 -37 54 C-40.09501208 53.74734595 -42.20129973 53.60064987 -45 55 C-47.82883747 56.41441874 -49.87376745 56.31900332 -53 56 C-57.30888049 53.94457052 -59.1387556 51.70882151 -61.453125 47.58203125 C-62.06857178 46.49954102 -62.68401855 45.41705078 -63.31811523 44.30175781 C-63.95563721 43.15030273 -64.59315918 41.99884766 -65.25 40.8125 C-65.91448191 39.62934087 -66.57993277 38.4467254 -67.24633789 37.26464844 C-68.56395953 34.92445003 -69.87466955 32.58080203 -71.18212891 30.23486328 C-72.74907021 27.44652427 -74.34863551 24.68423674 -75.98046875 21.93359375 C-76.40360352 21.21260498 -76.82673828 20.49161621 -77.26269531 19.7487793 C-78.02023927 18.45991555 -78.78594262 17.17579623 -79.56152344 15.89770508 C-81.75331775 12.10392594 -82.61919021 9.36381671 -82 5 C-79.27990467 -1.48050782 -73.10082944 -3.60350386 -67 -6.20410156 C-45.00991228 -14.95503979 -19.99401509 -12.75142781 0 0 Z " fill="#332D38" transform="translate(413,43)"/>
<path d="M0 0 C0.94147888 -0.00960754 1.88295776 -0.01921509 2.85296631 -0.02911377 C4.38416107 -0.03548859 4.38416107 -0.03548859 5.94628906 -0.04199219 C6.99463928 -0.04769226 8.0429895 -0.05339233 9.12310791 -0.05926514 C11.34573352 -0.06872452 13.56837322 -0.07525283 15.79101562 -0.07910156 C19.18417036 -0.08878799 22.57671458 -0.11979511 25.96972656 -0.15136719 C28.12857713 -0.15789908 30.28743203 -0.16314882 32.44628906 -0.16699219 C33.96533844 -0.18551239 33.96533844 -0.18551239 35.51507568 -0.20440674 C40.91580307 -0.18741866 44.81931909 0.06919078 49.46191406 3.16113281 C51.96018223 6.19474415 52.60229768 8.82028125 53.21191406 12.59863281 C54.10963571 17.28239793 56.12430029 19.21206331 59.90332031 21.96972656 C62.40208803 23.87981216 62.48410363 25.29769655 62.99316406 28.43066406 C62.89399614 35.30578994 58.39946338 41.13180578 54.96191406 46.84863281 C54.25723141 48.05019461 53.5540948 49.2526645 52.85253906 50.45605469 C51.10503723 53.44152223 49.3298454 56.40919573 47.54101562 59.37005615 C46.43668552 61.20300677 45.34365755 63.04241029 44.25097656 64.88232422 C43.54057129 66.06542391 42.82965346 67.24821602 42.11816406 68.43066406 C41.17166992 70.0119812 41.17166992 70.0119812 40.20605469 71.62524414 C38.28397867 74.41984151 36.72920507 75.87268225 33.36816406 76.63769531 C23.73830927 77.2317448 18.46680533 71.69550406 11.60253906 65.63769531 C4.72891694 59.16281922 -0.05650716 52.44461965 -4.53808594 44.16113281 C-4.95832031 43.40316406 -5.37855469 42.64519531 -5.81152344 41.86425781 C-10.84526852 31.79676764 -13.27098923 18.29897487 -11.53808594 7.16113281 C-8.94691187 1.98838161 -5.61734972 0.04620136 0 0 Z " fill="#322D38" transform="translate(301.5380859375,111.8388671875)"/>
<path d="M0 0 C0.94470657 -0.00960754 1.88941315 -0.01921509 2.86274719 -0.02911377 C4.39864754 -0.03548859 4.39864754 -0.03548859 5.96557617 -0.04199219 C7.54165901 -0.0505423 7.54165901 -0.0505423 9.14958191 -0.05926514 C11.37640371 -0.06872371 13.60323956 -0.07525251 15.83007812 -0.07910156 C19.23421744 -0.08879789 22.63775077 -0.11980989 26.04174805 -0.15136719 C28.20385383 -0.15789805 30.36596394 -0.16314819 32.52807617 -0.16699219 C34.05486748 -0.18551239 34.05486748 -0.18551239 35.61250305 -0.20440674 C44.3147672 -0.17703578 44.3147672 -0.17703578 48.44604492 3.16113281 C49.03514648 3.58007812 49.62424805 3.99902344 50.23120117 4.43066406 C53.77030319 9.47189299 51.85060942 19.26215752 50.82495117 25.14550781 C46.77160466 44.75284429 36.02232463 61.73523608 19.58618164 73.23071289 C15.30184258 75.97597735 11.79390304 77.25872966 6.72729492 77.19628906 C-0.99927203 73.690227 -5.12836227 63.33936021 -9.05395508 56.34863281 C-10.33440923 54.0916707 -11.61564862 51.83515388 -12.89770508 49.57910156 C-13.81543701 47.95307007 -13.81543701 47.95307007 -14.75170898 46.29418945 C-16.89205026 42.57338215 -19.14348474 38.92974307 -21.4440918 35.30615234 C-23.34953989 31.62351553 -23.245459 29.24100594 -22.55395508 25.16113281 C-20.66405449 22.15129114 -18.62332045 20.22058884 -15.92895508 17.91113281 C-13.10822017 14.6450187 -12.86415829 12.45076675 -12.14770508 8.31738281 C-11.22683648 4.97317581 -9.20060573 3.27845333 -6.55395508 1.16113281 C-4.16618871 -0.03275037 -2.66553225 0.021844 0 0 Z " fill="#322D38" transform="translate(405.553955078125,111.8388671875)"/>
<path d="M0 0 C21.12 0 42.24 0 64 0 C64 20.79 64 41.58 64 63 C30.65895062 64.14969136 30.65895062 64.14969136 15.6875 64.0625 C7.9221875 64.0315625 7.9221875 64.0315625 0 64 C0 42.88 0 21.76 0 0 Z " fill="#FEC44A" transform="translate(0,43)"/>
<path d="M0 0 C1.47049805 -0.01160156 1.47049805 -0.01160156 2.97070312 -0.0234375 C3.92009766 -0.02085938 4.86949219 -0.01828125 5.84765625 -0.015625 C6.70496338 -0.01336914 7.56227051 -0.01111328 8.44555664 -0.00878906 C11.23086305 0.28046584 13.39465783 1.10391426 15.9375 2.25 C14.83585882 4.48044611 13.73128106 6.70935646 12.625 8.9375 C12.31626953 9.56333984 12.00753906 10.18917969 11.68945312 10.83398438 C10.78763433 12.64711479 9.86287911 14.44878027 8.9375 16.25 C8.26074219 17.68666016 8.26074219 17.68666016 7.5703125 19.15234375 C5.9375 21.25 5.9375 21.25 3.23046875 22.0546875 C-4.9117028 22.23903855 -4.9117028 22.23903855 -8.0078125 19.578125 C-9.61304957 17.20808912 -10.85123695 14.84339394 -12.0625 12.25 C-12.54589844 11.31800781 -13.02929688 10.38601562 -13.52734375 9.42578125 C-14.74975642 7.05206579 -15.92331138 4.664475 -17.0625 2.25 C-11.39200339 -0.16787673 -6.05041005 -0.04792404 0 0 Z " fill="#FAC14A" transform="translate(374.0625,53.75)"/>
<path d="M0 0 C7.26 0 14.52 0 22 0 C26.38534745 5.52553779 26.38534745 5.52553779 27 10 C25.07685146 15.91644645 21.3058784 22.48825661 17 27 C14 27 14 27 12.38671875 25.671875 C5.57598917 17.96870499 1.45946993 10.2162895 0 0 Z " fill="#FBC24A" transform="translate(313,134)"/>
<path d="M0 0 C7.59 0 15.18 0 23 0 C19.56116182 11.46279393 16.09308929 20.1175291 7 28 C3.82046265 24.93623929 1.4285224 21.6096313 -1 17.9375 C-1.45761719 17.31939453 -1.91523438 16.70128906 -2.38671875 16.06445312 C-3.625 14.15234375 -3.625 14.15234375 -5 10 C-3.35 6.7 -1.7 3.4 0 0 Z " fill="#FCC24A" transform="translate(412,134)"/>
<path d="M0 0 C2.87029869 1.79393668 4.49131638 2.98263276 6 6 C6.49337839 10.93378393 6.52463704 13.06919235 4.0625 17.4375 C0.62695683 20.31213816 -1.37478514 21.10141006 -5.77734375 21.28515625 C-8.71269321 20.90856484 -10.80222984 19.82082651 -12.90234375 17.7265625 C-15.03257531 14.37580681 -15.31828671 10.89724393 -15 7 C-12.00596854 -0.03597393 -7.03148716 -1.03621916 0 0 Z " fill="#342F39" transform="translate(378,107)"/>
</svg>
