<?xml version="1.0" encoding="UTF-8"?>
<svg version="1.1" xmlns="http://www.w3.org/2000/svg" width="512" height="512">
<path d="M0 0 C0.64388672 0.50112305 1.28777344 1.00224609 1.95117188 1.51855469 C15.85864085 12.40708528 28.63021717 24.40756108 41 37 C41.99889442 38.00110436 42.99841647 39.00158604 44 40 C44.38671875 38.92105469 44.38671875 38.92105469 44.78125 37.8203125 C52.56544093 19.80689631 70.2404576 5.70195538 87.96289062 -1.79418945 C104.66187145 -8.38642212 123.7316366 -9.52323745 140.6640625 -2.96875 C149.07353049 1.30823028 155.69902035 8.12278918 159 17 C162.41324837 29.13722097 159.93191088 42.35947436 156 54 C155.649375 55.09828125 155.29875 56.1965625 154.9375 57.328125 C148.24729608 76.56246126 133.99843259 93.02850805 117 104 C117.43755615 104.34144043 117.8751123 104.68288086 118.32592773 105.03466797 C139.74491324 121.83994376 155.96439543 142.22221714 160 170 C160.92021074 179.37390638 161.41306441 188.88883495 156 197 C155.57589844 197.69222656 155.15179688 198.38445312 154.71484375 199.09765625 C148.66171135 208.11834102 139.70847607 212.40669053 129.31640625 214.5546875 C113.12456282 216.72885729 93.83273944 215.69136938 80 206 C77.66752324 203.38052946 77.03530247 202.44128089 76.75 198.875 C77 196 77 196 78 194 C77.15501953 193.62681641 77.15501953 193.62681641 76.29296875 193.24609375 C65.10160205 187.1642437 56.14332314 174.89944429 50 164 C50 163.34 50 162.68 50 162 C49.27554687 162.72574219 48.55109375 163.45148438 47.8046875 164.19921875 C46.06518313 165.93630042 44.32122718 167.66895135 42.5703125 169.39453125 C38.74258188 173.17945977 34.97340525 176.94709093 31.5 181.0625 C28.14842591 184.97136158 24.4326358 188.34452685 20.56640625 191.73828125 C18.96764445 193.14723571 17.38810432 194.57870062 15.83984375 196.04296875 C-24.86870717 234.31044254 -80.05544323 258.60787488 -136.125 258.3125 C-137.26785965 258.30876877 -137.26785965 258.30876877 -138.43380737 258.30496216 C-186.21324976 258.06499601 -240.70919525 240.57973543 -276 207 C-278 204 -278 204 -277.3125 200.0625 C-277.20809691 197.30716629 -277.51484186 195.63525579 -279.20263672 193.42529297 C-286.02476096 185.92091661 -286.02476096 185.92091661 -295 182 C-295.94875 182.20625 -296.8975 182.4125 -297.875 182.625 C-301.94077037 183.11289244 -303.50028222 182.07617801 -307 180 C-309.53515625 177.609375 -309.53515625 177.609375 -312.0625 174.75 C-312.7596814 173.96544434 -312.7596814 173.96544434 -313.47094727 173.16503906 C-314.46973274 172.03708462 -315.46399412 170.90511079 -316.45410156 169.76953125 C-318.01682623 167.98073966 -319.59681235 166.20846818 -321.1796875 164.4375 C-339.87817523 143.37532082 -353.62905234 124.9681142 -352.23828125 95.69238281 C-350.6798369 78.0832391 -338.65076658 64.95525961 -327.74609375 52.07080078 C-326.18031703 50.21384914 -324.63373602 48.34317628 -323.09375 46.46484375 C-312.17021821 33.26605577 -300.04835969 20.46533629 -286.49609375 9.9453125 C-283.78098452 7.82931188 -281.2187884 5.57524387 -278.625 3.3125 C-202.43270457 -60.14818129 -97.45345879 -64.90230423 0 0 Z " fill="#B4D4F4" transform="translate(352,219)"/>
<path d="M0 0 C0.64388672 0.50112305 1.28777344 1.00224609 1.95117188 1.51855469 C15.85864085 12.40708528 28.63021717 24.40756108 41 37 C41.99889442 38.00110436 42.99841647 39.00158604 44 40 C44.38671875 38.92105469 44.38671875 38.92105469 44.78125 37.8203125 C52.56544093 19.80689631 70.2404576 5.70195538 87.96289062 -1.79418945 C104.66187145 -8.38642212 123.7316366 -9.52323745 140.6640625 -2.96875 C149.07353049 1.30823028 155.69902035 8.12278918 159 17 C162.41324837 29.13722097 159.93191088 42.35947436 156 54 C155.649375 55.09828125 155.29875 56.1965625 154.9375 57.328125 C148.24729608 76.56246126 133.99843259 93.02850805 117 104 C117.43755615 104.34144043 117.8751123 104.68288086 118.32592773 105.03466797 C139.74491324 121.83994376 155.96439543 142.22221714 160 170 C160.92021074 179.37390638 161.41306441 188.88883495 156 197 C155.57589844 197.69222656 155.15179688 198.38445312 154.71484375 199.09765625 C148.66171135 208.11834102 139.70847607 212.40669053 129.31640625 214.5546875 C113.12456282 216.72885729 93.83273944 215.69136938 80 206 C77.82829768 203.5243574 77.05963049 202.3503291 76.5 199.0625 C77.18623759 194.85929476 78.61243277 193.52265645 82 191 C87.03522555 189.1873188 90.01341453 190.23400745 94.6875 192.375 C96.05455078 193.06722656 96.05455078 193.06722656 97.44921875 193.7734375 C103.0682937 196.47541228 108.55850211 196.21759287 114.6875 196.25 C115.64333984 196.270625 116.59917969 196.29125 117.58398438 196.3125 C125.22274943 196.35415652 131.92313468 195.55314356 137.9375 190.5625 C141.99810056 185.51751143 142.68244856 181.41326663 142 175 C139.46380694 160.28044912 133.71435579 146.46519899 124 135 C122.9171875 133.515 122.9171875 133.515 121.8125 132 C115.03232375 124.05380618 105.28206528 119.34558229 96 115 C94.10065499 114.0906319 92.20454497 113.17446072 90.3125 112.25 C89.50425781 111.86328125 88.69601562 111.4765625 87.86328125 111.078125 C86 110 86 110 85 108 C84.4168133 100.76848494 84.4168133 100.76848494 86.5859375 97.91015625 C89.55499425 95.56085406 92.3651225 94.56077042 95.9375 93.3125 C113.51380287 86.73938832 126.83755018 73.89686239 134.94775391 57.02880859 C136.84951261 52.75798991 138.47236427 48.41719755 140 44 C140.40025391 42.86111328 140.40025391 42.86111328 140.80859375 41.69921875 C142.8512523 34.89505269 143.42014139 26.94547844 140.3125 20.5 C133.61009311 13.25415471 127.22240062 12.01397513 117.70019531 11.61254883 C99.87773388 11.22892802 85.44035866 18.20878792 72.47265625 30.375 C64.81793896 38.50133495 59.24665949 47.73466569 54.59912109 57.84594727 C53.01583569 61.24886111 52.19850153 62.86766564 49 65 C44.67637611 65.57104467 42.66437638 65.44291759 39 63 C35.38639525 59.59615595 32.22170678 55.76854045 29 52 C20.86559838 42.74618532 12.45152861 33.91884829 3 26 C2.46552246 25.54641113 1.93104492 25.09282227 1.38037109 24.62548828 C-13.59534235 11.95746791 -29.60622521 1.08079438 -47 -8 C-47.64694824 -8.3398291 -48.29389648 -8.6796582 -48.96044922 -9.02978516 C-75.90817633 -22.97378352 -106.16511162 -30.44597159 -136.48217773 -30.26074219 C-138.56588681 -30.24998251 -140.6487378 -30.2607455 -142.73242188 -30.2734375 C-193.49717535 -30.32820996 -243.15529059 -5.39712276 -279.66796875 28.81640625 C-281.69296081 30.71250434 -283.75866683 32.52040835 -285.875 34.3125 C-294.58200707 41.91101746 -302.64149428 50.19249645 -309.81640625 59.25 C-311.77541143 61.717155 -313.7874421 64.12902053 -315.8269043 66.52978516 C-327.44062877 80.24258602 -335.16893025 91.59466187 -334 110 C-331.09043464 126.17443422 -318.70792983 139.23224094 -308 151 C-306.948125 150.79375 -305.89625 150.5875 -304.8125 150.375 C-304.22082031 150.25898438 -303.62914062 150.14296875 -303.01953125 150.0234375 C-297.45693259 147.20448034 -295.1890373 141.63173219 -293.1875 136.0625 C-287.76667387 121.77588626 -279.83823362 109.40360527 -271.2253418 96.83959961 C-270.23734386 95.35632317 -269.32458495 93.82308927 -268.4375 92.27734375 C-266.69927932 89.52358653 -264.64611344 87.45347247 -262.3125 85.1875 C-261.50425781 84.39730469 -260.69601562 83.60710937 -259.86328125 82.79296875 C-259.24839844 82.20128906 -258.63351562 81.60960937 -258 81 C-259.38736126 77.84375314 -261.00392708 75.80136567 -263.5 73.4375 C-267.01418214 70.09455978 -268.89507376 68.10172549 -269.375 63.0625 C-269.27840517 60.14855609 -269.04439756 59.07399594 -267.5 56.5 C-264.69344562 54.81606737 -262.44065339 54.25696579 -259.15625 54.41015625 C-254.85761612 55.58605066 -252.02394394 58.87570394 -249 62 C-248.175 62.804375 -247.35 63.60875 -246.5 64.4375 C-246.005 64.953125 -245.51 65.46875 -245 66 C-241.68997304 64.56246045 -239.56110536 62.77516456 -237.0625 60.1875 C-236.41410156 59.52105469 -235.76570313 58.85460937 -235.09765625 58.16796875 C-234.40542969 57.45253906 -233.71320313 56.73710937 -233 56 C-218.61886271 41.50362924 -202.87958632 28.50044493 -185.11230469 18.32006836 C-179.57859149 15.06742213 -176.53308921 11.29963381 -173 6 C-172.34 6 -171.68 6 -171 6 C-170.01 5.01 -170.01 5.01 -169 4 C-165.18937149 3.56860809 -162.84666981 3.4962514 -159.51171875 5.48046875 C-156.15270259 8.84993287 -154.79596774 12.28394762 -153.125 16.6875 C-152.78984375 17.5444043 -152.4546875 18.40130859 -152.109375 19.28417969 C-147.94674132 30.27368909 -144.96209854 41.63967891 -142 53 C-141.0821875 52.59007812 -140.164375 52.18015625 -139.21875 51.7578125 C-137.97931194 51.21321093 -136.73972025 50.66895889 -135.5 50.125 C-133.69015625 49.32449219 -133.69015625 49.32449219 -131.84375 48.5078125 C-123.60552889 45.15409844 -116.0803299 44.60827936 -107.25 44.5625 C-105.59484375 44.51319336 -105.59484375 44.51319336 -103.90625 44.46289062 C-91.46246031 44.382561 -81.25428936 49.00417701 -72.35546875 57.5859375 C-58.64116229 72.37655662 -58.39544287 93.03328984 -58.86376953 112.00488281 C-59.59919002 128.17358984 -63.75345306 142.81056542 -76 154 C-81.90742824 158.67259792 -88.07981548 162.45928489 -95.625 163.5 C-99 163 -99 163 -101.9375 161 C-104.79117716 156.84919686 -104.7099846 154.9698922 -104 150 C-101.85034692 146.54186243 -99.42709611 145.74177358 -95.6875 144.625 C-90.0121597 142.87012504 -85.94147833 140.14631858 -82.78515625 135.03125 C-81.67749369 132.72396798 -80.81608667 130.42559094 -80 128 C-79.7009375 127.17242187 -79.401875 126.34484375 -79.09375 125.4921875 C-74.49221878 110.53721104 -75.25713751 90.4656115 -81.25390625 75.96875 C-84.92829688 69.16061477 -89.7127516 65.4290828 -97 63 C-112.46671244 61.61048742 -125.67403622 63.78560269 -139 72 C-138.93071289 72.83805176 -138.86142578 73.67610352 -138.79003906 74.53955078 C-137.05853075 96.81808563 -137.24871825 118.94336542 -141 141 C-141.1556543 141.95326172 -141.31130859 142.90652344 -141.47167969 143.88867188 C-147.01626998 176.84633631 -159.86104529 208.6101967 -179 236 C-175.89668176 236.48476521 -172.7922082 236.96172504 -169.6875 237.4375 C-168.82576172 237.57220703 -167.96402344 237.70691406 -167.07617188 237.84570312 C-146.73516032 240.946006 -126.43995126 241.17890698 -106.18554688 237.40136719 C-104.20778346 237.03815862 -102.22130301 236.7232318 -100.234375 236.4140625 C-73.51156437 231.88177964 -47.23573306 219.2136004 -25 204 C-24.1028125 203.39357666 -24.1028125 203.39357666 -23.1875 202.77490234 C-14.90102612 197.14268963 -7.1515263 191.00598483 0.38745117 184.40771484 C1.51686437 183.42176533 2.65304928 182.44354408 3.79418945 181.47119141 C9.59937945 176.48653072 15.02670382 171.1568951 20.4375 165.75 C21.32759766 164.87214844 22.21769531 163.99429688 23.13476562 163.08984375 C29.1978215 157.04007434 34.6610471 150.6906602 40 144 C41.08148816 142.70850068 42.16690981 141.42027571 43.2578125 140.13671875 C52.50464303 129.10984992 59.72760181 118.63214509 60.11962891 103.77197266 C60.26103642 100.94851356 60.47875632 98.65868804 62.26660156 96.39941406 C65.16595236 93.8292472 66.71047242 93.00998371 70.625 92.875 C74.67894948 94.22631649 75.70703667 95.44960517 78 99 C80.39395516 113.21293063 74.26343196 127.11773874 67 139 C64.72207917 142.07869164 62.3157806 144.93380554 59.7734375 147.796875 C56.4224353 151.57861605 53.45888044 155.64175193 50.4375 159.6875 C46.26952106 165.2201295 42.0183083 170.32672209 36.97265625 175.09765625 C35.02693233 176.97402763 33.30037727 178.93148251 31.5625 181 C28.18696129 184.92775817 24.45518885 188.3247299 20.56640625 191.73828125 C18.96764445 193.14723571 17.38810432 194.57870062 15.83984375 196.04296875 C-24.86870717 234.31044254 -80.05544323 258.60787488 -136.125 258.3125 C-137.26785965 258.30876877 -137.26785965 258.30876877 -138.43380737 258.30496216 C-186.21324976 258.06499601 -240.70919525 240.57973543 -276 207 C-278 204 -278 204 -277.3125 200.0625 C-277.20809691 197.30716629 -277.51484186 195.63525579 -279.20263672 193.42529297 C-286.02476096 185.92091661 -286.02476096 185.92091661 -295 182 C-295.94875 182.20625 -296.8975 182.4125 -297.875 182.625 C-301.94077037 183.11289244 -303.50028222 182.07617801 -307 180 C-309.53515625 177.609375 -309.53515625 177.609375 -312.0625 174.75 C-312.7596814 173.96544434 -312.7596814 173.96544434 -313.47094727 173.16503906 C-314.46973274 172.03708462 -315.46399412 170.90511079 -316.45410156 169.76953125 C-318.01682623 167.98073966 -319.59681235 166.20846818 -321.1796875 164.4375 C-339.87817523 143.37532082 -353.62905234 124.9681142 -352.23828125 95.69238281 C-350.6798369 78.0832391 -338.65076658 64.95525961 -327.74609375 52.07080078 C-326.18031703 50.21384914 -324.63373602 48.34317628 -323.09375 46.46484375 C-312.17021821 33.26605577 -300.04835969 20.46533629 -286.49609375 9.9453125 C-283.78098452 7.82931188 -281.2187884 5.57524387 -278.625 3.3125 C-202.43270457 -60.14818129 -97.45345879 -64.90230423 0 0 Z " fill="#CAE2F9" transform="translate(352,219)"/>
<path d="M0 0 C0.64388672 0.50112305 1.28777344 1.00224609 1.95117188 1.51855469 C15.85864085 12.40708528 28.63021717 24.40756108 41 37 C41.99889442 38.00110436 42.99841647 39.00158604 44 40 C44.38671875 38.92105469 44.38671875 38.92105469 44.78125 37.8203125 C52.56544093 19.80689631 70.2404576 5.70195538 87.96289062 -1.79418945 C104.66187145 -8.38642212 123.7316366 -9.52323745 140.6640625 -2.96875 C149.07353049 1.30823028 155.69902035 8.12278918 159 17 C162.41324837 29.13722097 159.93191088 42.35947436 156 54 C155.649375 55.09828125 155.29875 56.1965625 154.9375 57.328125 C148.24729608 76.56246126 133.99843259 93.02850805 117 104 C117.43755615 104.34144043 117.8751123 104.68288086 118.32592773 105.03466797 C139.74491324 121.83994376 155.96439543 142.22221714 160 170 C160.92021074 179.37390638 161.41306441 188.88883495 156 197 C155.57589844 197.69222656 155.15179688 198.38445312 154.71484375 199.09765625 C148.66171135 208.11834102 139.70847607 212.40669053 129.31640625 214.5546875 C113.12456282 216.72885729 93.83273944 215.69136938 80 206 C77.82829768 203.5243574 77.05963049 202.3503291 76.5 199.0625 C77.18623759 194.85929476 78.61243277 193.52265645 82 191 C87.03522555 189.1873188 90.01341453 190.23400745 94.6875 192.375 C96.05455078 193.06722656 96.05455078 193.06722656 97.44921875 193.7734375 C103.0682937 196.47541228 108.55850211 196.21759287 114.6875 196.25 C115.64333984 196.270625 116.59917969 196.29125 117.58398438 196.3125 C125.22274943 196.35415652 131.92313468 195.55314356 137.9375 190.5625 C141.99810056 185.51751143 142.68244856 181.41326663 142 175 C139.46380694 160.28044912 133.71435579 146.46519899 124 135 C122.9171875 133.515 122.9171875 133.515 121.8125 132 C115.03232375 124.05380618 105.28206528 119.34558229 96 115 C94.10065499 114.0906319 92.20454497 113.17446072 90.3125 112.25 C89.50425781 111.86328125 88.69601562 111.4765625 87.86328125 111.078125 C86 110 86 110 85 108 C84.4168133 100.76848494 84.4168133 100.76848494 86.5859375 97.91015625 C89.55499425 95.56085406 92.3651225 94.56077042 95.9375 93.3125 C113.51380287 86.73938832 126.83755018 73.89686239 134.94775391 57.02880859 C136.84951261 52.75798991 138.47236427 48.41719755 140 44 C140.40025391 42.86111328 140.40025391 42.86111328 140.80859375 41.69921875 C142.8512523 34.89505269 143.42014139 26.94547844 140.3125 20.5 C133.61009311 13.25415471 127.22240062 12.01397513 117.70019531 11.61254883 C99.87773388 11.22892802 85.44035866 18.20878792 72.47265625 30.375 C64.81793896 38.50133495 59.24665949 47.73466569 54.59912109 57.84594727 C53.01583569 61.24886111 52.19850153 62.86766564 49 65 C44.67637611 65.57104467 42.66437638 65.44291759 39 63 C35.38639525 59.59615595 32.22170678 55.76854045 29 52 C20.86559838 42.74618532 12.45152861 33.91884829 3 26 C2.46552246 25.54641113 1.93104492 25.09282227 1.38037109 24.62548828 C-13.59534235 11.95746791 -29.60622521 1.08079438 -47 -8 C-47.64694824 -8.3398291 -48.29389648 -8.6796582 -48.96044922 -9.02978516 C-75.90817633 -22.97378352 -106.16511162 -30.44597159 -136.48217773 -30.26074219 C-138.56588681 -30.24998251 -140.6487378 -30.2607455 -142.73242188 -30.2734375 C-193.49717535 -30.32820996 -243.15529059 -5.39712276 -279.66796875 28.81640625 C-281.69296081 30.71250434 -283.75866683 32.52040835 -285.875 34.3125 C-294.58200707 41.91101746 -302.64149428 50.19249645 -309.81640625 59.25 C-311.77541143 61.717155 -313.7874421 64.12902053 -315.8269043 66.52978516 C-327.44062877 80.24258602 -335.16893025 91.59466187 -334 110 C-331.04737136 126.41382538 -318.49679732 139.03624343 -308 151.25 C-307.17242187 152.21607178 -307.17242187 152.21607178 -306.328125 153.20166016 C-305.54695313 154.09957275 -305.54695313 154.09957275 -304.75 155.015625 C-304.06164062 155.80888184 -304.06164062 155.80888184 -303.359375 156.61816406 C-301.84738442 158.24918103 -301.84738442 158.24918103 -299 160 C-298.41734375 159.49210938 -297.8346875 158.98421875 -297.234375 158.4609375 C-284.06402414 147.40281272 -269.43925945 141.67952056 -252.3125 141.37109375 C-248.09460962 142.17189605 -246.58880867 143.63308059 -244 147 C-243.92780516 151.11510561 -244.325212 153.17284052 -246.9375 156.375 C-250.52203533 159.19917935 -253.11033424 159.1870699 -257.625 159.5625 C-270.14158243 160.97561331 -282.73229094 167.40139144 -291 177 C-291.67149318 178.33090914 -292.33898898 179.6638538 -293 181 C-295.88142734 182.68083261 -297.6607084 183.01413715 -301 182.875 C-306.8658044 181.16414038 -310.16200256 176.8129754 -313.99609375 172.31640625 C-316.19054304 169.77974265 -318.46674497 167.33194163 -320.75 164.875 C-338.76157971 145.08686084 -352.9295697 126.26428067 -352.375 98.5703125 C-351.47100255 79.54116624 -339.4827189 65.93825613 -327.74609375 52.07080078 C-326.18031703 50.21384914 -324.63373602 48.34317628 -323.09375 46.46484375 C-312.17021821 33.26605577 -300.04835969 20.46533629 -286.49609375 9.9453125 C-283.78098452 7.82931188 -281.2187884 5.57524387 -278.625 3.3125 C-202.43270457 -60.14818129 -97.45345879 -64.90230423 0 0 Z " fill="#010101" transform="translate(352,219)"/>
<path d="M0 0 C5.236758 3.1420548 6.79903441 7.21664439 8.875 12.6875 C9.37773437 13.97285645 9.37773437 13.97285645 9.890625 15.28417969 C14.05325868 26.27368909 17.03790146 37.63967891 20 49 C20.9178125 48.59007812 21.835625 48.18015625 22.78125 47.7578125 C24.02068806 47.21321093 25.26027975 46.66895889 26.5 46.125 C27.7065625 45.59132813 28.913125 45.05765625 30.15625 44.5078125 C38.39447111 41.15409844 45.9196701 40.60827936 54.75 40.5625 C55.8534375 40.52962891 56.956875 40.49675781 58.09375 40.46289062 C70.53753969 40.382561 80.74571064 45.00417701 89.64453125 53.5859375 C103.35883771 68.37655662 103.60455713 89.03328984 103.13623047 108.00488281 C102.40080998 124.17358984 98.24654694 138.81056542 86 150 C80.09257176 154.67259792 73.92018452 158.45928489 66.375 159.5 C63 159 63 159 60.0625 157 C57.20882284 152.84919686 57.2900154 150.9698922 58 146 C60.14965308 142.54186243 62.57290389 141.74177358 66.3125 140.625 C71.9878403 138.87012504 76.05852167 136.14631858 79.21484375 131.03125 C80.32250631 128.72396798 81.18391333 126.42559094 82 124 C82.2990625 123.17242187 82.598125 122.34484375 82.90625 121.4921875 C87.50778122 106.53721104 86.74286249 86.4656115 80.74609375 71.96875 C77.07170312 65.16061477 72.2872484 61.4290828 65 59 C49.53328756 57.61048742 36.32596378 59.78560269 23 68 C23.06928711 68.83805176 23.13857422 69.67610352 23.20996094 70.53955078 C24.94146925 92.81808563 24.75128175 114.94336542 21 137 C20.8443457 137.95326172 20.68869141 138.90652344 20.52832031 139.88867188 C14.98373002 172.84633631 2.13895471 204.6101967 -17 232 C-13.89668176 232.48476521 -10.7922082 232.96172504 -7.6875 233.4375 C-6.39489258 233.63956055 -6.39489258 233.63956055 -5.07617188 233.84570312 C15.26483968 236.946006 35.56004874 237.17890698 55.81445312 233.40136719 C57.79221654 233.03815862 59.77869699 232.7232318 61.765625 232.4140625 C88.48843563 227.88177964 114.76426694 215.2136004 137 200 C137.598125 199.59571777 138.19625 199.19143555 138.8125 198.77490234 C147.09897388 193.14268963 154.8484737 187.00598483 162.38745117 180.40771484 C163.51686437 179.42176533 164.65304928 178.44354408 165.79418945 177.47119141 C171.59937945 172.48653072 177.02670382 167.1568951 182.4375 161.75 C183.32759766 160.87214844 184.21769531 159.99429688 185.13476562 159.08984375 C191.1978215 153.04007434 196.6610471 146.6906602 202 140 C203.08148816 138.70850068 204.16690981 137.42027571 205.2578125 136.13671875 C214.50464303 125.10984992 221.72760181 114.63214509 222.11962891 99.77197266 C222.26103642 96.94851356 222.47875632 94.65868804 224.26660156 92.39941406 C227.16595236 89.8292472 228.71047242 89.00998371 232.625 88.875 C236.67894948 90.22631649 237.70703667 91.44960517 240 95 C242.39395516 109.21293063 236.26343196 123.11773874 229 135 C226.72207917 138.07869164 224.3157806 140.93380554 221.7734375 143.796875 C218.4224353 147.57861605 215.45888044 151.64175193 212.4375 155.6875 C208.26952106 161.2201295 204.0183083 166.32672209 198.97265625 171.09765625 C197.02693233 172.97402763 195.30037727 174.93148251 193.5625 177 C190.18696129 180.92775817 186.45518885 184.3247299 182.56640625 187.73828125 C180.96764445 189.14723571 179.38810432 190.57870062 177.83984375 192.04296875 C137.13129283 230.31044254 81.94455677 254.60787488 25.875 254.3125 C24.73214035 254.30876877 24.73214035 254.30876877 23.56619263 254.30496216 C-24.21324976 254.06499601 -78.70919525 236.57973543 -114 203 C-116.34549674 199.48175489 -116.57991403 198.14224306 -116 194 C-114 191.125 -114 191.125 -111 189 C-103.51484684 187.95837675 -99.80950276 190.54001026 -93.9375 194.9375 C-92.25485055 196.14116734 -90.56992934 197.34166491 -88.8828125 198.5390625 C-88.05555664 199.13106445 -87.22830078 199.72306641 -86.37597656 200.33300781 C-72.91284278 209.77878232 -50.78792619 225 -34 225 C-32.22688006 222.91891713 -30.82095429 220.98393099 -29.375 218.6875 C-28.941875 218.01307861 -28.50875 217.33865723 -28.0625 216.64379883 C-5.88167708 181.46139167 5.71035913 141.10991226 5.33618164 99.55078125 C5.31238746 96.73669016 5.31568363 93.92354298 5.32226562 91.109375 C5.30002027 75.66941084 4.07450041 60.78720428 0.375 45.75 C0.12282715 44.70078369 -0.1293457 43.65156738 -0.38916016 42.57055664 C-2.43950022 34.41285991 -5.15525272 26.63256815 -8.45947266 18.89941406 C-10.65002365 13.6425189 -11.51903488 9.70938366 -11 4 C-8.1553332 -0.55146687 -5.11689336 -0.71816047 0 0 Z " fill="#020203" transform="translate(190,223)"/>
<path d="M0 0 C1.42626953 1.62060547 1.42626953 1.62060547 2.8828125 3.8671875 C3.41003906 4.67027344 3.93726563 5.47335938 4.48046875 6.30078125 C5.02316406 7.15027344 5.56585938 7.99976563 6.125 8.875 C6.67542969 9.71675781 7.22585937 10.55851563 7.79296875 11.42578125 C12.13442901 18.09264283 13.66046049 21.92493588 13 30 C10.32939424 38.16891173 2.49109658 42.51863123 -4.5625 46.6875 C-16.33235701 53.85610205 -26.71754186 62.64072089 -37.16015625 71.58984375 C-38.96150766 73.11863855 -40.78990014 74.61656417 -42.65234375 76.0703125 C-44.87261546 77.89529457 -46.65593678 79.74115112 -48.5 81.9375 C-51.21175857 85.11209701 -54.0035289 88.09433105 -57 91 C-60.42280517 89.53417985 -62.56480483 87.61937745 -65.125 84.9375 C-69.17799762 80.69587893 -69.17799762 80.69587893 -74.9375 79.75 C-77.40763496 79.80379604 -78.77295937 79.88647968 -81 81 C-82.74038134 84.48076268 -83.09870281 87.32736981 -82 91 C-79.90621038 93.80433268 -77.6416545 96.23339837 -75.1640625 98.703125 C-73.21660111 100.77010568 -72.08316337 102.40516908 -71 105 C-71.74765625 105.70125 -72.4953125 106.4025 -73.265625 107.125 C-74.26095691 108.08277222 -75.25571809 109.0411378 -76.25 110 C-76.74113281 110.45761719 -77.23226562 110.91523438 -77.73828125 111.38671875 C-81.071816 114.63135924 -83.06972312 117.79152761 -85.02099609 122.00048828 C-86.5879078 125.20073937 -88.6467586 128.02601005 -90.6875 130.9375 C-97.4945416 140.91515318 -103.28725328 151.45416869 -107.75 162.6875 C-109.62410952 167.33452667 -111.26146972 170.61752022 -115 174 C-117.3156239 174.72579257 -119.64869612 175.39978425 -122 176 C-127.69940783 170.05332936 -132.98024031 163.93864853 -137.875 157.3125 C-138.55236206 156.40552368 -138.55236206 156.40552368 -139.2434082 155.48022461 C-147.00234823 144.80319506 -150.25299346 134.26606827 -149 121 C-145.27254888 104.92536705 -131.92915645 91.05157063 -121.02734375 79.2109375 C-119.2385666 77.26017089 -117.52156881 75.27019605 -115.8125 73.25 C-107.94998331 64.23015024 -99.25251872 55.58804445 -90 48 C-89.50516113 47.5860498 -89.01032227 47.17209961 -88.50048828 46.74560547 C-66.71461813 28.56018356 -29.83558752 0 0 0 Z " fill="#ECF5FD" transform="translate(166,195)"/>
<path d="M0 0 C0.33 0 0.66 0 1 0 C2.42846485 16.76065429 -4.78271103 34.33486444 -15 47.4375 C-16.31584655 48.97348817 -17.64788511 50.49584006 -19 52 C-19.51820313 52.61101562 -20.03640625 53.22203125 -20.5703125 53.8515625 C-28.5044254 62.58307368 -39.30506653 68.25076198 -50.35546875 71.9296875 C-52.99295714 72.99714957 -54.35129037 73.7017987 -56 76 C-56.4714296 77.94457312 -56.4714296 77.94457312 -56.375 80 C-56.38273437 80.680625 -56.39046875 81.36125 -56.3984375 82.0625 C-55.85428895 84.7085557 -55.17988155 85.37491796 -53 87 C-50.48995251 88.15103199 -47.99517978 89.21890585 -45.4375 90.25 C-38.64669491 93.10896552 -32.77733823 96.37186106 -27 101 C-26.31808594 101.51949219 -25.63617188 102.03898437 -24.93359375 102.57421875 C-10.45308289 114.27764534 -1.40423252 132.73707987 1 151 C1.1134375 151.85335937 1.226875 152.70671875 1.34375 153.5859375 C1.69008771 158.65978489 0.48013159 162.1187293 -2.44140625 166.2734375 C-6.73043422 171.02469154 -12.15372617 172.71781537 -18.41259766 173.17700195 C-40.52872719 173.71878885 -40.52872719 173.71878885 -51.0546875 167.85546875 C-54.21698898 166.4648181 -56.71383117 167.23713938 -60 168 C-62.18247497 169.48530233 -62.18247497 169.48530233 -64 171 C-74.77949829 162.64968442 -82.54374786 154.41557983 -90 143 C-90.62390625 142.12601563 -91.2478125 141.25203125 -91.890625 140.3515625 C-92.25671875 139.57554687 -92.6228125 138.79953125 -93 138 C-91.83626408 135.05184387 -90.11523687 132.69116292 -88.171875 130.20703125 C-87.62208984 129.49885254 -87.07230469 128.79067383 -86.50585938 128.06103516 C-85.63670898 126.94801025 -85.63670898 126.94801025 -84.75 125.8125 C-73.2660755 110.91163731 -64.31784222 97.35977398 -64.61328125 77.90625 C-64.80875674 74.74870791 -64.80875674 74.74870791 -67.25 71.75 C-69.74851875 69.88907719 -69.74851875 69.88907719 -72.0234375 69.73046875 C-74 69 -74 69 -75.2734375 66.62890625 C-75.63695312 65.61699219 -76.00046875 64.60507812 -76.375 63.5625 C-78.6667268 57.60115459 -81.54918753 52.36002487 -85 47 C-83.62908203 46.65775391 -83.62908203 46.65775391 -82.23046875 46.30859375 C-78.4290905 44.76873678 -77.49072388 43.47423493 -75.3125 40.0625 C-63.93543066 23.60022542 -47.60739533 12.65142732 -28.05078125 8.3515625 C-24.22807923 7.91104626 -20.47005738 7.81592087 -16.625 7.8125 C-15.54992187 7.79413086 -15.54992187 7.79413086 -14.453125 7.77539062 C-9.32539573 7.76150688 -4.93155272 8.59178009 0 10 C0 6.7 0 3.4 0 0 Z " fill="#9DC6EE" transform="translate(494,243)"/>
<path d="M0 0 C9.05854308 7.65067135 11.83604944 18.19194551 12.91015625 29.61328125 C13.51756937 40.84128992 13.7684822 51.90684431 9.91015625 62.61328125 C9.64332031 63.42925781 9.37648438 64.24523437 9.1015625 65.0859375 C6.48456327 72.052971 1.98844638 76.70530926 -4.76171875 79.86328125 C-6.48971178 80.54249238 -8.23155061 81.1880757 -9.98828125 81.7890625 C-12.26266493 82.51936066 -12.26266493 82.51936066 -14.08984375 84.61328125 C-14.48748638 86.60149438 -14.82759724 88.60272464 -15.08984375 90.61328125 C-27.39810124 89.84484321 -37.99871474 88.28143951 -49.08984375 82.61328125 C-49.899375 82.24332031 -50.70890625 81.87335938 -51.54296875 81.4921875 C-53.45564261 79.16896495 -53.26638716 78.4205967 -53.078125 75.48046875 C-52.87442974 73.81362908 -52.64820325 72.14942524 -52.40234375 70.48828125 C-52.29728516 69.67101562 -52.19222656 68.85375 -52.08398438 68.01171875 C-51.6756722 64.84542067 -51.24474784 61.68274407 -50.78710938 58.52319336 C-49.9150363 51.84854052 -49.93842426 45.18208434 -49.95947266 38.45874023 C-49.96478763 36.44702454 -49.95952309 34.43553666 -49.953125 32.42382812 C-49.96162328 23.76832532 -50.35247958 15.235739 -51.08984375 6.61328125 C-37.3476138 -2.49691318 -15.43885186 -9.66630055 0 0 Z " fill="#9DC5EE" transform="translate(263.08984375,284.38671875)"/>
<path d="M0 0 C0.70799744 0.00087616 1.41599487 0.00175232 2.14544678 0.00265503 C31.12684196 0.11957749 57.81681273 6.70182065 84.25 18.375 C84.25 19.695 84.25 21.015 84.25 22.375 C82.25 24.375 82.25 24.375 80.37081909 24.60205078 C79.60633453 24.59157715 78.84184998 24.58110352 78.05419922 24.5703125 C77.18503876 24.56370605 76.3158783 24.55709961 75.42037964 24.55029297 C74.47470123 24.53369629 73.52902283 24.51709961 72.5546875 24.5 C71.08432541 24.48864014 71.08432541 24.48864014 69.58425903 24.47705078 C65.38945772 24.44446883 61.19504618 24.38904655 57.00048828 24.33398438 C33.20748375 24.04827283 7.74314316 25.76310392 -14.3671875 35.53125 C-18.40311205 36.96036427 -22.46805077 36.35252592 -26.69140625 36.15234375 C-30.06840526 36.39817893 -31.31678189 37.09646079 -33.75 39.375 C-33.70617187 38.694375 -33.66234375 38.01375 -33.6171875 37.3125 C-33.64366547 27.35678313 -38.12109224 20.99593605 -43.58105469 13.09423828 C-45.06646046 10.90956254 -46.42161864 8.65788055 -47.75 6.375 C-45.23135686 5.73994432 -42.71055826 5.11708797 -40.1875 4.5 C-39.50236328 4.32597656 -38.81722656 4.15195313 -38.11132812 3.97265625 C-25.53227581 0.92660771 -12.90866847 -0.03960419 0 0 Z " fill="#C9E1F8" transform="translate(212.75,187.625)"/>
<path d="M0 0 C4.29863388 1.17589441 7.13230606 4.46554769 10.15625 7.58984375 C11.39375 8.79640625 11.39375 8.79640625 12.65625 10.02734375 C13.15125 10.54296875 13.64625 11.05859375 14.15625 11.58984375 C17.83030451 10.0838124 19.80156552 7.91619486 22.40625 4.96484375 C27.34335043 -0.06969945 27.34335043 -0.06969945 31.40625 -0.28515625 C35.88897117 0.76081202 37.53368169 1.8199018 40.15625 5.58984375 C40.90625 8.40234375 40.90625 8.40234375 40.15625 11.58984375 C38.06554081 14.49587129 35.63209648 17.01168957 33.15625 19.58984375 C32.16582788 20.74697058 31.18505717 21.91250398 30.21875 23.08984375 C29.538125 23.91484375 28.8575 24.73984375 28.15625 25.58984375 C28.85492188 26.27691406 29.55359375 26.96398437 30.2734375 27.671875 C31.63855469 29.02345703 31.63855469 29.02345703 33.03125 30.40234375 C33.93617187 31.29566406 34.84109375 32.18898438 35.7734375 33.109375 C38.43965849 35.88486734 40.02725861 37.60090979 40.53125 41.46484375 C40.05457332 45.43714945 39.1278591 46.92301507 36.15625 49.58984375 C32.90625 50.77734375 32.90625 50.77734375 29.15625 50.58984375 C26.15649521 48.96005571 23.70539116 46.84523622 21.15625 44.58984375 C20.1353125 43.72939453 20.1353125 43.72939453 19.09375 42.8515625 C17.43291459 41.44855839 15.79244152 40.02151133 14.15625 38.58984375 C13.44339844 39.37230469 12.73054688 40.15476562 11.99609375 40.9609375 C11.02947852 41.98386041 10.06198344 43.0059524 9.09375 44.02734375 C8.62775391 44.54361328 8.16175781 45.05988281 7.68164062 45.59179688 C4.04690677 49.37488721 1.3627442 50.42209274 -3.84375 50.58984375 C-7.24183026 49.48776367 -7.79106917 48.66886499 -9.84375 45.58984375 C-10.93775657 40.87720007 -10.93775657 40.87720007 -9.84375 37.58984375 C-6.49433171 33.54285186 -2.77617929 30.06263845 1.15625 26.58984375 C-0.23111126 23.43359689 -1.84767708 21.39120942 -4.34375 19.02734375 C-7.85793214 15.68440353 -9.73882376 13.69156924 -10.21875 8.65234375 C-10.12215517 5.73839984 -9.88814756 4.66383969 -8.34375 2.08984375 C-5.53719562 0.40591112 -3.28440339 -0.15319046 0 0 Z " fill="#040505" transform="translate(92.84375,273.41015625)"/>
<path d="M0 0 C3 2.0625 3 2.0625 5 5 C5.6245104 10.87901168 4.16599252 14.6652925 1.5625 19.75 C-2.82195349 28.62309202 -4.75095776 36.62813324 -2.38671875 46.58203125 C-1.39490244 49.1467721 -0.24819101 51.54831903 1 54 C1.67151471 55.35500242 2.34200091 56.71051482 3.01171875 58.06640625 C4.42023871 60.90696388 5.85004341 63.73538916 7.29296875 66.55859375 C9.66454357 71.339732 10.46044076 74.6588872 10 80 C8.20437595 82.75329021 6.94745078 84.52627461 4 86 C0.44444572 86.39506159 -1.41682654 86.36402494 -4.484375 84.44921875 C-7.52912537 81.48484222 -8.91278165 78.37952046 -10.4375 74.5 C-11.03209092 73.05342375 -11.6297785 71.60811667 -12.23046875 70.1640625 C-12.5248584 69.45411133 -12.81924805 68.74416016 -13.12255859 68.01269531 C-14.34266389 65.21398969 -15.79346574 62.55675788 -17.25 59.875 C-23.56786044 47.35784486 -24.4225573 34.35168251 -20.375 21 C-11.92058571 -2.22641289 -11.92058571 -2.22641289 0 0 Z " fill="#000000" transform="translate(356,64)"/>
<path d="M0 0 C4.72299647 2.92166758 6.2358244 6.27486917 7.875 11.375 C9.79509387 16.93952229 11.95020342 22.09722967 14.6875 27.3125 C20.54627174 38.73192014 22.90346651 48.93285091 19.375 61.4375 C14.24888959 76.8340736 14.24888959 76.8340736 8 81 C3.09512657 81.55377603 1.10020612 81.75639171 -3 78.9375 C-5.6465449 75.05038718 -5.81370688 73.66032123 -5 69 C-4.06473748 67.0409294 -3.08025565 65.10501064 -2.0625 63.1875 C1.2662392 56.83047787 3.04862639 51.63565182 1.43359375 44.49609375 C-0.73918239 37.95827856 -3.97523586 31.82893774 -7.18139648 25.74560547 C-10.46976183 19.42541954 -12.80459479 13.2413531 -12 6 C-8.59923278 0.78549026 -6.21541624 -0.60935453 0 0 Z " fill="#000000" transform="translate(115,76)"/>
<path d="M0 0 C4.31940841 2.05686115 5.66627545 5.02076371 7.3125 9.3125 C11.14322131 22.1493253 9.49986306 34.08449591 3.5390625 45.89453125 C-0.76818127 53.53606271 -0.76818127 53.53606271 -5 55 C-8.535 55.1424856 -11.86538727 54.65880739 -14.9375 52.875 C-16.60206654 49.93752963 -16.77607766 47.35539021 -17 44 C-15.8203125 40.578125 -15.8203125 40.578125 -14.125 37.25 C-13.57070312 36.14140625 -13.01640625 35.0328125 -12.4453125 33.890625 C-11.96835938 32.93671875 -11.49140625 31.9828125 -11 31 C-8.8936039 24.68081169 -9.89723913 19.17686005 -12 13 C-12.39057632 10.13763357 -12.28450009 7.93983426 -12 5 C-8.53870498 0.50031647 -5.60476862 -0.54948712 0 0 Z " fill="#000000" transform="translate(253,95)"/>
<path d="M0 0 C2.9375 1.4375 2.9375 1.4375 5 4 C6.28799177 11.37668012 3.79835357 16.21579286 0.51953125 22.7734375 C-0.8613489 25.70558919 -1.80020909 28.43843165 -2.625 31.5625 C-3.68845535 35.34913869 -4.58258664 37.75427122 -8 40 C-11.67411992 41.19808258 -13.54547438 41.13985404 -17.25 40 C-20.06072554 37.95583597 -21.25294645 36.62656004 -21.93359375 33.1875 C-22.18058256 25.05139789 -18.55941649 17.58249419 -15.0625 10.4375 C-14.72686035 9.74664307 -14.3912207 9.05578613 -14.04541016 8.34399414 C-10.57087897 1.55866633 -7.78451643 -0.95599325 0 0 Z " fill="#000000" transform="translate(251,35)"/>
</svg>
