<?xml version="1.0" encoding="UTF-8"?>
<svg version="1.1" xmlns="http://www.w3.org/2000/svg" width="512" height="512">
<path d="M0 0 C0.65175249 -0.00581376 1.30350497 -0.01162753 1.97500753 -0.01761746 C4.16842374 -0.03226594 6.36072934 -0.01831103 8.55413818 -0.00457001 C10.13866881 -0.00917704 11.72319517 -0.01552863 13.30771255 -0.02347898 C17.66927279 -0.04022269 22.03048426 -0.0319032 26.39204597 -0.01953411 C31.09287032 -0.01050648 35.7936335 -0.02444195 40.4944458 -0.0354538 C49.70624226 -0.05326811 58.91790858 -0.04938609 68.1297102 -0.03780323 C75.61433673 -0.02878062 83.09892672 -0.02753982 90.58355713 -0.0318985 C91.64759899 -0.03251143 92.71164086 -0.03312436 93.80792642 -0.03375587 C95.96930537 -0.03503473 98.13068431 -0.03633158 100.29206324 -0.03764623 C120.57353582 -0.04906057 140.85493615 -0.03592495 161.13639688 -0.01444477 C178.55009424 0.00342698 195.96368494 0.00032311 213.37738037 -0.01811981 C233.58479952 -0.03951147 253.79215531 -0.04796185 273.9995842 -0.03567076 C276.15314483 -0.03439652 278.30670547 -0.03313904 280.46026611 -0.0318985 C282.04977943 -0.03097285 282.04977943 -0.03097285 283.67140412 -0.03002849 C291.1496242 -0.02657047 298.62780419 -0.03241366 306.10601807 -0.04181671 C315.21578288 -0.05301915 324.32540978 -0.0500337 333.43515873 -0.02869374 C338.08577124 -0.01815962 342.73615356 -0.01410154 347.38676453 -0.02729034 C351.64048136 -0.03917141 355.89375369 -0.03272305 360.14742994 -0.01138014 C361.68976255 -0.00689579 363.23213238 -0.00922121 364.77444124 -0.01888329 C366.86477557 -0.03097846 368.95357047 -0.01864547 371.04382324 0 C372.20663692 0.00064941 373.36945061 0.00129882 374.56750107 0.00196791 C378.14907441 0.60980113 379.32549154 1.66626402 381.52191162 4.50336456 C382.02413368 6.62192154 382.02413368 6.62192154 382.0274353 8.9388504 C382.03845779 9.82154099 382.04948029 10.70423157 382.06083679 11.61367035 C382.05266434 12.57468155 382.04449188 13.53569275 382.03607178 14.5258255 C382.04675941 16.05359871 382.04675941 16.05359871 382.05766296 17.61223602 C382.07699425 20.98759943 382.0686491 24.36233881 382.06097412 27.73773956 C382.0708836 30.09266827 382.08282579 32.44758923 382.09671021 34.80249786 C382.12914158 41.01721211 382.13946739 47.23175031 382.14355469 53.44654083 C382.15228804 63.35031797 382.18819265 73.25394947 382.23572922 83.15760803 C382.24819519 86.59825454 382.2475653 90.03871351 382.24545288 93.47937775 C382.30189433 124.96636656 388.45988509 146.44324888 411.11297607 169.11859894 C417.36686365 175.34441261 423.63803393 181.55296817 429.93011475 187.74018097 C454.35241991 211.77846049 454.35241991 211.77846049 460.83441162 225.44086456 C461.15998047 226.10908234 461.48554932 226.77730011 461.82098389 227.46576691 C467.33030984 239.09733306 469.65280178 250.31735588 469.72723389 263.09857941 C469.73713348 264.15284119 469.74703308 265.20710297 469.75723267 266.29331207 C469.78873972 269.76695281 469.81356239 273.2406072 469.83831787 276.71430206 C469.85889672 279.12711689 469.87989343 281.53992819 469.90129089 283.9527359 C469.95641541 290.29514452 470.00586708 296.63758515 470.05413818 302.98004913 C470.1044235 309.45529776 470.16007284 315.93050004 470.215271 322.40570831 C470.32273489 335.10488718 470.42438814 347.80410566 470.52191162 360.50336456 C471.2608667 360.75513458 471.99982178 361.0069046 472.76116943 361.26630402 C473.73924561 361.60879181 474.71732178 361.9512796 475.72503662 362.30414581 C476.6908667 362.63841583 477.65669678 362.97268585 478.65179443 363.31708527 C488.51621368 367.39425549 495.9188506 376.03341357 499.95941162 385.75336456 C501.9294954 391.80007191 502.69427235 398.21916627 501.52191162 404.50336456 C499.74066162 406.88227081 499.74066162 406.88227081 497.52191162 408.50336456 C496.20191162 408.50336456 494.88191162 408.50336456 493.52191162 408.50336456 C493.52191162 411.14336456 493.52191162 413.78336456 493.52191162 416.50336456 C494.47066162 416.60648956 495.41941162 416.70961456 496.39691162 416.81586456 C499.52191162 417.50336456 499.52191162 417.50336456 501.52191162 420.50336456 C502.1925703 427.54528073 502.1925703 427.54528073 499.77191162 431.00336456 C497.52191162 432.50336456 497.52191162 432.50336456 493.52191162 432.50336456 C493.52191162 438.44336456 493.52191162 444.38336456 493.52191162 450.50336456 C495.50191162 450.83336456 497.48191162 451.16336456 499.52191162 451.50336456 C501.97260008 455.17939725 502.22823411 458.2309749 501.52191162 462.50336456 C499.0134655 465.99727167 497.7846087 466.43769029 493.52191162 467.50336456 C493.52191162 472.45336456 493.52191162 477.40336456 493.52191162 482.50336456 C495.50191162 482.83336456 497.48191162 483.16336456 499.52191162 483.50336456 C501.97534577 487.18351579 502.22018017 490.2275473 501.52191162 494.50336456 C499.47565847 497.45906356 498.23207097 498.30968474 494.77191162 499.25336456 C494.02941162 499.33586456 493.28691162 499.41836456 492.52191162 499.50336456 C492.52191162 501.15336456 492.52191162 502.80336456 492.52191162 504.50336456 C491.73429443 504.51754425 490.94667725 504.53172394 490.13519287 504.54633331 C482.63918601 504.87456083 476.65864017 506.23660532 469.78753662 509.24945831 C462.76624724 511.94543187 455.90244338 512.81799215 448.42034912 512.83930206 C447.58081696 512.84595886 446.74128479 512.85261566 445.87631226 512.85947418 C444.10992599 512.8695313 442.34350227 512.87429337 440.5770874 512.87397003 C437.92391623 512.87832029 435.27244341 512.9146499 432.61956787 512.95258331 C420.93688723 513.03039323 410.04842129 512.21077802 399.38348389 506.95743561 C395.08860693 505.11396141 391.11016217 505.06681638 386.48822021 505.08344269 C385.61075134 505.07497314 384.73328247 505.0665036 383.82922363 505.0577774 C380.94278249 505.03447702 378.05687702 505.033384 375.17034912 505.03461456 C373.1488321 505.02750604 371.12731708 505.01980603 369.10580444 505.01154327 C364.87091467 504.99811236 360.63621123 504.99652224 356.40130615 505.002388 C351.0047994 505.00826611 345.6091979 504.97776406 340.21286583 504.93727112 C336.03635946 504.91126623 331.86006691 504.90852857 327.68349075 504.91216278 C325.69579428 504.91048178 323.70808683 504.90093882 321.72047043 504.88301849 C309.96387068 504.78872326 301.31918583 505.63266491 290.52191162 510.50336456 C284.52066836 512.36177334 278.6729557 512.82149388 272.42034912 512.83930206 C271.58081696 512.84595886 270.74128479 512.85261566 269.87631226 512.85947418 C268.10992599 512.8695313 266.34350227 512.87429337 264.5770874 512.87397003 C261.92391623 512.87832029 259.27244341 512.9146499 256.61956787 512.95258331 C244.93688723 513.03039323 234.04842129 512.21077802 223.38348389 506.95743561 C219.08860693 505.11396141 215.11016217 505.06681638 210.48822021 505.08344269 C209.61075134 505.07497314 208.73328247 505.0665036 207.82922363 505.0577774 C204.94278249 505.03447702 202.05687702 505.033384 199.17034912 505.03461456 C197.1488321 505.02750604 195.12731708 505.01980603 193.10580444 505.01154327 C188.87091467 504.99811236 184.63621123 504.99652224 180.40130615 505.002388 C175.0047994 505.00826611 169.6091979 504.97776406 164.21286583 504.93727112 C160.03635946 504.91126623 155.86006691 504.90852857 151.68349075 504.91216278 C149.69579428 504.91048178 147.70808683 504.90093882 145.72047043 504.88301849 C133.96387068 504.78872326 125.31918583 505.63266491 114.52191162 510.50336456 C108.52066836 512.36177334 102.6729557 512.82149388 96.42034912 512.83930206 C95.58081696 512.84595886 94.74128479 512.85261566 93.87631226 512.85947418 C92.10992599 512.8695313 90.34350227 512.87429337 88.5770874 512.87397003 C85.92391623 512.87832029 83.27244341 512.9146499 80.61956787 512.95258331 C68.90823937 513.03058403 57.97547225 512.2174197 47.30438232 506.90009308 C42.4887306 504.79770477 37.5143032 505.02426935 32.33831787 504.99164581 C31.28281235 504.97369461 30.22730682 504.95574341 29.13981628 504.93724823 C25.78805465 504.88332097 22.436434 504.84930539 19.08441162 504.81586456 C16.80379312 504.78267604 14.52319318 504.74818496 12.24261475 504.71234894 C6.66917351 504.62760468 1.09571362 504.55918068 -4.47808838 504.50336456 C-4.47808838 501.86336456 -4.47808838 499.22336456 -4.47808838 496.50336456 C-5.28246338 496.21461456 -6.08683838 495.92586456 -6.91558838 495.62836456 C-9.47808838 494.50336456 -9.47808838 494.50336456 -10.47808838 492.50336456 C-11.06061265 485.28006359 -11.06061265 485.28006359 -8.60308838 482.00336456 C-6.47808838 480.50336456 -6.47808838 480.50336456 -4.47808838 480.50336456 C-4.47808838 475.22336456 -4.47808838 469.94336456 -4.47808838 464.50336456 C-6.12808838 463.84336456 -7.77808838 463.18336456 -9.47808838 462.50336456 C-11.0745225 459.31049633 -10.99179288 455.96915763 -10.47808838 452.50336456 C-8.60308838 450.00336456 -8.60308838 450.00336456 -6.47808838 448.50336456 C-5.81808838 448.50336456 -5.15808838 448.50336456 -4.47808838 448.50336456 C-4.47808838 445.53336456 -4.47808838 442.56336456 -4.47808838 439.50336456 C-3.81808838 439.50336456 -3.15808838 439.50336456 -2.47808838 439.50336456 C-2.47808838 434.55336456 -2.47808838 429.60336456 -2.47808838 424.50336456 C-4.45808838 424.17336456 -6.43808838 423.84336456 -8.47808838 423.50336456 C-10.92931343 419.82652698 -11.18306192 416.77619203 -10.47808838 412.50336456 C-8.72808838 410.00336456 -8.72808838 410.00336456 -6.47808838 408.50336456 C-5.15808838 408.50336456 -3.83808838 408.50336456 -2.47808838 408.50336456 C-2.47808838 403.22336456 -2.47808838 397.94336456 -2.47808838 392.50336456 C-4.45808838 392.17336456 -6.43808838 391.84336456 -8.47808838 391.50336456 C-11.58516431 386.84275067 -10.84667303 382.04777944 -10.85308838 376.56586456 C-10.87758057 375.46822784 -10.90207275 374.37059113 -10.92730713 373.23969269 C-10.93117432 372.18330597 -10.9350415 371.12691925 -10.93902588 370.03852081 C-10.94724365 369.07309357 -10.95546143 368.10766632 -10.96392822 367.1129837 C-10.33445127 363.73183839 -9.21211347 362.53930872 -6.47808838 360.50336456 C-5.15808838 360.50336456 -3.83808838 360.50336456 -2.47808838 360.50336456 C-2.47808838 355.22336456 -2.47808838 349.94336456 -2.47808838 344.50336456 C-4.45808838 344.17336456 -6.43808838 343.84336456 -8.47808838 343.50336456 C-10.75188308 340.09267251 -10.72981207 338.90235798 -10.73535728 334.8979578 C-10.74180618 333.72403054 -10.74825507 332.55010327 -10.75489938 331.34060246 C-10.75180218 330.04471083 -10.74870497 328.74881921 -10.74551392 327.41365814 C-10.74924853 326.0279843 -10.7538493 324.64231256 -10.75924456 323.25664419 C-10.7715132 319.44019185 -10.77120958 315.62382691 -10.76885581 311.80735934 C-10.76844862 307.69480887 -10.77947735 303.58228678 -10.78897095 299.46974945 C-10.80560266 291.40955739 -10.81108146 283.34939457 -10.8121957 275.28918678 C-10.81314507 268.73989782 -10.81724979 262.19061853 -10.82359695 255.64133263 C-10.84121464 237.08590527 -10.8504349 218.53050108 -10.84893601 199.9750653 C-10.84885609 198.97418189 -10.84877618 197.97329848 -10.84869385 196.94208527 C-10.84861209 195.93998445 -10.84853032 194.93788363 -10.84844609 193.90541612 C-10.84763285 177.65788831 -10.8667786 161.41045314 -10.89497058 145.16295213 C-10.92366831 128.49288829 -10.93751262 111.82286966 -10.93578303 95.15278047 C-10.93511809 85.78862024 -10.94065585 76.42455712 -10.96213913 67.06041908 C-10.98030999 59.08882978 -10.98473206 51.11738163 -10.97112028 43.14578063 C-10.96457004 39.07640494 -10.964547 35.00730038 -10.98182678 30.93795013 C-10.99747239 27.21525962 -10.99478215 23.49305711 -10.97725852 19.77037912 C-10.97270238 17.78019508 -10.98791242 15.78999641 -11.00373781 13.79987007 C-10.99454022 12.62333506 -10.98534262 11.44680005 -10.97586632 10.23461246 C-10.97651842 8.70829774 -10.97651842 8.70829774 -10.9771837 7.15114838 C-9.78987032 0.85225312 -5.8083093 0.00324383 0 0 Z " fill="#010101" transform="translate(10.47808837890625,-0.5033645629882813)"/>
<path d="M0 0 C23.76 0 47.52 0 72 0 C72.02578125 7.46625 72.0515625 14.9325 72.078125 22.625 C72.1033206 27.38284581 72.12967455 32.14062976 72.16015625 36.8984375 C72.20832468 44.43392084 72.25243181 51.96926079 72.27099609 59.50488281 C72.28624966 65.58699458 72.3208484 71.66872872 72.36830902 77.75067139 C72.38303355 80.05959777 72.39103582 82.36857809 72.39188385 84.67755127 C72.4014914 97.73168915 72.93574012 109.52061856 77 122 C77.37763489 123.16950195 77.75526978 124.33900391 78.14434814 125.54394531 C84.58975073 144.58109485 98.85135669 157.98922762 112.82421875 171.74609375 C114.14148705 173.04469833 114.14148705 173.04469833 115.48536682 174.36953735 C119.137637 177.9672136 122.79055672 181.56390927 126.46313477 185.14086914 C144.18871169 202.4270338 159.79687798 220.01424904 160.22705078 246.18408203 C160.22673852 248.45868344 160.21570322 250.73330247 160.1953125 253.0078125 C160.1924826 254.2144455 160.18965271 255.42107849 160.18673706 256.66427612 C160.17562141 260.4846221 160.15053273 264.30472594 160.125 268.125 C160.11495907 270.72916326 160.10583518 273.33333023 160.09765625 275.9375 C160.07571033 282.29174804 160.04231937 288.64585671 160 295 C159.52727158 294.58808411 159.05454315 294.17616821 158.56748962 293.75177002 C157.94314529 293.21139099 157.31880096 292.67101196 156.67553711 292.11425781 C156.05843369 291.57859192 155.44133026 291.04292603 154.80552673 290.49102783 C145.46501924 282.77751334 135.43244196 280.43109033 123.6015625 280.62109375 C113.06380107 281.72973026 103.47197837 287.48189101 96.8125 295.625 C90.69817492 304.41225407 88.20723065 313.37471917 88 324 C87.17757812 324.08636719 86.35515625 324.17273438 85.5078125 324.26171875 C75.608417 325.50771657 65.85936383 328.22729696 59 336 C50.94408531 346.71228312 47.80769868 356.60316988 49 370 C50.41630947 377.94313561 54.24860733 384.93427012 58 392 C57.38479492 392.0093457 56.76958984 392.01869141 56.13574219 392.02832031 C53.33968914 392.08211085 50.5452938 392.16573819 47.75 392.25 C46.78191406 392.26417969 45.81382813 392.27835937 44.81640625 392.29296875 C39.2444556 392.43249121 39.2444556 392.43249121 34.32421875 394.7890625 C32.05530791 398.57727352 32.97889618 400.77943753 34 405 C37.30228776 407.20152517 38.30419527 407.25217104 42.14233398 407.25878906 C43.71427773 407.26824554 43.71427773 407.26824554 45.31797791 407.27789307 C46.44925613 407.2738446 47.58053436 407.26979614 48.74609375 407.265625 C49.90875259 407.26753845 51.07141144 407.2694519 52.26930237 407.27142334 C54.7297487 407.27278522 57.19020221 407.26908862 59.65063477 407.26074219 C63.41894681 407.25005263 67.18678105 407.26063273 70.95507812 407.2734375 C73.34375105 407.27211572 75.73242368 407.26955293 78.12109375 407.265625 C79.81497475 407.27169769 79.81497475 407.27169769 81.54307556 407.27789307 C82.59419022 407.27158875 83.64530487 407.26528442 84.72827148 407.25878906 C85.65187973 407.25719788 86.57548798 407.25560669 87.52708435 407.25396729 C90.16091968 406.98347362 91.77809911 406.4216253 94 405 C95.38550197 402.22899606 95.1877467 400.0665294 95 397 C92.52290897 393.28436346 91.50007765 393.41357276 87.25 392.5625 C78.4996464 390.51831728 73.17384071 386.25339896 68 379 C64.22630497 372.32686773 62.76306986 365.60603531 64 358 C66.54985242 350.18120476 70.93673175 345.19206042 77.796875 340.8671875 C84.12086008 338.37795933 92.75484461 339.08358824 99 341.5625 C104.74427666 344.58916896 108.1350522 349.1405795 110.9375 354.875 C112.73414901 358.33489917 112.73414901 358.33489917 116.5 359 C119.36471379 359 121.30606343 358.75619272 124 358 C125.32624655 352.12662241 125.45181029 348.99005176 122.3125 343.75 C121.23097432 342.1511158 120.12927561 340.56552389 119 339 C118.4225 338.113125 117.845 337.22625 117.25 336.3125 C114.21136763 333.18946117 110.75101637 330.88209009 107.14453125 328.453125 C105 327 105 327 104 326 C103.27938172 318.61661594 103.31399171 312.00706382 108 306 C112.7477899 301.02190686 117.32865364 296.58677597 124.39453125 295.69921875 C133.46837541 295.65524212 139.45298247 297.76327913 146.171875 303.953125 C149.14468841 307.28165967 151.01764059 311.03528118 153 315 C154.18665621 316.40086029 154.18665621 316.40086029 157.5625 316.3125 C160.92791783 316.29456705 162.97100475 315.67378952 165.875 314 C171.17915404 311.07751513 176.29380644 311.23975517 182.1328125 312.4375 C189.08693965 314.61918695 194.87779814 319.51190945 198.5 325.8125 C200.44906874 330.41695138 201.65572804 335.15456059 200 340 C197.59275007 342.06521262 195.24149697 343.38190672 192.3828125 344.74609375 C189.71714206 345.90644688 189.71714206 345.90644688 188 349 C187.53844631 352.61550392 187.54593117 354.33636094 189.625 357.375 C191.91238061 359.1510407 191.91238061 359.1510407 194.6875 359.625 C198.90516111 358.82921488 201.51835207 356.91664435 204.94921875 354.41015625 C209.58499704 351.2225068 214.5943589 351.57302686 220 352 C227.22126069 353.42852525 233.07543242 357.90733591 237.3203125 363.84765625 C239.9376684 368.56859078 240.75060804 373.35883787 241.41015625 378.6796875 C241.81604822 381.36106617 241.81604822 381.36106617 245 383 C249.07490752 383.33957563 250.53001271 383.31332486 254 381 C256.45187645 373.64437065 255.05145819 365.98847942 252 359 C249.38040692 354.60237393 246.65888315 350.38949187 242.71484375 347.0859375 C241 345 241 345 241.06640625 342.05859375 C243.90872284 332.74673647 250.77787344 326.7160358 259 322 C265.79619922 318.67420038 273.94322573 319.23447064 281.125 321.125 C292.02665754 324.87406448 298.33805732 331.67611463 303.4375 341.875 C304.68309616 348.79497865 305.385192 357.73112593 302 364 C299.26043312 365.79797391 296.49814834 367.25086736 293.53125 368.640625 C290.73621324 369.88587623 290.73621324 369.88587623 289 373 C288.53844631 376.61550392 288.54593117 378.33636094 290.625 381.375 C293.81095786 383.5548659 295.18760453 383.65983768 299 383 C301.06413156 381.88124069 302.96322909 380.65119927 304.875 379.2890625 C311.44637801 375.30274863 318.54478307 375.15205303 326 376 C331.40736579 377.66809793 336.29283195 379.86188797 341 383 C342.99718807 383.13871359 342.99718807 383.13871359 345.0625 382.8125 C346.10083984 382.69841797 346.10083984 382.69841797 347.16015625 382.58203125 C349.394538 382.0863543 349.394538 382.0863543 351 379 C351.57593206 375.21530364 351.41708907 373.58967764 349.1875 370.4375 C341.06061909 363.39722155 330.24312756 361.70027623 320 360 C319.71626595 356.56440894 319.4788611 353.12714765 319.25 349.6875 C319.16878906 348.71103516 319.08757812 347.73457031 319.00390625 346.72851562 C318.94589844 345.79072266 318.88789063 344.85292969 318.828125 343.88671875 C318.7652832 343.02264404 318.70244141 342.15856934 318.63769531 341.26831055 C319 339 319 339 320.87646484 337.21948242 C324.49190512 335.14324373 327.95413487 335.49250472 332 336 C338.04318295 338.09187102 341.58972982 342.11535645 344.375 347.8125 C345.92271177 350.33234693 345.92271177 350.33234693 349.375 351.125 C353.10825026 351.32157075 353.10825026 351.32157075 356 348.9375 C358.29940267 346.17016502 358.29940267 346.17016502 357.9375 342.9375 C357.1356714 340.08356972 357.1356714 340.08356972 355.875 338 C354.45882129 334.76302008 354.77916909 333.34122143 356 330 C360.59182189 324.94616728 365.41615188 320.57578516 372.39453125 319.69921875 C381.50258217 319.65507634 387.54640721 321.76981187 394.2421875 328.05859375 C399.22541964 333.5622968 400.51285466 339.44078257 401.41015625 346.6796875 C401.81604822 349.36106617 401.81604822 349.36106617 405 351 C409.07490752 351.33957563 410.53001271 351.31332486 414 349 C415.84173673 342.89595828 414.84134405 336.20005849 414 330 C419.10316256 327.06217018 424.46905579 327.29381116 430.1484375 328.4296875 C437.03522347 330.63454783 442.86662377 335.42192879 446.375 341.75 C448.23893028 345.90111111 448.85337274 350.18788343 449.41015625 354.6796875 C449.81604822 357.36106617 449.81604822 357.36106617 453 359 C455.20151719 359.41313819 457.41137961 359.78258813 459.625 360.125 C467.78409446 361.8023345 472.55711744 365.16615342 477.36328125 371.9140625 C479.56096262 375.79796485 480.26698686 379.411643 480.875 383.8125 C481.22243253 386.58424316 481.22243253 386.58424316 482 389 C484.92112751 391.30014759 484.92112751 391.30014759 488 392 C488 394.64 488 397.28 488 400 C488.94875 400.103125 489.8975 400.20625 490.875 400.3125 C494 401 494 401 496 404 C496.67065868 411.04191617 496.67065868 411.04191617 494.25 414.5 C492 416 492 416 488 416 C488 421.94 488 427.88 488 434 C489.98 434.33 491.96 434.66 494 435 C496.45068846 438.67603269 496.70632248 441.72761034 496 446 C493.49155387 449.4939071 492.26269708 449.93432573 488 451 C488 455.95 488 460.9 488 466 C489.98 466.33 491.96 466.66 494 467 C496.45343415 470.68015123 496.69826855 473.72418273 496 478 C493.95374685 480.955699 492.71015935 481.80632018 489.25 482.75 C488.5075 482.8325 487.765 482.915 487 483 C487 484.65 487 486.3 487 488 C486.21238281 488.01417969 485.42476563 488.02835937 484.61328125 488.04296875 C477.11727439 488.37119627 471.13672855 489.73324075 464.265625 492.74609375 C457.24433562 495.44206731 450.38053176 496.31462759 442.8984375 496.3359375 C442.05890533 496.3425943 441.21937317 496.3492511 440.35440063 496.35610962 C438.58801437 496.36616674 436.82159064 496.37092881 435.05517578 496.37060547 C432.40200461 496.37495572 429.75053179 496.41128534 427.09765625 496.44921875 C415.4149756 496.52702866 404.52650967 495.70741346 393.86157227 490.45407104 C389.56669531 488.61059684 385.58825054 488.56345182 380.96630859 488.58007812 C380.08883972 488.57160858 379.21137085 488.56313904 378.30731201 488.55441284 C375.42087087 488.53111246 372.5349654 488.53001944 369.6484375 488.53125 C367.62692048 488.52414147 365.60540546 488.51644147 363.58389282 488.50817871 C359.34900305 488.4947478 355.11429961 488.49315768 350.87939453 488.49902344 C345.48288778 488.50490154 340.08728628 488.4743995 334.69095421 488.43390656 C330.51444784 488.40790167 326.33815529 488.40516401 322.16157913 488.40879822 C320.17388266 488.40711722 318.18617521 488.39757426 316.19855881 488.37965393 C304.44195906 488.28535869 295.7972742 489.12930035 285 494 C278.99875674 495.85840877 273.15104408 496.31812932 266.8984375 496.3359375 C266.05890533 496.3425943 265.21937317 496.3492511 264.35440063 496.35610962 C262.58801437 496.36616674 260.82159064 496.37092881 259.05517578 496.37060547 C256.40200461 496.37495572 253.75053179 496.41128534 251.09765625 496.44921875 C239.4149756 496.52702866 228.52650967 495.70741346 217.86157227 490.45407104 C213.56669531 488.61059684 209.58825054 488.56345182 204.96630859 488.58007812 C204.08883972 488.57160858 203.21137085 488.56313904 202.30731201 488.55441284 C199.42087087 488.53111246 196.5349654 488.53001944 193.6484375 488.53125 C191.62692048 488.52414147 189.60540546 488.51644147 187.58389282 488.50817871 C183.34900305 488.4947478 179.11429961 488.49315768 174.87939453 488.49902344 C169.48288778 488.50490154 164.08728628 488.4743995 158.69095421 488.43390656 C154.51444784 488.40790167 150.33815529 488.40516401 146.16157913 488.40879822 C144.17388266 488.40711722 142.18617521 488.39757426 140.19855881 488.37965393 C128.44195906 488.28535869 119.7972742 489.12930035 109 494 C102.99875674 495.85840877 97.15104408 496.31812932 90.8984375 496.3359375 C90.05890533 496.3425943 89.21937317 496.3492511 88.35440063 496.35610962 C86.58801437 496.36616674 84.82159064 496.37092881 83.05517578 496.37060547 C80.40200461 496.37495572 77.75053179 496.41128534 75.09765625 496.44921875 C63.38632775 496.52721947 52.45356063 495.71405514 41.7824707 490.39672852 C36.96681898 488.29434021 31.99239158 488.52090479 26.81640625 488.48828125 C25.76090073 488.47033005 24.7053952 488.45237885 23.61790466 488.43388367 C20.26614302 488.37995641 16.91452238 488.34594083 13.5625 488.3125 C11.2818815 488.27931147 9.00128156 488.2448204 6.72070312 488.20898438 C1.14726189 488.12424012 -4.426198 488.05581611 -10 488 C-10 485.36 -10 482.72 -10 480 C-10.804375 479.71125 -11.60875 479.4225 -12.4375 479.125 C-15 478 -15 478 -16 476 C-16.58252427 468.77669903 -16.58252427 468.77669903 -14.125 465.5 C-12 464 -12 464 -10 464 C-10 458.72 -10 453.44 -10 448 C-11.65 447.34 -13.3 446.68 -15 446 C-16.59643412 442.80713177 -16.51370451 439.46579307 -16 436 C-14.125 433.5 -14.125 433.5 -12 432 C-11.34 432 -10.68 432 -10 432 C-10 429.03 -10 426.06 -10 423 C-9.34 423 -8.68 423 -8 423 C-8 418.05 -8 413.1 -8 408 C-9.98 407.67 -11.96 407.34 -14 407 C-16.45122505 403.32316242 -16.70497355 400.27282747 -16 396 C-14.25 393.5 -14.25 393.5 -12 392 C-10.68 392 -9.36 392 -8 392 C-8 386.72 -8 381.44 -8 376 C-9.98 375.67 -11.96 375.34 -14 375 C-17.10707593 370.33938611 -16.36858465 365.54441488 -16.375 360.0625 C-16.39949219 358.96486328 -16.42398437 357.86722656 -16.44921875 356.73632812 C-16.45308594 355.67994141 -16.45695312 354.62355469 -16.4609375 353.53515625 C-16.46915527 352.569729 -16.47737305 351.60430176 -16.48583984 350.60961914 C-15.85636289 347.22847383 -14.73402509 346.03594416 -12 344 C-10.68 344 -9.36 344 -8 344 C-8 338.72 -8 333.44 -8 328 C-6.02 327.01 -4.04 326.02 -2 325 C-0.97486886 321.92460657 -0.87010026 319.82399523 -0.8613348 316.60206318 C-0.85312313 314.9106234 -0.85312313 314.9106234 -0.84474558 313.18501312 C-0.84376747 311.94086629 -0.84278936 310.69671946 -0.84178162 309.41487122 C-0.83684364 308.09740408 -0.83190566 306.77993695 -0.82681805 305.42254657 C-0.8132165 301.75802098 -0.80581276 298.09350469 -0.79939139 294.42896044 C-0.7913963 290.48008992 -0.77769546 286.53123879 -0.76467896 282.5823822 C-0.74290355 275.73816853 -0.72476295 268.8939529 -0.70907402 262.04972267 C-0.68638508 252.15405051 -0.6582409 242.25839981 -0.62875474 232.36274584 C-0.58106686 216.30865318 -0.53780592 200.25455176 -0.49731445 184.20043945 C-0.45796561 168.60310178 -0.41654086 153.0057719 -0.37231445 137.40844727 C-0.36959018 136.44742286 -0.36686591 135.48639845 -0.36405908 134.4962521 C-0.35037971 129.67519296 -0.33665941 124.85413394 -0.32291877 120.03307498 C-0.2089352 80.02206526 -0.10294294 40.01103994 0 0 Z " fill="#EEF3F4" transform="translate(16,16)"/>
<path d="M0 0 C23.76 0 47.52 0 72 0 C72.02578125 7.46625 72.0515625 14.9325 72.078125 22.625 C72.1033206 27.38284581 72.12967455 32.14062976 72.16015625 36.8984375 C72.20832468 44.43392084 72.25243181 51.96926079 72.27099609 59.50488281 C72.28624966 65.58699458 72.3208484 71.66872872 72.36830902 77.75067139 C72.38303355 80.05959777 72.39103582 82.36857809 72.39188385 84.67755127 C72.4014914 97.73168915 72.93574012 109.52061856 77 122 C77.37763489 123.16950195 77.75526978 124.33900391 78.14434814 125.54394531 C84.58975073 144.58109485 98.85135669 157.98922762 112.82421875 171.74609375 C114.14148705 173.04469833 114.14148705 173.04469833 115.48536682 174.36953735 C119.137637 177.9672136 122.79055672 181.56390927 126.46313477 185.14086914 C144.18871169 202.4270338 159.79687798 220.01424904 160.22705078 246.18408203 C160.22673852 248.45868344 160.21570322 250.73330247 160.1953125 253.0078125 C160.1924826 254.2144455 160.18965271 255.42107849 160.18673706 256.66427612 C160.17562141 260.4846221 160.15053273 264.30472594 160.125 268.125 C160.11495907 270.72916326 160.10583518 273.33333023 160.09765625 275.9375 C160.07571033 282.29174804 160.04231937 288.64585671 160 295 C159.52727158 294.58808411 159.05454315 294.17616821 158.56748962 293.75177002 C157.94314529 293.21139099 157.31880096 292.67101196 156.67553711 292.11425781 C156.05843369 291.57859192 155.44133026 291.04292603 154.80552673 290.49102783 C145.46501924 282.77751334 135.43244196 280.43109033 123.6015625 280.62109375 C113.06380107 281.72973026 103.47197837 287.48189101 96.8125 295.625 C90.69817492 304.41225407 88.20723065 313.37471917 88 324 C87.17757812 324.08636719 86.35515625 324.17273438 85.5078125 324.26171875 C75.608417 325.50771657 65.85936383 328.22729696 59 336 C50.94408531 346.71228312 47.80769868 356.60316988 49 370 C50.41630947 377.94313561 54.24860733 384.93427012 58 392 C57.38479492 392.0093457 56.76958984 392.01869141 56.13574219 392.02832031 C53.33968914 392.08211085 50.5452938 392.16573819 47.75 392.25 C46.78191406 392.26417969 45.81382813 392.27835937 44.81640625 392.29296875 C39.24312842 392.40714504 39.24312842 392.40714504 34.390625 394.859375 C32.84741673 397.03836005 32.84741673 397.03836005 32 400 C26.72 400 21.44 400 16 400 C15.67 401.65 15.34 403.3 15 405 C10.58138647 409.21567095 4.66416634 408.478538 -1.0625 408.4375 C-2.05572266 408.45748047 -3.04894531 408.47746094 -4.07226562 408.49804688 C-11.26398793 408.49320396 -11.26398793 408.49320396 -14.65234375 406.22265625 C-16.75412343 402.75624281 -16.80465813 399.92673165 -16 396 C-14.25 393.5 -14.25 393.5 -12 392 C-10.68 392 -9.36 392 -8 392 C-8 386.72 -8 381.44 -8 376 C-9.98 375.67 -11.96 375.34 -14 375 C-17.10707593 370.33938611 -16.36858465 365.54441488 -16.375 360.0625 C-16.39949219 358.96486328 -16.42398437 357.86722656 -16.44921875 356.73632812 C-16.45308594 355.67994141 -16.45695312 354.62355469 -16.4609375 353.53515625 C-16.46915527 352.569729 -16.47737305 351.60430176 -16.48583984 350.60961914 C-15.85636289 347.22847383 -14.73402509 346.03594416 -12 344 C-10.68 344 -9.36 344 -8 344 C-8 338.72 -8 333.44 -8 328 C-6.02 327.01 -4.04 326.02 -2 325 C-0.97486886 321.92460657 -0.87010026 319.82399523 -0.8613348 316.60206318 C-0.85312313 314.9106234 -0.85312313 314.9106234 -0.84474558 313.18501312 C-0.84376747 311.94086629 -0.84278936 310.69671946 -0.84178162 309.41487122 C-0.83684364 308.09740408 -0.83190566 306.77993695 -0.82681805 305.42254657 C-0.8132165 301.75802098 -0.80581276 298.09350469 -0.79939139 294.42896044 C-0.7913963 290.48008992 -0.77769546 286.53123879 -0.76467896 282.5823822 C-0.74290355 275.73816853 -0.72476295 268.8939529 -0.70907402 262.04972267 C-0.68638508 252.15405051 -0.6582409 242.25839981 -0.62875474 232.36274584 C-0.58106686 216.30865318 -0.53780592 200.25455176 -0.49731445 184.20043945 C-0.45796561 168.60310178 -0.41654086 153.0057719 -0.37231445 137.40844727 C-0.36959018 136.44742286 -0.36686591 135.48639845 -0.36405908 134.4962521 C-0.35037971 129.67519296 -0.33665941 124.85413394 -0.32291877 120.03307498 C-0.2089352 80.02206526 -0.10294294 40.01103994 0 0 Z " fill="#8B979E" transform="translate(16,16)"/>
<path d="M0 0 C1.24894043 -0.01345459 2.49788086 -0.02690918 3.78466797 -0.04077148 C5.12470329 -0.02874779 6.46471518 -0.01379758 7.8046875 0.00390625 C8.48130432 0.0081662 9.15792114 0.01242615 9.8550415 0.01681519 C25.24224135 0.15202263 38.09972687 3.43016041 51.94287109 10.06665039 C62.79538883 15.21252058 73.40218312 16.17267167 85.2421875 16.12890625 C85.99536255 16.12908752 86.7485376 16.1292688 87.52453613 16.12945557 C99.51373023 16.08835522 109.77143303 14.71915199 120.6796875 9.56640625 C123.09133195 8.49223234 125.51094924 7.43710424 127.9296875 6.37890625 C128.90421875 5.91097656 129.87875 5.44304687 130.8828125 4.9609375 C143.6881761 -0.1313603 156.97603906 0.03797515 170.53662109 0.06542969 C173.9094021 0.06640041 177.27989025 0.02469443 180.65234375 -0.01953125 C198.76067144 -0.12017327 213.46642596 3.12405554 229.73828125 10.91796875 C240.06083284 15.44067429 250.13094782 16.16997786 261.2421875 16.12890625 C261.99536255 16.12908752 262.7485376 16.1292688 263.52453613 16.12945557 C275.51373023 16.08835522 285.77143303 14.71915199 296.6796875 9.56640625 C299.09133195 8.49223234 301.51094924 7.43710424 303.9296875 6.37890625 C304.90421875 5.91097656 305.87875 5.44304687 306.8828125 4.9609375 C319.6881761 -0.1313603 332.97603906 0.03797515 346.53662109 0.06542969 C349.9094021 0.06640041 353.27989025 0.02469443 356.65234375 -0.01953125 C374.76067144 -0.12017327 389.46642596 3.12405554 405.73828125 10.91796875 C416.06083284 15.44067429 426.13094782 16.16997786 437.2421875 16.12890625 C437.99536255 16.12908752 438.7485376 16.1292688 439.52453613 16.12945557 C451.54544033 16.08824651 461.72746734 14.65760031 472.6796875 9.56640625 C474.03518628 8.99386705 475.39329804 8.42747615 476.75390625 7.8671875 C479.17240814 6.86455425 481.56465104 5.8317032 483.95703125 4.765625 C488.55889585 2.73869181 492.66354566 1.87000024 497.6796875 2.56640625 C500.1796875 4.06640625 500.1796875 4.06640625 501.6796875 6.56640625 C502.22718592 9.34952324 502.25066795 11.78573145 501.6796875 14.56640625 C499.17124137 18.06031335 497.94238458 18.50073198 493.6796875 19.56640625 C493.6796875 24.51640625 493.6796875 29.46640625 493.6796875 34.56640625 C495.6596875 34.89640625 497.6396875 35.22640625 499.6796875 35.56640625 C502.13312165 39.24655748 502.37795605 42.29058898 501.6796875 46.56640625 C499.63343435 49.52210525 498.38984685 50.37272643 494.9296875 51.31640625 C494.1871875 51.39890625 493.4446875 51.48140625 492.6796875 51.56640625 C492.6796875 53.21640625 492.6796875 54.86640625 492.6796875 56.56640625 C491.89207031 56.58058594 491.10445313 56.59476562 490.29296875 56.609375 C482.79696189 56.93760252 476.81641605 58.299647 469.9453125 61.3125 C462.92402312 64.00847356 456.06021926 64.88103384 448.578125 64.90234375 C447.73859283 64.90900055 446.89906067 64.91565735 446.03408813 64.92251587 C444.26770187 64.93257299 442.50127814 64.93733506 440.73486328 64.93701172 C438.08169211 64.94136197 435.43021929 64.97769159 432.77734375 65.015625 C421.0946631 65.09343491 410.20619717 64.27381971 399.54125977 59.02047729 C395.24638281 57.17700309 391.26793804 57.12985807 386.64599609 57.14648438 C385.32979279 57.13378006 385.32979279 57.13378006 383.98699951 57.12081909 C381.10055837 57.09751871 378.2146529 57.09642569 375.328125 57.09765625 C373.30660798 57.09054772 371.28509296 57.08284772 369.26358032 57.07458496 C365.02869055 57.06115405 360.79398711 57.05956393 356.55908203 57.06542969 C351.16257528 57.07130779 345.76697378 57.04080575 340.37064171 57.00031281 C336.19413534 56.97430792 332.01784279 56.97157026 327.84126663 56.97520447 C325.85357016 56.97352347 323.86586271 56.96398051 321.87824631 56.94606018 C310.12164656 56.85176494 301.4769617 57.6957066 290.6796875 62.56640625 C284.67844424 64.42481502 278.83073158 64.88453557 272.578125 64.90234375 C271.73859283 64.90900055 270.89906067 64.91565735 270.03408813 64.92251587 C268.26770187 64.93257299 266.50127814 64.93733506 264.73486328 64.93701172 C262.08169211 64.94136197 259.43021929 64.97769159 256.77734375 65.015625 C245.0946631 65.09343491 234.20619717 64.27381971 223.54125977 59.02047729 C219.24638281 57.17700309 215.26793804 57.12985807 210.64599609 57.14648438 C209.32979279 57.13378006 209.32979279 57.13378006 207.98699951 57.12081909 C205.10055837 57.09751871 202.2146529 57.09642569 199.328125 57.09765625 C197.30660798 57.09054772 195.28509296 57.08284772 193.26358032 57.07458496 C189.02869055 57.06115405 184.79398711 57.05956393 180.55908203 57.06542969 C175.16257528 57.07130779 169.76697378 57.04080575 164.37064171 57.00031281 C160.19413534 56.97430792 156.01784279 56.97157026 151.84126663 56.97520447 C149.85357016 56.97352347 147.86586271 56.96398051 145.87824631 56.94606018 C134.12164656 56.85176494 125.4769617 57.6957066 114.6796875 62.56640625 C108.67844424 64.42481502 102.83073158 64.88453557 96.578125 64.90234375 C95.73859283 64.90900055 94.89906067 64.91565735 94.03408813 64.92251587 C92.26770187 64.93257299 90.50127814 64.93733506 88.73486328 64.93701172 C86.08169211 64.94136197 83.43021929 64.97769159 80.77734375 65.015625 C69.06601525 65.09362572 58.13324813 64.28046139 47.4621582 58.96313477 C42.64650648 56.86074646 37.67207908 57.08731104 32.49609375 57.0546875 C30.91283546 57.0277607 30.91283546 57.0277607 29.29759216 57.00028992 C25.94583052 56.94636266 22.59420988 56.91234708 19.2421875 56.87890625 C16.961569 56.84571772 14.68096906 56.81122665 12.40039062 56.77539062 C6.82694939 56.69064637 1.2534895 56.62222236 -4.3203125 56.56640625 C-4.3203125 53.92640625 -4.3203125 51.28640625 -4.3203125 48.56640625 C-5.1246875 48.27765625 -5.9290625 47.98890625 -6.7578125 47.69140625 C-9.3203125 46.56640625 -9.3203125 46.56640625 -10.3203125 44.56640625 C-10.90283677 37.34310528 -10.90283677 37.34310528 -8.4453125 34.06640625 C-6.3203125 32.56640625 -6.3203125 32.56640625 -4.3203125 32.56640625 C-4.3203125 27.28640625 -4.3203125 22.00640625 -4.3203125 16.56640625 C-6.7953125 15.57640625 -6.7953125 15.57640625 -9.3203125 14.56640625 C-10.88502483 11.4369816 -11.01733208 7.95558402 -10.3203125 4.56640625 C-7.1914146 0.55076099 -5.00213969 0.0485191 0 0 Z " fill="#010101" transform="translate(10.3203125,447.43359375)"/>
<path d="M0 0 C26.4 0 52.8 0 80 0 C80.02578125 7.46625 80.0515625 14.9325 80.078125 22.625 C80.1033206 27.38284581 80.12967455 32.14062976 80.16015625 36.8984375 C80.20832468 44.43392084 80.25243181 51.96926079 80.27099609 59.50488281 C80.28624966 65.58699458 80.3208484 71.66872872 80.36830902 77.75067139 C80.38303355 80.05959777 80.39103582 82.36857809 80.39188385 84.67755127 C80.41599724 117.44130556 89.99801578 140.88418389 113.25219727 164.2644043 C115.76962032 166.76506316 118.29509135 169.25727398 120.82421875 171.74609375 C121.70235229 172.6117395 122.58048584 173.47738525 123.48522949 174.3692627 C127.13747488 177.96710276 130.79048706 181.56384143 134.46313477 185.14086914 C154.6111613 204.78943154 168.0192883 222.82896086 168.40614319 251.93095398 C168.41915392 253.44744864 168.43087746 254.96395482 168.44140625 256.48046875 C168.45176061 257.64512382 168.45176061 257.64512382 168.46232414 258.83330727 C168.49792619 262.93273696 168.52159547 267.03203306 168.53540039 271.1315918 C168.55202554 275.34856521 168.6106262 279.56388467 168.67854404 283.78029919 C168.7233864 287.04295158 168.73689796 290.30520593 168.74201775 293.56814003 C168.74988263 295.1226774 168.76944057 296.6772038 168.80124092 298.23143578 C169.03308035 310.34860557 169.03308035 310.34860557 166.45870972 314.46377563 C164.72835201 316.19805585 162.99155386 317.5845912 161 319 C159.96292646 320.30470542 158.93718337 321.62178916 158 323 C156.02 322.34 154.04 321.68 152 321 C151.99413376 320.13572891 151.98826752 319.27145782 151.98222351 318.3809967 C151.9238602 310.15979478 151.85154218 301.93885204 151.76428509 293.71790409 C151.71991814 289.49335265 151.6805923 285.26889023 151.65356445 281.04418945 C151.62718977 276.95260919 151.58655915 272.86137803 151.53681374 268.77001762 C151.52037213 267.22389572 151.50871887 265.67771377 151.50238609 264.13151741 C151.44030416 250.34244636 150.52013436 235.94165775 144.8125 223.1875 C144.50916748 222.4872168 144.20583496 221.78693359 143.89331055 221.06542969 C136.46053281 204.4873926 123.53625172 191.96957022 110.20710945 180.01652336 C107.18914385 177.30817949 104.19109629 174.57791968 101.19207764 171.84863281 C100.55786345 171.27193313 99.92364926 170.69523344 99.27021646 170.10105801 C90.29230441 161.91797443 81.49041712 153.5459 72.68510056 145.17800903 C65.5558901 138.41298512 58.37578167 131.72628874 51.03759766 125.18798828 C42.51109765 117.57401899 34.16204565 109.80216962 26.046875 101.75 C25.39282621 101.10111691 24.73877743 100.45223381 24.06490898 99.78368759 C9.18877866 84.86512958 -1.90801529 71.16428508 -3.72851562 49.609375 C-3.82174496 48.50627865 -3.82174496 48.50627865 -3.91685772 47.38089752 C-4.99929693 31.49718653 -1.92030239 15.68380865 0 0 Z " fill="#647179" transform="translate(200,16)"/>
<path d="M0 0 C26.4 0 52.8 0 80 0 C80.05607422 11.00021484 80.05607422 11.00021484 80.11328125 22.22265625 C80.14358973 26.89390283 80.1747565 31.56511262 80.20898438 36.23632812 C80.26312252 43.63580373 80.3142393 51.0352066 80.34643555 58.43481445 C80.37261945 64.40664757 80.41312681 70.37823365 80.46318626 76.34991264 C80.47975354 78.61780134 80.49133046 80.88573267 80.49761391 83.15367317 C80.6003937 116.86902116 89.35121515 140.25226169 113.25 164.26028442 C115.76836194 166.76209993 118.29450794 169.25575502 120.82421875 171.74609375 C122.14147949 173.04467567 122.14147949 173.04467567 123.48535156 174.36949158 C127.13761126 177.96719903 130.79054639 181.56389922 134.46313477 185.14086914 C152.21592246 202.45357002 167.76993344 219.98969561 168.21197605 246.17860985 C168.23884142 250.27824797 168.22073846 254.3769642 168.1953125 258.4765625 C168.19157605 260.25588827 168.18873207 262.03521611 168.18673706 263.81454468 C168.17915031 268.46695777 168.15954516 273.11924329 168.1373291 277.77160645 C168.11676309 282.53131383 168.10771248 287.29104211 168.09765625 292.05078125 C168.07629397 301.36724313 168.04221885 310.6836109 168 320 C167.34773437 319.66226562 166.69546875 319.32453125 166.0234375 318.9765625 C165.14945313 318.53054688 164.27546875 318.08453125 163.375 317.625 C162.08722656 316.96371094 162.08722656 316.96371094 160.7734375 316.2890625 C157.90082204 314.9539032 155.02022327 313.94769469 152 313 C151.99413376 312.20645615 151.98826752 311.41291229 151.98222351 310.59532166 C151.92388318 303.05041097 151.85157777 295.50581511 151.76428509 287.96118832 C151.71990016 284.08409208 151.68057793 280.20709326 151.65356445 276.32983398 C151.62720812 272.57540577 151.58658938 268.82135919 151.53681374 265.0671711 C151.52036007 263.64779029 151.50871406 262.22834382 151.50238609 260.80888176 C151.43919182 247.91461908 150.01273753 235.24608881 144.8125 223.3125 C144.50916748 222.60319336 144.20583496 221.89388672 143.89331055 221.16308594 C136.525765 204.51977232 123.55643078 191.987666 110.20710945 180.01652336 C107.18914385 177.30817949 104.19109629 174.57791968 101.19207764 171.84863281 C100.55786345 171.27193313 99.92364926 170.69523344 99.27021646 170.10105801 C90.29230441 161.91797443 81.49041712 153.5459 72.68510056 145.17800903 C65.5558901 138.41298512 58.37578167 131.72628874 51.03759766 125.18798828 C42.51109765 117.57401899 34.16204565 109.80216962 26.046875 101.75 C25.39282621 101.10111691 24.73877743 100.45223381 24.06490898 99.78368759 C9.18877866 84.86512958 -1.90801529 71.16428508 -3.72851562 49.609375 C-3.82174496 48.50627865 -3.82174496 48.50627865 -3.91685772 47.38089752 C-4.99929693 31.49718653 -1.92030239 15.68380865 0 0 Z " fill="#4F5C63" transform="translate(296,16)"/>
<path d="M0 0 C26.4 0 52.8 0 80 0 C80.02578125 7.46625 80.0515625 14.9325 80.078125 22.625 C80.1033206 27.38284581 80.12967455 32.14062976 80.16015625 36.8984375 C80.20832468 44.43392084 80.25243181 51.96926079 80.27099609 59.50488281 C80.28624966 65.58699458 80.3208484 71.66872872 80.36830902 77.75067139 C80.38303355 80.05959777 80.39103582 82.36857809 80.39188385 84.67755127 C80.4014914 97.73168915 80.93574012 109.52061856 85 122 C85.37763489 123.16950195 85.75526978 124.33900391 86.14434814 125.54394531 C92.58975073 144.58109485 106.85135669 157.98922762 120.82421875 171.74609375 C122.14148705 173.04469833 122.14148705 173.04469833 123.48536682 174.36953735 C127.137637 177.9672136 130.79055672 181.56390927 134.46313477 185.14086914 C153.60485626 203.80807253 167.83802621 221.3387095 168.22705078 249.32910156 C168.22673857 252.0168622 168.2161352 254.70309523 168.1953125 257.390625 C168.19157164 258.83078818 168.18872976 260.27095395 168.18673706 261.71112061 C168.17918493 265.45932327 168.15961138 269.20736521 168.1373291 272.95550537 C168.1166867 276.79713773 168.10769645 280.63879664 168.09765625 284.48046875 C168.07635542 291.98705159 168.04232446 299.49350308 168 307 C166.64455078 307.72316406 166.64455078 307.72316406 165.26171875 308.4609375 C164.07026983 309.09887865 162.87886594 309.7369039 161.6875 310.375 C161.09259766 310.69210937 160.49769531 311.00921875 159.88476562 311.3359375 C157.16634112 312.79386349 154.56932446 314.28711703 152 316 C151.99413376 315.19836929 151.98826752 314.39673859 151.98222351 313.57081604 C151.92381323 305.93823527 151.85147082 298.30596318 151.76428509 290.67366123 C151.7199542 286.75178221 151.68062155 282.82999823 151.65356445 278.90795898 C151.62715234 275.10813879 151.58649861 271.30869211 151.53681374 267.50910759 C151.52039648 266.07463237 151.50872861 264.64009294 151.50238609 263.2055378 C151.43705317 249.76028506 150.37214388 235.61096139 144.8125 223.1875 C144.50916748 222.4872168 144.20583496 221.78693359 143.89331055 221.06542969 C136.46053281 204.4873926 123.53625172 191.96957022 110.20710945 180.01652336 C107.18914385 177.30817949 104.19109629 174.57791968 101.19207764 171.84863281 C100.55786345 171.27193313 99.92364926 170.69523344 99.27021646 170.10105801 C90.29230441 161.91797443 81.49041712 153.5459 72.68510056 145.17800903 C65.5558901 138.41298512 58.37578167 131.72628874 51.03759766 125.18798828 C42.51109765 117.57401899 34.16204565 109.80216962 26.046875 101.75 C25.39282621 101.10111691 24.73877743 100.45223381 24.06490898 99.78368759 C9.18877866 84.86512958 -1.90801529 71.16428508 -3.72851562 49.609375 C-3.82174496 48.50627865 -3.82174496 48.50627865 -3.91685772 47.38089752 C-4.99929693 31.49718653 -1.92030239 15.68380865 0 0 Z " fill="#74848D" transform="translate(104,16)"/>
<path d="M0 0 C1.24894043 -0.01345459 2.49788086 -0.02690918 3.78466797 -0.04077148 C5.12470329 -0.02874779 6.46471518 -0.01379758 7.8046875 0.00390625 C8.48130432 0.0081662 9.15792114 0.01242615 9.8550415 0.01681519 C25.24224135 0.15202263 38.09972687 3.43016041 51.94287109 10.06665039 C62.79538883 15.21252058 73.40218312 16.17267167 85.2421875 16.12890625 C85.99536255 16.12908752 86.7485376 16.1292688 87.52453613 16.12945557 C99.51373023 16.08835522 109.77143303 14.71915199 120.6796875 9.56640625 C123.09133195 8.49223234 125.51094924 7.43710424 127.9296875 6.37890625 C128.90421875 5.91097656 129.87875 5.44304687 130.8828125 4.9609375 C143.6881761 -0.1313603 156.97603906 0.03797515 170.53662109 0.06542969 C173.9094021 0.06640041 177.27989025 0.02469443 180.65234375 -0.01953125 C198.76067144 -0.12017327 213.46642596 3.12405554 229.73828125 10.91796875 C240.06083284 15.44067429 250.13094782 16.16997786 261.2421875 16.12890625 C261.99536255 16.12908752 262.7485376 16.1292688 263.52453613 16.12945557 C275.51373023 16.08835522 285.77143303 14.71915199 296.6796875 9.56640625 C299.09133195 8.49223234 301.51094924 7.43710424 303.9296875 6.37890625 C304.90421875 5.91097656 305.87875 5.44304687 306.8828125 4.9609375 C319.6881761 -0.1313603 332.97603906 0.03797515 346.53662109 0.06542969 C349.9094021 0.06640041 353.27989025 0.02469443 356.65234375 -0.01953125 C374.76067144 -0.12017327 389.46642596 3.12405554 405.73828125 10.91796875 C416.06083284 15.44067429 426.13094782 16.16997786 437.2421875 16.12890625 C437.99536255 16.12908752 438.7485376 16.1292688 439.52453613 16.12945557 C451.54544033 16.08824651 461.72746734 14.65760031 472.6796875 9.56640625 C474.03518628 8.99386705 475.39329804 8.42747615 476.75390625 7.8671875 C479.17240814 6.86455425 481.56465104 5.8317032 483.95703125 4.765625 C488.55889585 2.73869181 492.66354566 1.87000024 497.6796875 2.56640625 C500.1796875 4.06640625 500.1796875 4.06640625 501.6796875 6.56640625 C502.22654969 9.34628904 502.40960219 11.81849212 501.6796875 14.56640625 C498.83271373 18.21534446 496.21422075 19.28679031 491.8046875 20.44140625 C486.92979073 21.82335243 482.42126525 23.47845404 477.8046875 25.56640625 C465.24254033 31.04890254 453.67431284 33.23836623 440.04614258 33.08789062 C437.74648297 33.06644631 435.4499565 33.08782028 433.15039062 33.11328125 C419.85483558 33.1395418 407.55736994 30.85558866 395.4921875 25.06640625 C392.89767999 23.82958794 390.33059073 22.66610936 387.6796875 21.56640625 C386.43989136 21.0259668 386.43989136 21.0259668 385.17504883 20.47460938 C374.74607549 16.56798786 364.10428009 16.9613498 353.10571289 17.04492188 C349.75268027 17.06633923 346.40179515 17.0450571 343.04882812 17.01953125 C331.63689507 17.00385865 321.40175919 17.28102734 310.6796875 21.56640625 C309.53342896 22.02176758 309.53342896 22.02176758 308.36401367 22.48632812 C305.2441223 23.81390945 302.21014757 25.32113701 299.15234375 26.78515625 C287.55841679 31.70320053 276.51088271 33.2255202 264.04614258 33.08789062 C261.74648297 33.06644631 259.4499565 33.08782028 257.15039062 33.11328125 C243.85483558 33.1395418 231.55736994 30.85558866 219.4921875 25.06640625 C216.89767999 23.82958794 214.33059073 22.66610936 211.6796875 21.56640625 C210.43989136 21.0259668 210.43989136 21.0259668 209.17504883 20.47460938 C198.74607549 16.56798786 188.10428009 16.9613498 177.10571289 17.04492188 C173.75268027 17.06633923 170.40179515 17.0450571 167.04882812 17.01953125 C155.63689507 17.00385865 145.40175919 17.28102734 134.6796875 21.56640625 C133.91551514 21.86998047 133.15134277 22.17355469 132.36401367 22.48632812 C129.2441223 23.81390945 126.21014757 25.32113701 123.15234375 26.78515625 C111.55841679 31.70320053 100.51088271 33.2255202 88.04614258 33.08789062 C85.74648297 33.06644631 83.4499565 33.08782028 81.15039062 33.11328125 C67.85483558 33.1395418 55.55736994 30.85558866 43.4921875 25.06640625 C31.5672934 19.38173301 20.85531901 17.02565264 7.6171875 17.06640625 C5.06379229 17.07405496 2.51027013 17.06442736 -0.04296875 17.03515625 C-1.15422119 17.03966797 -2.26547363 17.04417969 -3.41040039 17.04882812 C-6.96887739 16.45888345 -8.12594199 15.36903628 -10.3203125 12.56640625 C-10.8515625 10.56640625 -10.8515625 10.56640625 -10.8203125 8.56640625 C-10.83578125 7.57640625 -10.83578125 7.57640625 -10.8515625 6.56640625 C-9.35550579 0.93419275 -5.24638237 0.05088818 0 0 Z " fill="#020202" transform="translate(10.3203125,447.43359375)"/>
<path d="M0 0 C16.209457 -0.64837828 30.05117078 -0.63429644 45 6 C46.24998238 6.54300932 47.49998193 7.0859791 48.75 7.62890625 C50.94734902 8.59024645 53.13391225 9.57726817 55.30078125 10.60546875 C66.67322536 14.89265201 77.69377149 15.57090518 89.6875 15.5 C90.48369751 15.49823761 91.27989502 15.49647522 92.10021973 15.49465942 C104.02801842 15.43574302 114.90319863 14.73535922 126 10 C126.68884277 9.71108887 127.37768555 9.42217773 128.08740234 9.12451172 C130.83418666 7.95858345 133.57315549 6.78903996 136.26464844 5.49975586 C145.36581287 1.1807901 154.35166916 -0.46976304 164.37890625 -0.50390625 C165.9562278 -0.51888405 165.9562278 -0.51888405 167.56541443 -0.53416443 C169.77802642 -0.54925314 171.99070575 -0.55639312 174.20336914 -0.5559082 C177.53065007 -0.5624375 180.85488983 -0.61693322 184.18164062 -0.67382812 C197.53784008 -0.77902153 208.71773536 0.67198085 221 6 C221.66196884 6.28343765 222.32393768 6.56687531 223.00596619 6.85890198 C225.79423465 8.06247251 228.55695491 9.30349625 231.30078125 10.60546875 C242.67322536 14.89265201 253.69377149 15.57090518 265.6875 15.5 C266.48369751 15.49823761 267.27989502 15.49647522 268.10021973 15.49465942 C280.02801842 15.43574302 290.90319863 14.73535922 302 10 C302.68884277 9.71108887 303.37768555 9.42217773 304.08740234 9.12451172 C306.83418666 7.95858345 309.57315549 6.78903996 312.26464844 5.49975586 C321.36581287 1.1807901 330.35166916 -0.46976304 340.37890625 -0.50390625 C341.9562278 -0.51888405 341.9562278 -0.51888405 343.56541443 -0.53416443 C345.77802642 -0.54925314 347.99070575 -0.55639312 350.20336914 -0.5559082 C353.53065007 -0.5624375 356.85488983 -0.61693322 360.18164062 -0.67382812 C373.53784008 -0.77902153 384.71773536 0.67198085 397 6 C397.99295326 6.42515648 397.99295326 6.42515648 399.00596619 6.85890198 C401.79423465 8.06247251 404.55695491 9.30349625 407.30078125 10.60546875 C418.67322536 14.89265201 429.69377149 15.57090518 441.6875 15.5 C442.48369751 15.49823761 443.27989502 15.49647522 444.10021973 15.49465942 C456.0379941 15.43569374 466.8893966 14.71623434 478 10 C478.72606445 9.7004541 479.45212891 9.4009082 480.20019531 9.09228516 C483.74873675 7.61486797 487.26031189 6.08131722 490.7421875 4.453125 C494 3 494 3 498 2 C498 7.28 498 12.56 498 18 C495.751875 18.721875 493.50375 19.44375 491.1875 20.1875 C485.43338557 22.07140269 479.97533631 24.27818433 474.49609375 26.8671875 C464.36997817 31.46276421 454.65390872 32.23352759 443.64453125 32.29516602 C442.22906434 32.30660706 440.81363783 32.3269321 439.3984375 32.35668945 C424.7149755 32.66431348 412.70328578 29.11582779 399.47265625 22.78125 C385.50496794 16.94608075 372.53025831 16.36805942 357.53051758 16.47851562 C354.07236432 16.49993889 350.61629306 16.47863691 347.15820312 16.453125 C331.61336952 16.43240497 317.74407098 17.67386832 303.5625 24.5625 C291.32787811 30.18881429 281.12029499 32.21971898 267.64453125 32.29516602 C266.22906434 32.30660706 264.81363783 32.3269321 263.3984375 32.35668945 C248.7149755 32.66431348 236.70328578 29.11582779 223.47265625 22.78125 C209.50496794 16.94608075 196.53025831 16.36805942 181.53051758 16.47851562 C178.07236432 16.49993889 174.61629306 16.47863691 171.15820312 16.453125 C155.61336952 16.43240497 141.74407098 17.67386832 127.5625 24.5625 C115.32787811 30.18881429 105.12029499 32.21971898 91.64453125 32.29516602 C90.22906434 32.30660706 88.81363783 32.3269321 87.3984375 32.35668945 C74.28279218 32.63146713 62.98478631 30.19577196 51.0625 24.5 C34.09496053 16.8731767 18.44092392 16.25737507 0 16 C0 10.72 0 5.44 0 0 Z " fill="#C7E9F2" transform="translate(6,464)"/>
<path d="M0 0 C6.36130811 5.25706254 12.18334085 11.01421481 18.02490234 16.83203125 C19.12444726 17.92365988 20.22416834 19.01511111 21.3240509 20.10639954 C24.91506314 23.67137063 28.50079116 27.24163128 32.0859375 30.8125 C33.32737329 32.04856896 34.56881442 33.28463257 35.81026077 34.52069092 C40.97860877 39.6674375 46.14552138 44.81561803 51.30872154 49.9675293 C58.67251985 57.31511287 66.04465315 64.65409647 73.42881238 71.98121929 C78.64044698 77.15398437 83.84230278 82.33645788 89.03717196 87.52605915 C92.13038868 90.61564606 95.22753225 93.70102233 98.33524704 96.77603149 C101.26355825 99.67396062 104.17940504 102.58390305 107.08672142 105.50288963 C108.14608379 106.56247023 109.2096129 107.61790695 110.27793694 108.66845131 C125.38288809 123.5359177 135.92177873 141.4251411 136.22705078 163.10205078 C136.22673737 165.80037817 136.21605639 168.49720985 136.1953125 171.1953125 C136.19157392 172.63833417 136.18873095 174.08135841 136.18673706 175.52438354 C136.179167 179.2890547 136.15957702 183.05356707 136.1373291 186.81817627 C136.11672635 190.67303318 136.10770475 194.52791619 136.09765625 198.3828125 C136.07632358 205.92194673 136.04226967 213.46095096 136 221 C134.5882217 221.53394179 133.17029756 222.05165104 131.75 222.5625 C130.96109375 222.85253906 130.1721875 223.14257812 129.359375 223.44140625 C125.78154509 224.28847525 123.80349111 223.48264312 120.7109375 221.625 C119.94007813 221.08875 119.16921875 220.5525 118.375 220 C115.27909695 217.84472887 115.27909695 217.84472887 112 216 C111.73541225 212.86652506 111.6332958 209.77736087 111.609375 206.63476562 C111.48920746 203.22000465 111.23318099 201.30844827 109.1484375 198.55078125 C107.02459209 196.77592609 107.02459209 196.77592609 104 196.5 C101.00370319 196.82264922 101.00370319 196.82264922 98.6875 198.3125 C96.02899065 202.5464223 96.16933244 207.0893592 96 212 C93.36 212 90.72 212 88 212 C87.99857498 211.20281052 87.99714996 210.40562103 87.99568176 209.58427429 C87.97767154 201.98162708 87.93553607 194.37964031 87.86790943 186.77728558 C87.83396935 182.87106199 87.80858191 178.96521574 87.80444336 175.05883789 C87.75313181 139.31751663 81.16262938 114.68158925 55.64086914 88.5880127 C53.1891652 86.15558672 50.72242401 83.73948184 48.25 81.328125 C46.40564693 79.51102858 44.56191598 77.69330053 42.71875 75.875 C39.86144529 73.06080963 37.00177921 70.24945969 34.12890625 67.45117188 C19.50454775 53.17787822 7.9549416 40.89150659 2 21 C1.63261719 19.91138672 1.63261719 19.91138672 1.2578125 18.80078125 C-0.61254054 12.69010726 -0.17322047 6.31292384 0 0 Z " fill="#A1D5E3" transform="translate(296,108)"/>
<path d="M0 0 C6.36130811 5.25706254 12.18334085 11.01421481 18.02490234 16.83203125 C19.12444726 17.92365988 20.22416834 19.01511111 21.3240509 20.10639954 C24.91506314 23.67137063 28.50079116 27.24163128 32.0859375 30.8125 C33.32737329 32.04856896 34.56881442 33.28463257 35.81026077 34.52069092 C40.97860877 39.6674375 46.14552138 44.81561803 51.30872154 49.9675293 C58.67251985 57.31511287 66.04465315 64.65409647 73.42881238 71.98121929 C78.64044698 77.15398437 83.84230278 82.33645788 89.03717196 87.52605915 C92.13038868 90.61564606 95.22753225 93.70102233 98.33524704 96.77603149 C101.26355825 99.67396062 104.17940504 102.58390305 107.08672142 105.50288963 C108.14608379 106.56247023 109.2096129 107.61790695 110.27793694 108.66845131 C124.87950138 123.0404454 135.8257805 140.68623019 136.21197605 161.73101616 C136.23874337 165.46946898 136.22079742 169.20690422 136.1953125 172.9453125 C136.19157517 174.56769637 136.18873161 176.19008253 136.18673706 177.81246948 C136.17915724 182.05060223 136.15955836 186.28859452 136.1373291 190.52667236 C136.11674787 194.86411642 136.10770927 199.20158352 136.09765625 203.5390625 C136.07630625 212.02610561 136.04223991 220.51303525 136 229 C130.25 232 130.25 232 128 232 C127.9906543 231.08186523 127.98130859 230.16373047 127.97167969 229.21777344 C127.92760069 225.80294722 127.86596268 222.38936892 127.79248047 218.97509766 C127.76429912 217.49897804 127.74307034 216.02270831 127.72900391 214.54638672 C127.70753302 212.42076943 127.66086957 210.29695121 127.609375 208.171875 C127.58842773 206.8940918 127.56748047 205.61630859 127.54589844 204.29980469 C126.91448441 200.48308195 126.08119986 199.2692526 123 197 C119.49527106 196.41587851 117.80028818 196.44505564 114.859375 198.484375 C112.17628491 202.11443806 112.33044854 205.33995749 112.25 209.75 C112.22035156 210.54277344 112.19070313 211.33554687 112.16015625 212.15234375 C112.08972213 214.10102094 112.04256518 216.05051495 112 218 C110.824375 217.566875 109.64875 217.13375 108.4375 216.6875 C104.0777551 215.2194891 99.67033134 214.26271758 95.16015625 213.39453125 C94.46925903 213.25905884 93.77836182 213.12358643 93.06652832 212.98400879 C91.37820331 212.6533511 89.68917192 212.32630365 88 212 C87.99857498 211.20281052 87.99714996 210.40562103 87.99568176 209.58427429 C87.97767154 201.98162708 87.93553607 194.37964031 87.86790943 186.77728558 C87.83396935 182.87106199 87.80858191 178.96521574 87.80444336 175.05883789 C87.75313181 139.31751663 81.16262938 114.68158925 55.64086914 88.5880127 C53.1891652 86.15558672 50.72242401 83.73948184 48.25 81.328125 C46.40564693 79.51102858 44.56191598 77.69330053 42.71875 75.875 C39.86144529 73.06080963 37.00177921 70.24945969 34.12890625 67.45117188 C19.50454775 53.17787822 7.9549416 40.89150659 2 21 C1.63261719 19.91138672 1.63261719 19.91138672 1.2578125 18.80078125 C-0.61254054 12.69010726 -0.17322047 6.31292384 0 0 Z " fill="#A1D5E3" transform="translate(200,108)"/>
<path d="M0 0 C6.36130811 5.25706254 12.18334085 11.01421481 18.02490234 16.83203125 C19.12444726 17.92365988 20.22416834 19.01511111 21.3240509 20.10639954 C24.91506314 23.67137063 28.50079116 27.24163128 32.0859375 30.8125 C33.32737329 32.04856896 34.56881442 33.28463257 35.81026077 34.52069092 C40.97860877 39.6674375 46.14552138 44.81561803 51.30872154 49.9675293 C58.67251985 57.31511287 66.04465315 64.65409647 73.42881238 71.98121929 C78.64044698 77.15398437 83.84230278 82.33645788 89.03717196 87.52605915 C92.13038868 90.61564606 95.22753225 93.70102233 98.33524704 96.77603149 C101.26355825 99.67396062 104.17940504 102.58390305 107.08672142 105.50288963 C108.14608379 106.56247023 109.2096129 107.61790695 110.27793694 108.66845131 C124.45134687 122.61902247 135.69547709 140.08263034 136.24050903 160.58132935 C136.24618578 162.15594098 136.24126962 163.73061811 136.22705078 165.30517578 C136.22734283 166.17470383 136.22763489 167.04423187 136.22793579 167.94010925 C136.2265576 170.77528342 136.21106861 173.61018502 136.1953125 176.4453125 C136.19157698 178.42642066 136.18873256 180.40753068 136.18673706 182.38864136 C136.17914301 187.57370203 136.15953131 192.7586486 136.1373291 197.94366455 C136.11677908 203.24628151 136.10771585 208.5489171 136.09765625 213.8515625 C136.07628104 224.23442481 136.04219677 234.61720287 136 245 C133.36 244.67 130.72 244.34 128 244 C127.85304688 243.11699219 127.70609375 242.23398437 127.5546875 241.32421875 C125.99519512 232.98003827 124.12369151 223.35335809 117.31089783 217.56484985 C113.66075109 214.45031137 111.5676921 212.21441079 111.17700195 207.3215332 C111.16335733 205.56455013 111.18550224 203.80702442 111.23828125 202.05078125 C111.23547653 201.11574265 111.23267181 200.18070404 111.2297821 199.21733093 C111.22452608 196.24786353 111.26502017 193.28155603 111.3125 190.3125 C111.34401266 187.33323084 111.36527863 184.35497548 111.36308289 181.37553406 C111.36321271 179.52679208 111.38343247 177.67791565 111.42610168 175.82966614 C111.47914001 170.79459784 111.47914001 170.79459784 109.16479492 166.43432617 C106.20056666 164.47032019 104.48693209 164.41884465 101 165 C98.69016097 166.46062667 98.69016097 166.46062667 97 169 C96.58217401 171.87694498 96.39523722 174.38706996 96.390625 177.265625 C96.37408875 178.05902283 96.35755249 178.85242065 96.34051514 179.66986084 C96.29204384 182.19665269 96.27066713 184.72284281 96.25 187.25 C96.22183943 188.96617609 96.19191188 190.68232416 96.16015625 192.3984375 C96.08628564 196.59890878 96.03670613 200.7990462 96 205 C93.36 204.67 90.72 204.34 88 204 C87.99857498 203.30303513 87.99714996 202.60607025 87.99568176 201.88798523 C87.97763944 195.22718439 87.93541376 188.56698956 87.86790943 181.906497 C87.83403004 178.48453693 87.80859191 175.06300465 87.80444336 171.64086914 C87.72155408 136.83374987 80.11800849 113.61356358 55.64086914 88.5880127 C53.1891652 86.15558672 50.72242401 83.73948184 48.25 81.328125 C46.40564693 79.51102858 44.56191598 77.69330053 42.71875 75.875 C39.86144529 73.06080963 37.00177921 70.24945969 34.12890625 67.45117188 C19.50454775 53.17787822 7.9549416 40.89150659 2 21 C1.63261719 19.91138672 1.63261719 19.91138672 1.2578125 18.80078125 C-0.61254054 12.69010726 -0.17322047 6.31292384 0 0 Z " fill="#A1D5E3" transform="translate(104,108)"/>
<path d="M0 0 C0.67160156 0.07347656 1.34320313 0.14695313 2.03515625 0.22265625 C4.68553752 1.21859008 5.46251843 2.54336516 6.9375 4.9375 C7.29826355 7.35467529 7.29826355 7.35467529 7.27807617 10.07324219 C7.27773628 11.60437653 7.27773628 11.60437653 7.27738953 13.16644287 C7.26190567 14.26136047 7.24642181 15.35627808 7.23046875 16.484375 C7.22622391 17.6107135 7.22197906 18.737052 7.21760559 19.89752197 C7.20081497 23.49442463 7.16316099 27.09076672 7.125 30.6875 C7.10995371 33.12629399 7.09626521 35.56509677 7.08398438 38.00390625 C7.05091015 43.98196205 7.00070643 49.95969097 6.9375 55.9375 C8.44316528 55.91393433 8.44316528 55.91393433 9.97924805 55.88989258 C13.71581955 55.83544886 17.45235621 55.80109774 21.18920898 55.77270508 C22.80417789 55.75765124 24.41910613 55.73720352 26.03393555 55.71118164 C28.35996555 55.67464714 30.68545341 55.65773985 33.01171875 55.64453125 C34.08857185 55.62130547 34.08857185 55.62130547 35.18717957 55.59761047 C39.60909545 55.59613769 42.46450282 56.13790998 45.9375 58.9375 C47.95697358 64.56006315 46.30492271 68.39430093 43.97900391 73.55957031 C43.51155762 74.55053711 43.04411133 75.54150391 42.5625 76.5625 C42.07571777 77.63081055 41.58893555 78.69912109 41.08740234 79.79980469 C39.99309159 82.19442994 38.89262734 84.58503705 37.78125 86.97167969 C35.79550393 91.23637462 33.83454207 95.51227738 31.875 99.7890625 C29.71274897 104.50725469 27.5474353 109.22391138 25.36669922 113.93359375 C21.87883958 121.47341564 18.43599353 129.02566121 15.1328125 136.6484375 C14.54226393 138.00232619 13.95160921 139.35616858 13.36083984 140.70996094 C12.26858332 143.214633 11.197173 145.72515647 10.13525391 148.24316406 C9.65233887 149.35143555 9.16942383 150.45970703 8.671875 151.6015625 C8.26163086 152.56529785 7.85138672 153.5290332 7.42871094 154.52197266 C5.62644022 157.44136795 4.04022562 158.52129604 0.9375 159.9375 C-2.6875 159.9375 -2.6875 159.9375 -6.0625 158.9375 C-10.31098027 154.29805905 -9.44097613 148.40894756 -9.35546875 142.51171875 C-9.35122391 141.40899124 -9.34697906 140.30626373 -9.34260559 139.17012024 C-9.32583905 135.65482977 -9.28818951 132.14011664 -9.25 128.625 C-9.23495059 126.23894058 -9.22126264 123.85287216 -9.20898438 121.46679688 C-9.17594212 115.62350158 -9.12576236 109.78054204 -9.0625 103.9375 C-10.09656982 103.96368408 -11.13063965 103.98986816 -12.19604492 104.0168457 C-16.04429359 104.10756423 -19.8924484 104.16482659 -23.74145508 104.2121582 C-25.40502839 104.23725347 -27.06849196 104.27133796 -28.73168945 104.31469727 C-31.12739153 104.3755746 -33.52163251 104.40375769 -35.91796875 104.42578125 C-36.6577446 104.45158768 -37.39752045 104.4773941 -38.15971375 104.50398254 C-42.01423148 104.50606105 -43.91052744 104.04636537 -47.0715332 101.78198242 C-49.4762017 98.34644684 -49.72777767 97.0496042 -49.0625 92.9375 C-48.10170957 90.35923539 -47.09789392 87.98821037 -45.90625 85.5234375 C-45.57225693 84.80819916 -45.23826385 84.09296082 -44.89414978 83.35604858 C-44.17133409 81.81101723 -43.44340157 80.26837146 -42.71090698 78.72790527 C-40.74453631 74.59210484 -38.81484549 70.43917017 -36.87890625 66.2890625 C-36.47914078 65.43497803 -36.07937531 64.58089355 -35.66749573 63.70092773 C-31.14878624 54.02835723 -26.83565478 44.26636595 -22.53515625 34.49530029 C-20.70821062 30.34546626 -18.87212607 26.20002137 -17.01580811 22.06323242 C-16.35040967 20.57949488 -15.68774163 19.09453117 -15.02716064 17.60864258 C-13.97884694 15.25973784 -12.9152098 12.91833835 -11.84765625 10.578125 C-11.52832626 9.85703552 -11.20899628 9.13594604 -10.87998962 8.39300537 C-8.4813624 3.19703936 -6.19299237 -0.8472109 0 0 Z " fill="#010101" transform="translate(81.0625,168.0625)"/>
<path d="M0 0 C0.68340311 -0.00709439 1.36680621 -0.01418877 2.0709185 -0.02149814 C4.3544915 -0.03906145 6.63635849 -0.0209845 8.91990662 -0.00291443 C10.5594612 -0.0080539 12.19901027 -0.01533539 13.83854675 -0.02459717 C18.28693253 -0.0431146 22.73471911 -0.03017123 27.18307996 -0.01050687 C31.83770781 0.00587543 36.4922976 -0.00293255 41.14694214 -0.00802612 C48.96247433 -0.0125471 56.77776719 0.00332411 64.59324646 0.03126526 C73.63144517 0.06332842 82.66921248 0.06329713 91.70744187 0.04605049 C100.40050519 0.030193 109.09341021 0.03691321 117.7864666 0.0539875 C121.48697557 0.06086343 125.18735786 0.05982005 128.88786507 0.05244255 C133.24399297 0.04478754 137.59962919 0.05687985 141.95567322 0.08429146 C143.55525185 0.09118424 145.15487633 0.09126368 146.75445366 0.08407593 C148.93629967 0.07540063 151.11662145 0.09130153 153.29833984 0.11352539 C154.51967401 0.11633231 155.74100817 0.11913923 156.99935246 0.12203121 C160.67118063 0.72421159 161.84657168 1.71576333 164.0856781 4.62818909 C164.6169281 6.62818909 164.6169281 6.62818909 164.5856781 8.62818909 C164.60114685 9.61818909 164.60114685 9.61818909 164.6169281 10.62818909 C163.8295706 13.5923585 162.47199007 14.72476638 160.0856781 16.62818909 C156.99935246 17.13434696 156.99935246 17.13434696 153.29833984 17.14285278 C152.27557517 17.15327108 152.27557517 17.15327108 151.23214859 17.16389984 C148.94804741 17.18219221 146.6649823 17.1719002 144.38084412 17.16163635 C142.74305951 17.16869377 141.10528143 17.17743804 139.46751404 17.18774414 C135.0191033 17.2102685 130.57104784 17.20729129 126.12260175 17.19842267 C122.4097673 17.19331661 118.69699984 17.20060226 114.98417228 17.20789474 C106.22554904 17.22490357 97.46709998 17.2213182 88.70848083 17.2046051 C79.67084593 17.18768265 70.63369398 17.20351769 61.59611183 17.23582798 C53.83801909 17.26251381 46.08007678 17.26980262 38.32194275 17.2613129 C33.68778164 17.25638072 29.05391115 17.25861487 24.41978645 17.27910042 C20.06197474 17.29744179 15.70485828 17.29151818 11.34708405 17.26690102 C9.74791499 17.26188814 8.14869311 17.26539533 6.54956627 17.27804947 C4.36557671 17.29396425 2.18388111 17.27904898 0 17.25637817 C-1.83256678 17.25549871 -1.83256678 17.25549871 -3.70215511 17.25460148 C-7.83440129 16.44876219 -9.3261263 14.88135813 -11.9143219 11.62818909 C-12.5393219 8.62818909 -12.5393219 8.62818909 -11.9143219 5.62818909 C-8.21510422 0.97854805 -5.88101599 0.00282235 0 0 Z " fill="#000000" transform="translate(347.91432189941406,415.37181091308594)"/>
<path d="M0 0 C0.82175217 -0.00554901 1.64350433 -0.01109802 2.49015808 -0.01681519 C5.19911515 -0.02859978 7.90639499 -0.00434938 10.61523438 0.02148438 C12.50183028 0.02319588 14.38842856 0.02312939 16.27502441 0.0213623 C20.22606199 0.02301487 24.17653173 0.04170121 28.12744141 0.07324219 C33.1883391 0.11291954 38.24849319 0.11728702 43.30951691 0.10977936 C47.20435379 0.10670774 51.09902394 0.11883701 54.99382019 0.13591003 C56.85970514 0.14293428 58.72560898 0.14606527 60.59150696 0.1452179 C63.20067401 0.14701848 65.80895517 0.16842221 68.41796875 0.1953125 C69.18694992 0.1923819 69.95593109 0.18945129 70.74821472 0.18643188 C75.22812538 0.25756011 78.15074365 0.83251037 81.70898438 3.61523438 C83.11356174 6.42438911 82.95793595 8.50333972 82.70898438 11.61523438 C80.92914033 14.75115008 80.18590231 15.45626173 76.70898438 16.61523438 C74.01298594 16.73197864 71.34185351 16.79330414 68.64501953 16.80810547 C67.82355942 16.81628296 67.0020993 16.82446045 66.15574646 16.83288574 C63.43652066 16.85770496 60.71734686 16.87424499 57.99804688 16.88867188 C57.06927105 16.89399555 56.14049522 16.89931923 55.18357468 16.90480423 C50.26952693 16.93151804 45.35550446 16.95090041 40.44140625 16.96533203 C36.37314436 16.97868474 32.30538245 17.00656419 28.23730469 17.04736328 C23.32547237 17.09662434 18.41409442 17.12144469 13.5020256 17.12855911 C11.63049739 17.13527896 9.7589796 17.15052009 7.88759232 17.17444992 C5.26843489 17.20603646 2.65103581 17.20614872 0.03173828 17.19873047 C-0.74038498 17.2151358 -1.51250824 17.23154114 -2.30802917 17.2484436 C-6.30121249 17.20216337 -8.09686598 16.7682148 -11.27212524 14.26626587 C-13.29101562 11.61523438 -13.29101562 11.61523438 -13.91601562 8.61523438 C-12.34133028 1.05674471 -6.85076914 -0.1181608 0 0 Z " fill="#010101" transform="translate(181.291015625,415.384765625)"/>
<path d="M0 0 C0.33 0 0.66 0 1 0 C1.01981934 0.58491211 1.03963867 1.16982422 1.06005859 1.77246094 C1.15553481 4.43208025 1.26512142 7.09093838 1.375 9.75 C1.4059375 10.67039063 1.436875 11.59078125 1.46875 12.5390625 C1.50742188 13.42851562 1.54609375 14.31796875 1.5859375 15.234375 C1.63306885 16.45979004 1.63306885 16.45979004 1.68115234 17.70996094 C2.02868454 20.20601917 2.67095532 21.86620725 4 24 C6.89924366 25.44962183 9.52300355 25.22126481 12.7578125 25.31640625 C13.42086395 25.33718735 14.08391541 25.35796844 14.76705933 25.37937927 C16.88626694 25.44479231 19.005599 25.50372105 21.125 25.5625 C22.56121081 25.60569309 23.99740902 25.64930764 25.43359375 25.69335938 C28.95559594 25.80046499 32.47773825 25.90175575 36 26 C33.30797874 35.06623252 29.26072847 43.49289347 25.3125 52.0625 C24.60309389 53.611135 23.89410588 55.15996161 23.18554688 56.70898438 C21.46184723 60.47488414 19.73249815 64.23814037 18 68 C17.67 68 17.34 68 17 68 C16.970271 67.06933716 16.970271 67.06933716 16.93994141 66.11987305 C16.84468155 63.30865463 16.73500698 60.49817834 16.625 57.6875 C16.5940625 56.71103516 16.563125 55.73457031 16.53125 54.72851562 C16.47324219 53.32182617 16.47324219 53.32182617 16.4140625 51.88671875 C16.3826416 51.02264404 16.3512207 50.15856934 16.31884766 49.26831055 C16.12811963 46.72257555 16.12811963 46.72257555 14 44 C10.63448877 42.87816292 7.90939768 42.79199032 4.36328125 42.68359375 C3.06455078 42.64169922 1.76582031 42.59980469 0.42773438 42.55664062 C-0.94400761 42.51683013 -2.31575244 42.47711784 -3.6875 42.4375 C-5.07097645 42.39429165 -6.45444027 42.35067661 -7.83789062 42.30664062 C-11.22515719 42.20041972 -14.61249799 42.09837642 -18 42 C-17.340617 37.04816297 -15.27837606 32.8939504 -13.18359375 28.41796875 C-12.61971703 27.19670036 -12.61971703 27.19670036 -12.04444885 25.95075989 C-10.84715686 23.36064541 -9.64244659 20.774061 -8.4375 18.1875 C-7.62255453 16.42796232 -6.80809581 14.66819912 -5.99414062 12.90820312 C-4.00172443 8.60283507 -2.00264979 4.30061682 0 0 Z " fill="#69C8E2" transform="translate(71,214)"/>
<path d="M0 0 C0.94256149 -0.01929062 1.88512299 -0.03858124 2.85624695 -0.05845642 C7.19708701 -0.11708751 11.53777301 -0.16558008 15.87890625 -0.19628906 C18.14696622 -0.21771777 20.41494699 -0.25163638 22.68261719 -0.29882812 C37.16138578 -0.59673645 49.82838963 0.05465797 63.12817383 6.20874023 C64.11817383 7.19874023 64.11817383 7.19874023 65.12817383 8.20874023 C35.42817383 8.20874023 5.72817383 8.20874023 -24.87182617 8.20874023 C-21.46442586 5.65319 -19.32444971 4.45418597 -15.43432617 3.08374023 C-14.04407227 2.58487305 -14.04407227 2.58487305 -12.62573242 2.07592773 C-8.39906511 0.74497718 -4.42756689 0.08542844 0 0 Z " fill="#EDF1F1" transform="translate(339.871826171875,495.791259765625)"/>
<path d="M0 0 C0.94256149 -0.01929062 1.88512299 -0.03858124 2.85624695 -0.05845642 C7.19708701 -0.11708751 11.53777301 -0.16558008 15.87890625 -0.19628906 C18.14696622 -0.21771777 20.41494699 -0.25163638 22.68261719 -0.29882812 C37.16138578 -0.59673645 49.82838963 0.05465797 63.12817383 6.20874023 C64.11817383 7.19874023 64.11817383 7.19874023 65.12817383 8.20874023 C35.42817383 8.20874023 5.72817383 8.20874023 -24.87182617 8.20874023 C-21.46442586 5.65319 -19.32444971 4.45418597 -15.43432617 3.08374023 C-14.04407227 2.58487305 -14.04407227 2.58487305 -12.62573242 2.07592773 C-8.39906511 0.74497718 -4.42756689 0.08542844 0 0 Z " fill="#EDF1F1" transform="translate(163.871826171875,495.791259765625)"/>
<path d="M0 0 C0.98935547 -0.00708984 1.97871094 -0.01417969 2.99804688 -0.02148438 C12.1047542 0.05813042 12.1047542 0.05813042 16.0625 3.4375 C17.46707737 6.24665474 17.31145157 8.32560534 17.0625 11.4375 C15.28265595 14.5734157 14.53941793 15.27852736 11.0625 16.4375 C7.42142203 16.71811885 3.77570024 16.7149196 0.125 16.75 C-0.87724609 16.77900391 -1.87949219 16.80800781 -2.91210938 16.83789062 C-10.24005104 16.90144182 -10.24005104 16.90144182 -13.59765625 14.66796875 C-14.99235228 12.34618615 -15.47944568 11.12202374 -15.4375 8.4375 C-15.45296875 7.4475 -15.45296875 7.4475 -15.46875 6.4375 C-13.43818337 -1.20698612 -6.47498163 -0.13025596 0 0 Z " fill="#010101" transform="translate(14.9375,407.5625)"/>
<path d="M0 0 C0.76183594 0.103125 1.52367187 0.20625 2.30859375 0.3125 C3.07300781 0.395 3.83742188 0.4775 4.625 0.5625 C7.44170492 1.55846196 8.18771709 2.7900776 9.74609375 5.3125 C10.13427734 7.61499023 10.13427734 7.61499023 10.14453125 10.12109375 C10.15033203 11.48911133 10.15033203 11.48911133 10.15625 12.88476562 C10.14464844 13.83029297 10.13304688 14.77582031 10.12109375 15.75 C10.13269531 16.69166016 10.14429687 17.63332031 10.15625 18.60351562 C10.11795397 27.64776105 10.11795397 27.64776105 6.74609375 31.3125 C4.625 32.16015625 4.625 32.16015625 2.30859375 32.375 C1.54675781 32.46910156 0.78492188 32.56320312 0 32.66015625 C-3.21011347 32.16500876 -4.2264114 30.80037299 -6.25390625 28.3125 C-6.77148438 25.71875 -6.77148438 25.71875 -6.78515625 22.8125 C-6.7903125 21.760625 -6.79546875 20.70875 -6.80078125 19.625 C-6.7853125 18.531875 -6.76984375 17.43875 -6.75390625 16.3125 C-6.769375 15.219375 -6.78484375 14.12625 -6.80078125 13 C-6.79304687 11.4221875 -6.79304687 11.4221875 -6.78515625 9.8125 C-6.78064453 8.8534375 -6.77613281 7.894375 -6.77148438 6.90625 C-6.0013933 3.0470766 -3.98921682 0.55309765 0 0 Z " fill="#010101" transform="translate(6.25390625,359.6875)"/>
<path d="M0 0 C0.93714844 -0.00257813 1.87429688 -0.00515625 2.83984375 -0.0078125 C7.80437377 0.06260637 11.52949427 0.18039685 15.5 3.5 C16.90457737 6.30915474 16.74895157 8.38810534 16.5 11.5 C14.72015595 14.6359157 13.97691793 15.34102736 10.5 16.5 C7.04690178 16.8042547 3.58992872 16.8234943 0.125 16.875 C-0.82117188 16.91238281 -1.76734375 16.94976562 -2.7421875 16.98828125 C-7.46883931 17.04802825 -9.74297641 17.06587514 -13.625 14.1640625 C-15.5 11.5 -15.5 11.5 -16.125 8.5 C-14.28929376 -0.31138993 -7.47902301 -0.22632532 0 0 Z " fill="#040404" transform="translate(303.5,415.5)"/>
<path d="M0 0 C4.18421805 0.87171209 5.42961969 2.20639419 8 5.625 C8.68745025 9.14220473 8.60807733 12.55353546 8.5 16.125 C8.50386719 17.53072266 8.50386719 17.53072266 8.5078125 18.96484375 C8.43739363 23.92937377 8.31960315 27.65449427 5 31.625 C2.19084526 33.02957737 0.11189466 32.87395157 -3 32.625 C-6.1359157 30.84515595 -6.84102736 30.10191793 -8 26.625 C-8.3042547 23.17190178 -8.3234943 19.71492872 -8.375 16.25 C-8.41238281 15.30382812 -8.44976562 14.35765625 -8.48828125 13.3828125 C-8.54802825 8.65616069 -8.56587514 6.38202359 -5.6640625 2.5 C-3 0.625 -3 0.625 0 0 Z " fill="#030404" transform="translate(416,271.375)"/>
<path d="M0 0 C2.875 1.6875 2.875 1.6875 5 5 C5.90290167 11.65251133 6.10885197 17.44096499 2 23 C-0.80915474 24.40457737 -2.88810534 24.24895157 -6 24 C-9.1359157 22.22015595 -9.84102736 21.47691793 -11 18 C-12.0494539 6.63591344 -12.0494539 6.63591344 -8.875 1.6875 C-5.44657382 -0.32483711 -3.9001417 -0.81252952 0 0 Z " fill="#040506" transform="translate(307,264)"/>
<path d="M0 0 C15.93848118 -0.69205162 30.34597287 -0.94043493 45 6 C45.66 6.66 46.32 7.32 47 8 C31.49 8 15.98 8 0 8 C0 5.36 0 2.72 0 0 Z " fill="#EEF2F3" transform="translate(6,496)"/>
<path d="M0 0 C0 1.65 0 3.3 0 5 C-3.96 5 -7.92 5 -12 5 C-7.90310444 1.92732833 -5.13829491 0 0 0 Z " fill="#E5E9EA" transform="translate(503,499)"/>
</svg>
